<svg width="24px" height="24px" viewBox="0 0 24 24" version="1.1" xmlns="http://www.w3.org/2000/svg" xmlns:xlink="http://www.w3.org/1999/xlink">
    <defs>
        <path d="M3,3 L10,3 C10.55,3 11,3.45 11,4 L11,10 C11,10.55 10.55,11 10,11 L3,11 C2.45,11 2,10.55 2,10 L2,4 C2,3.45 2.45,3 3,3 Z M3,13 L10,13 C10.55,13 11,13.45 11,14 L11,20 C11,20.55 10.55,21 10,21 L3,21 C2.45,21 2,20.55 2,20 L2,14 C2,13.45 2.45,13 3,13 Z M14,3 L21,3 C21.55,3 22,3.45 22,4 L22,10 C22,10.55 21.55,11 21,11 L14,11 C13.45,11 13,10.55 13,10 L13,4 C13,3.45 13.45,3 14,3 Z M14,13 L21,13 C21.55,13 22,13.45 22,14 L22,20 C22,20.55 21.55,21 21,21 L14,21 C13.45,21 13,20.55 13,20 L13,14 C13,13.45 13.45,13 14,13 Z M9,9 L9,5 L4,5 L4,9 L9,9 Z M9,19 L9,15 L4,15 L4,19 L9,19 Z M20,9 L20,5 L15,5 L15,9 L20,9 Z M20,19 L20,15 L15,15 L15,19 L20,19 Z" id="path-1"></path>
    </defs>
    <g id="grid_view_24px" stroke="none" stroke-width="1" fill="none" fill-rule="evenodd">
        <polygon id="bounds" fill-opacity="0" fill="#FFFFFF" points="0 0 24 0 24 24 0 24"></polygon>
        <mask id="mask-2" fill="white">
            <use xlink:href="#path-1"></use>
        </mask>
        <use id="icon" fill="#ffffff" fill-rule="nonzero" xlink:href="#path-1"></use>
    </g>
</svg>
