<svg width="24px" height="24px" viewBox="0 0 24 24" version="1.1" xmlns="http://www.w3.org/2000/svg">
    <g id="list_view_24px" stroke="none" stroke-width="1" fill="none" fill-rule="evenodd">
        <polygon id="bounds" fill-opacity="0" fill="#89898b" points="0 0 24 0 24 24 0 24"></polygon>
        <path d="M20,9 L4,9 L4,5 L20,5 L20,9 Z M20,19 L4,19 L4,15 L20,15 L20,19 Z M3,3 C2.45,3 2,3.45 2,4 L2,10 C2,10.55 2.45,11 3,11 L21,11 C21.55,11 22,10.55 22,10 L22,4 C22,3.45 21.55,3 21,3 L3,3 Z M3,13 C2.45,13 2,13.45 2,14 L2,20 C2,20.55 2.45,21 3,21 L21,21 C21.55,21 22,20.55 22,20 L22,14 C22,13.45 21.55,13 21,13 L3,13 Z" id="icon" fill="#ffff" fill-rule="nonzero"></path>
    </g>
</svg>
