<svg id="Food" xmlns="http://www.w3.org/2000/svg" width="30cm" height="30cm" viewBox="0 0 850.39 850.39"><defs><style>.cls-1{fill:#2e454a;}.cls-2{fill:#8c7b66;}.cls-3{fill:#702f09;}.cls-4{fill:#6a5b35;}.cls-5{fill:#234d00;}.cls-6{fill:#514528;}.cls-7{fill:#647d88;}.cls-8{fill:#4c5b65;}.cls-9{fill:#3c5d63;}.cls-10{fill:#0f4256;}.cls-11{fill:#00333f;}</style></defs><g id="background"><rect class="cls-1" width="850.49" height="850.4"/></g><g id="pasta_in_bowl" data-name="pasta in bowl"><path class="cls-2" d="M798.79,661s19.23-8.75,36.84-10.11c20.71-1.61,36,15.49,36,15.49S828,671.8,798.79,661Z"/><path class="cls-3" d="M838,655.68a32.34,32.34,0,0,0-20.44,6.46,320.69,320.69,0,0,0,32.85,1.63v-4.92A28.39,28.39,0,0,0,838,655.68Z"/><path class="cls-3" d="M560.24,679.43s-1.63-14.68,13.51-20a40.36,40.36,0,0,1,28.2.7s21.43,10.48,2.56,24.93S561.17,687.58,560.24,679.43Z"/><path class="cls-2" d="M260.53,726.61c-.9-7,6.59-32.23,59.07-18.06,16.88-70.47,62.26-59.12,74.79-56.15,47-58,120.61-11.75,136.55,15.37,5.68-1.22,27-3.18,40.31,12.35,13.32-28.55,66-86.78,120.17-18.19,24.79-12.07,51.55,6.78,51.55,6.78s-.43-14.36,21-14.45c16.77-.07,65.31,13.66,86.44,8.06V764.43s-500.27-2-533.59-2S261.43,733.58,260.53,726.61Z"/><path class="cls-4" d="M427.77,686.16s5.46-5.83,28.9-4.3c19.26,1.25,20.87,3.26,20.55,4.22s-6-.72-21.84-1.55A129.61,129.61,0,0,0,427.77,686.16Z"/><path class="cls-4" d="M476.32,697.75s-14.08,1.58-23.66.38c-19.11-2.41-29.37-8.82-29.87-8s10.68,8.93,29.62,10.61c16,1.42,28.18-.64,28.14,1.07-.06,2.49-20.43,3.88-32.39,2.55-22.4-2.49-27.69-10.68-28.82-8.59s6.51,7.78,11.08,14.13,16.52,16.68,16.52,16.68,12.63-2.82,20-7.05,8.67-4.94,8.35-4.42c-6.18,10-19.5,14.45-18.62,15.33s17.82-6,26.33-17.66,17.64-26.31,14.13-27C481.71,682.55,476.32,697.75,476.32,697.75Z"/><path class="cls-4" d="M448.16,707.76a106.9,106.9,0,0,0,28.57-1c1.87-.32-.2,3.44-1.77,4.19-5.5,2.62-22.55,2.65-22.55,2.65Z"/><path class="cls-4" d="M348.8,704.89S361,682.23,391,687.69c21.19,3.85,31,26.73,42.3,37,13.66,12.4,24.64,16.72,24.4,17.57s-12.6-1.52-28.33-17.33c-12.77-12.84-21.65-31.42-39.82-34.36C365.24,686.65,348.8,704.89,348.8,704.89Z"/><path class="cls-4" d="M357.94,685.12s10.67-7.78,33.71-5.14c-.4-3.81-.8-8.75-1-14.77-6.51-3.85-37.71-2.17-44.39,21.68-8.67,30.9,9.71,45.67,9.71,45.67s17.49-16.47,30.79-20.25c15.77-4.47,22.76,2.06,22.59,1-.48-3-14.49-17.43-33.31-15.34-16.62,1.85-23.12,14.45-25.65,14.27-1.62-.12-4.78-21.81,7.59-34.73,10.24-10.71,28.33-12.21,28.81-7.79C387.46,675.46,367.17,670.75,357.94,685.12Z"/><path class="cls-4" d="M377.68,722.93c-1.43.43,7.79-8.43,22.32-5.7,13.19,2.48,26.85,14.6,31.87,17.9,10.11,6.66,14.93,6.1,14.69,7.22s-12.63.53-14.69-.48C425.76,738.9,410.75,713.06,377.68,722.93Z"/><path class="cls-4" d="M378.89,742.19c-1.13-.4-3.93-9.6,5.62-13.48,18-7.31,35.48,10.11,38.45,12.92-9.32-1.44-16.62-12-33.24-7.7C380.29,736.34,378.89,742.19,378.89,742.19Z"/><path class="cls-4" d="M385.87,743.61s6.15-9.1,24.24-.05C411.53,744.27,395.66,747.14,385.87,743.61Z"/><path class="cls-4" d="M357.67,744.58s-20.57-12.91-21.51-42.92c-.86-27.08,24.4-48.59,54.26-43.46-3-1-23.23-8.45-42.28,8.89s-26.33,59.29-27.72,63.14c-5.56,0-23.54,11.35-23.54,11.35l37.78,1.71a50.16,50.16,0,0,1-5.57-15.73c-1.5-8.78,4.5-29.43,4.5-29.43s-2.68,27.39,7.7,45.91S357.67,744.58,357.67,744.58Z"/><path class="cls-4" d="M275.26,735.59c9.2,7.38,37.62-7,40.45-12.31,1.21-2.26,2.41-7,1.72-7C316.35,716.4,311.22,726.17,275.26,735.59Z"/><path class="cls-4" d="M301.3,719.62c.42-.39-11.94-1.49-22.62,6.11C277.81,726.35,295.41,725.07,301.3,719.62Z"/><path class="cls-4" d="M307.15,712.53c-17.54-5.2-41.4,6.44-38,12.09,1.59,2.63,7.12-5.9,18.06-8.71C296.67,713.49,308.6,713,307.15,712.53Z"/><path class="cls-4" d="M756.29,723.3c-5.21-9.24-18.5-27.66-32.29-20.47C707.12,711.62,741.18,728.42,756.29,723.3Z"/><path class="cls-4" d="M722,697.79c4.29-3.47,22-10.64,34.43,6,15.22,20.22,22.38,19.4,18.58,20.53C757.38,729.54,753.31,690.36,722,697.79Z"/><path class="cls-4" d="M726.64,689.12c10.41-3.88,22.79-6.77,44,15.28,20.34,21.12,37.72,23.12,32,22.87C765.37,725.62,764.13,680.78,726.64,689.12Z"/><path class="cls-4" d="M723.71,683.39c16.92-7.65,34.86-5.88,62,19.77,28.47,26.85,55.51,28,47.37,27.15C773.79,724.19,772.22,671,723.71,683.39Z"/><path class="cls-4" d="M832.66,724.61s-17.82-5.08-23.65-11.45C808.07,712.14,832.66,724.61,832.66,724.61Z"/><path class="cls-4" d="M834.37,715c.81-3.75-16.37-12.1-46.39-17.72C792.1,703.64,799.64,702.46,834.37,715Z"/><path class="cls-4" d="M851.68,714.26c-12.12-19.51-56.43-32.75-89.55-35.8C772.14,690.1,794.53,678.22,851.68,714.26Z"/><path class="cls-4" d="M879.65,681.15c-10.94-6.1-33.43,6.1-52.18,6.58C835.32,690.64,841.65,687.66,879.65,681.15Z"/><path class="cls-4" d="M889.45,679.86c-11.81-4.18-31.93,11.63-50.33,15.25C847.34,696.66,853.09,692.67,889.45,679.86Z"/><path class="cls-4" d="M873.29,672c-19.2-1.3-29.47,5.69-51.75,9.33C834,682.63,835.7,680.49,873.29,672Z"/><path class="cls-4" d="M862.36,671.8c-28-3-31.47,2.89-54.47,7.58C820.38,680.71,829.21,673.24,862.36,671.8Z"/><path class="cls-4" d="M874.72,760.58c-77.7-46.08-154.44-30-157.56-16.34C725.58,732.64,786.1,723.65,874.72,760.58Z"/><path class="cls-4" d="M871.19,774.54c-77.7-46.07-154.44-30-157.56-16.33C722.05,749.18,782.57,737.62,871.19,774.54Z"/><path class="cls-4" d="M823.67,669c-31.47,11.56-81.15,5.92-71.39-4.6C763.41,651.57,805.37,669.44,823.67,669Z"/><path class="cls-4" d="M710.41,735.93c-.3-3.91,3.13-4.2,7.46-5,4.5-.81,5.7-3.38,11-3.05C728.31,725.74,699.09,726.3,710.41,735.93Z"/><path class="cls-4" d="M719,719.85c-3.43-6.42-14-17.34-6.1-35.32-2.89-.1-24.19,6.21-24,8s20-5.42,20.83-4.78-.75,3.09-2.35,6.94c-1.06,2.54-15.93,4.73-16.14,6.55s10.61-2.29,10.38-1.07c-.37,1.91-1.27,6.92-1.27,6.92s-10.49,3.85-10.49,5.13,10.17-2.89,10.17-2.89,3.51,4.52-3.74,10.71c22.79,3.64,7-7.28,11.88-14.45C708.94,706.05,714.29,718.89,719,719.85Z"/><path class="cls-4" d="M473.26,750.36s35.46-26.57,48.27-32.54c14.45-6.74,45.76-19.83,78.56-5.67,29,12.52,22.37,13.7,22.37,13.7s-23.12-17.5-59.62-16.17c-40.88,1.5-76,36.18-88.06,41.19C472.93,751.64,473.26,750.36,473.26,750.36Z"/><path class="cls-4" d="M506.21,737.21s10.26-7.78,27.84-15c12-4.94,27.77-8,28.26-6.83s-10.84,2.89-27.62,9.48C524.69,728.78,506.94,737.44,506.21,737.21Z"/><path class="cls-4" d="M620.37,755.76s3-2,2.08-7.52-8.53-7.14-9.43-7.57a29.24,29.24,0,0,0-4.48-6.58s2.36,1.28,5.73,5.46c1.66.53,11.93,1.65,10.43,13.75S620.37,755.76,620.37,755.76Z"/><path class="cls-4" d="M619.05,754.72c1.84-1.5,1.36-4.75,0-6.66a5.74,5.74,0,0,0-6.35-2,5.67,5.67,0,0,0-3.67,5.53C609.13,754.07,615.18,757.85,619.05,754.72Z"/><path class="cls-4" d="M590.16,738.47l6.48,3.09s5.48-1.25,7,1.48,0,4.41.56,4.67,4.61-5.63-.34-8.38C598.27,736.21,590.16,738.47,590.16,738.47Z"/><path class="cls-4" d="M539,745.31s18.67-4.91,32.53-4.27c-22.36-2.3-36.06,3.05-36.06,3.05Z"/><path class="cls-4" d="M651.65,713.22s-8.81,3.21-17.1,1.2A88.3,88.3,0,0,1,613,706.27s2,4,14.83,9.85c8.33,3.83,8.57,40.76,8.57,40.76l21.75-2.56S652.05,731.44,651.65,713.22Z"/><path class="cls-4" d="M608.63,687.26s3.69,17.37,23.43,21.14c14.19,2.71,18.14-1.36,17.74-2.73-.49-1.69-5.3,2-17.74-.16C623.58,704,616.5,700.56,608.63,687.26Z"/><path class="cls-4" d="M620.31,697.93s6.05,5.6,16.86,4.74,14.24-4.76,13.38-6.15-4.39,2.25-12.31,3.37A33.17,33.17,0,0,1,620.31,697.93Z"/><path class="cls-4" d="M655.1,671.42c-26.28-8.36-35.23,17.56-31.41,20.34,7.64,5.56,24.68.47,27.4-6.32C654.51,676.88,656.28,671.8,655.1,671.42Z"/><path class="cls-4" d="M619.36,688.85s-1.48-17.6,15.62-22c13.64-3.53,21.94.48,21.94.48s1.07-3.42,1.44-4.82c-3.63-2.08-18.19-4.85-27.82,1C619.46,670.14,615.5,680.79,619.36,688.85Z"/><path class="cls-4" d="M615.68,684.34s-5.62-20.19,13.89-26.27c17-5.3,30.4-.2,30.4-.2l.59-3.17s-17.5-7.79-34.92.16C613.57,660.37,607.89,676.09,615.68,684.34Z"/><path class="cls-4" d="M602.64,681A54.52,54.52,0,0,0,605,707.6a78.25,78.25,0,0,0-14.91-5.5S597.45,687.86,602.64,681Z"/><path class="cls-4" d="M578.32,699.83l5.58.86s13.73-31.3,28.58-43.82c24-20.22,45.83-5,46.87-6.67.69-1.1-19.66-10.19-38-.8S591.2,674.85,578.32,699.83Z"/><path class="cls-4" d="M577.16,685.26c8.48-11,22.81-33.18,37.91-40.22,28.47-13.27,43.56-1.8,43.56-4,0-3.21-20.12-10.6-42.27,0C597.3,650.19,578,678.86,577.16,685.26Z"/><path class="cls-4" d="M493.38,727.13c3.75-2.89,27.61-21.08,47.41-24.4s1-20.12-16-6.85-5.43,1.15-5.43,1.15,6.47-10.64,17.63-12.07c11.67-1.5,19,9.1,19.69,8s-6.1-15.31-23.65-10.81C513.85,687.08,505.26,711.72,493.38,727.13Z"/><path class="cls-4" d="M465.45,735.09a39.33,39.33,0,0,0,21.19-11.28c18.73-19.58,20.17-41.85,40.88-46.88,35.75-8.67,34.59,17.19,35.21,16.59,2.57-2.46,1.12-27.32-34.35-19.37C496.38,681.32,505.91,714.91,465.45,735.09Z"/><path class="cls-4" d="M399.53,656.75s20.8-31.45,63.24-25.25c41.74,6.1,65.61,42.65,65.61,42.65l-4.74,1.69s-21.54-35.67-71.47-41.13C422.24,631.44,399.53,656.75,399.53,656.75Z"/><path class="cls-4" d="M448.85,640.93s16-.63,38.43,10c14.82,7,18,12.36,18,12.36S480.59,647.07,448.85,640.93Z"/><path class="cls-4" d="M473.51,655.87c-.49-.29-44.5-24-64.24,1.75-14.49,18.91-3.3,30.31,16.17,21.32,28-12.92,81.56,8.45,80.36,7.73-18.79-11.18-44.64-13.59-44.64-13.59s15.29-1.83,24.19.11c16.11,3.5,21.94,8.35,22.37,7.38s-12.63-9.74-30.5-10.59-39.82,4.95-55.63,3.1c-10.57-1.23-16.94-2.65-15-6.75s7.18.89,23.68.41c-7.34-1.85-20.75-2.54-19.52-6.09,2-5.7,16.06.59,23.92-.2,13.92-1.39,16.8-6.31,24.83-.92C461.45,660.88,473.51,655.87,473.51,655.87Z"/><path class="cls-4" d="M423.34,657.55s11.58,3.65,25.4-2.24C435.32,650.85,423.34,657.55,423.34,657.55Z"/><path class="cls-4" d="M468.42,664c19-.23,27.06,4,27.31,2.66s-6.52-6-10.54-6S471.3,662.57,468.42,664Z"/><path class="cls-4" d="M566.77,726.75c15.57-2.78,32.48-3.13,46.68,4.5,3,1.86,6,3.81,8.87,5.8.08.06.16,0,.12-.12a18.94,18.94,0,0,0-6-6.9c-28.94-18.83-72.48-1.85-101.76,9.3C545.61,732.27,561.64,727.92,566.77,726.75Z"/><path class="cls-4" d="M591.51,730.9c-2.25-.46-23.79,2-28.53,3.18-.1,0,14.61,1.42,16.51.65S591.76,731,591.51,730.9Z"/><path class="cls-3" d="M297.17,722.07s24.16-6.77,24.08-19.45c-.87-.4-8-5-16-.65C292.56,708.8,297.17,722.07,297.17,722.07Z"/><path class="cls-3" d="M349.42,724.34A52.21,52.21,0,0,0,363.23,739s7.69,2.44,16.6-12.76,8.74-32.33,8.74-32.33S363.05,710.18,349.42,724.34Z"/><path class="cls-3" d="M539,745.31l-50.15,19.92s-2.27-14.15,16.43-21A44.55,44.55,0,0,1,539,745.31Z"/><path class="cls-3" d="M612.78,710.88S635,721,638,742.86c0,0,7.1-13.72-2.8-25.34C627.11,708.09,612.78,710.88,612.78,710.88Z"/><path class="cls-3" d="M663.81,754.92s-3.84-17.3,5.94-29.18,30.24-11,38.8-3.15c0,0-9.79,4.37-12.93,19.57s-3.15,15.91-3.15,15.91Z"/><path class="cls-3" d="M700.51,681.17s24.64-12.23,47.18-8.56c0,0-4.19-14.85-20.27-11.88S700.51,681.17,700.51,681.17Z"/><path class="cls-3" d="M815.09,717.89s6.82,4.9,19.22,7.52a74,74,0,0,1,16.08,5.38V701.23C840.49,701.34,817,703.17,815.09,717.89Z"/><path class="cls-3" d="M426.32,704.77s3.49,4.89,8.21,10.48,10.66,11.36,12.41,11.36,7.69-.17,15.73-4.72C462.67,721.89,455.5,696.73,426.32,704.77Z"/><path class="cls-5" d="M678.26,626.9a16.08,16.08,0,0,0,2.22-3.54.06.06,0,0,0-.11-.06,29,29,0,0,1-3.18,3.49,24.51,24.51,0,0,0,3.44-5,.06.06,0,0,0-.11-.06,25.78,25.78,0,0,1-5.77,6.16l-.73.58c.65-.81,1.29-1.64,1.89-2.49a20.12,20.12,0,0,0,3.24-5.92c0-.13-.15-.26-.25-.14a28.32,28.32,0,0,0-1.87,2.62c-.62.93-1.27,1.85-1.94,2.75-.15.2-.32.38-.47.58.25-.41.49-.81.72-1.23a43.67,43.67,0,0,0,3.39-7.74c0-.06-.08-.11-.11,0-1.33,2.45-2.74,4.88-4.18,7.26-.72,1.2-1.46,2.39-2.24,3.55-.19.29-.39.58-.59.86l.09-.24c.25-.39.49-.78.73-1.17.75-1.27,1.47-2.55,2.14-3.86a33.5,33.5,0,0,0,3.15-7.91c0-.05-.06-.08-.08,0-1.26,2.26-2.3,4.62-3.52,6.91.13-.35.27-.69.4-1a49.8,49.8,0,0,0,2.41-8.63.2.2,0,0,0-.38-.11c-.95,2.77-2,5.49-3.18,8.18-.08.2-.17.39-.25.58a41.63,41.63,0,0,0,1.65-7.81c0-.24-.33-.25-.4,0-1,2.7-2.13,5.35-3.23,8a51.75,51.75,0,0,0,1.17-7.29c0-.15-.22-.17-.27,0-1.22,4.19-2.54,8.37-3.87,12.53,0-.14.05-.3.07-.44a55,55,0,0,0,.42-8.21.15.15,0,0,0-.3,0,49.17,49.17,0,0,1-1.52,7.29c.1-.93.18-1.87.21-2.81,0-1.45-.12-2.86-.21-4.31a.14.14,0,0,0-.27,0c-.14,1.39-.45,2.78-.66,4.16s-.43,2.72-.69,4.08c-.07.4-.15.79-.23,1.19a41.06,41.06,0,0,0,.26-7.68c0-.24-.42-.34-.46-.06-.39,2.3-.8,4.59-1.2,6.89a44.61,44.61,0,0,0-.19-5.78.11.11,0,0,0-.22,0c-.41,3.4-1,6.78-1.59,10.14.06-1.14.1-2.27.07-3.42,0-1.38-.29-2.72-.36-4.1a.09.09,0,0,0-.17,0c0,1.33-.3,2.64-.43,4l-.3,3a39,39,0,0,0-.5-5.79c0-.1-.16-.07-.17,0-.2,2.69-.44,5.37-.65,8.06-.09,1.19-.22,2.37-.36,3.55,0-.24,0-.49,0-.73,0-1.09,0-2.17,0-3.26s-.19-2.17-.24-3.25a.07.07,0,0,0-.13,0c-.08,1.09-.29,2.16-.39,3.25-.06.56-.11,1.12-.16,1.68A23.45,23.45,0,0,0,657,630c0-.07-.14-.08-.15,0-.56,3.87-.09,7.82-.74,11.7-.56,3.38-2,6.66-2,10.1-.1.26-.19.53-.27.79l-.12-.56c0-.18-.07-.35-.11-.52a.14.14,0,0,0,0-.09l-.09-.32a13.54,13.54,0,0,0-.54-1.78q-.79-2.58-1.64-5.14c-.4-1.18-.74-2.38-1.16-3.55-.16-.47-.34-.92-.52-1.37,0-.61-.2-1.22-.29-1.83s-.17-1.37-.22-2a18.81,18.81,0,0,1,.88-5,28.19,28.19,0,0,1,1.25-3.36c.54-1.14,1.28-2.16,1.89-3.26a.51.51,0,0,0,.06-.27c.2-.21.41-.41.6-.63a21.27,21.27,0,0,0,2.93-4.35c.05-.09-.07-.2-.14-.11-1,1.26-2,2.45-3.15,3.61.28-.41.55-.82.81-1.25a20.11,20.11,0,0,0,2.4-6,.07.07,0,0,0-.14,0,23.06,23.06,0,0,1-3.13,5.5c-.47.67-1,1.31-1.47,2a23.86,23.86,0,0,0,1.42-2.42,20.66,20.66,0,0,0,1.84-5.51.16.16,0,0,0-.31-.09,25.23,25.23,0,0,1-2.31,5.24,38.15,38.15,0,0,1-2.9,4.12l-.12-.08c.27-.39.53-.78.78-1.18a24.57,24.57,0,0,0,1.85-4c0-.09-.12-.15-.16-.07a18.44,18.44,0,0,1-1.4,2.33,26.66,26.66,0,0,0,1.58-3.49,28.22,28.22,0,0,0,1.43-5.58.08.08,0,0,0-.16,0,32.8,32.8,0,0,1-1.92,5.35c-.42.94-.91,1.83-1.41,2.71.05-.1.09-.21.14-.32a30.82,30.82,0,0,0,1.2-3.2,46.17,46.17,0,0,0,1.43-6.78.09.09,0,0,0-.17,0,37.75,37.75,0,0,1-2.06,6.36c-.41,1.05-.86,2.09-1.33,3.11h0a27.71,27.71,0,0,0,1.65-11,.1.1,0,0,0-.19,0,38,38,0,0,1-1.29,6.59c-.27,1-.6,2-.95,2.93.2-1.16.35-2.32.46-3.46a45.21,45.21,0,0,0,.05-7.63.11.11,0,0,0-.21,0c-.18,2.51-.54,5-1,7.47-.16.92-.35,1.83-.55,2.74,0-1,0-2.11,0-3.16a67.73,67.73,0,0,0-.61-7.4s-.08-.06-.08,0c0,2.42-.14,4.84-.23,7.25-.05,1.19-.12,2.38-.19,3.56l-.06.9c-.16-1-.36-2-.56-3-.4-2-.87-4-1.41-6,0,0-.07,0-.06,0,.31,2,.61,4,.89,6,.21,1.51.36,3,.59,4.52l-.18-.41c-.73-1.78-1.49-3.57-2-5.41a0,0,0,0,0-.09,0c.39,1.83.74,3.65,1.27,5.44-.14-.29-.28-.58-.41-.87a37.9,37.9,0,0,1-2.29-6.18.12.12,0,0,0-.23.06,40.53,40.53,0,0,0,1.55,6.53,30.29,30.29,0,0,0,1.19,3c.18.37.36.73.55,1.08v.17s0,0,0,0c-.36-.68-.73-1.37-1.06-2.06a40.63,40.63,0,0,1-2.47-6.18.16.16,0,0,0-.16-.11,24.79,24.79,0,0,0-.95-5.46.07.07,0,0,0-.14,0c0,2.21,0,4.43,0,6.64,0,.1,0,.2,0,.3l-.18-.05c0-.39-.05-.79-.09-1.18a57.12,57.12,0,0,0-1.23-7.11c0-.07-.12,0-.12,0,.17,2.4.16,4.82.26,7.23,0,.72,0,1.44.05,2.16,0-.1,0-.2,0-.3-.16-1.16-.3-2.33-.52-3.48-.43-2.27-1-4.48-1.62-6.7a.14.14,0,0,0-.28,0c.21,1.91.36,3.84.54,5.76-.78-2.54-1.5-5.11-2-7.71a.08.08,0,0,0-.15,0,46.94,46.94,0,0,0,2.54,10.9h0l-.69-1.89c-.76-2.13-1.61-4.23-2.21-6.42a.11.11,0,0,0-.21,0c.45,2.22.79,4.47,1.35,6.67.28,1.09.59,2.18.94,3.26,0,.15.11.3.16.46-.26-.48-.51-1-.74-1.45a50.58,50.58,0,0,1-2.56-6,.07.07,0,1,0-.13,0,42.54,42.54,0,0,0,3,8.89c-1-1.84-2.05-3.62-2.87-5.55a64.26,64.26,0,0,1-2.66-7.74c0-.08-.15-.07-.14,0a32.34,32.34,0,0,0,2,8.14,38.24,38.24,0,0,0,2.11,4.63c-.29-.35-.58-.7-.85-1.07a28.74,28.74,0,0,1-1.94-3.25,71.91,71.91,0,0,1-3.25-7.09c0-.12-.23-.07-.19,0A60.66,60.66,0,0,0,631,614.6c.14.3.28.6.43.9-.37-.48-.74-1-1.08-1.48a58.39,58.39,0,0,1-3.74-6.16c-.06-.11-.23,0-.2.09a28.38,28.38,0,0,0,3.08,6.69c.47.73,1,1.43,1.48,2.13a.08.08,0,0,0,0,.12l.77,1.44c-.78-.92-1.58-1.83-2.43-2.69-1.39-1.43-2.89-2.73-4.35-4.08a.08.08,0,0,0-.11.11c1.31,1.46,2.52,3,3.77,4.54.84,1,1.7,2,2.56,3,.25.44.51.88.77,1.31-.52-.54-1-1.1-1.56-1.63a24.76,24.76,0,0,1-1.85-2c-.07-.08-.21,0-.15.12.52.74,1,1.52,1.47,2.28.09.14.2.28.3.42l-.65-.59c-.51-.48-1.06-.92-1.6-1.36s-1.07-.8-1.63-1.18-1.13-.79-1.69-1.2c0,0-.09,0,0,.08.49.47,1,.94,1.42,1.45s.89,1,1.37,1.51l.5.51-.71-.38c-.73-.38-1.45-.79-2.15-1.21s-1.55-.8-2.28-1.29c-.06,0-.12,0-.07.1.62.57,1.15,1.22,1.81,1.75s1.12.87,1.69,1.29c-1-.26-1.95-.46-3-.64-.08,0-.14.1-.06.14,1.42.63,2.79,1.36,4.16,2.08a20.46,20.46,0,0,0-8.49-1.53c-.11,0-.14.18,0,.2a38,38,0,0,1,8.42,2.77c1.32.61,2.59,1.31,3.87,2l.52.29c-1-.42-1.9-.85-2.86-1.25-2.6-1.07-5.31-2.25-8.16-2.38,0,0-.05.07,0,.07,2.39.38,4.5,1.76,6.58,3a22.18,22.18,0,0,0-6.95-1.47c-.11,0-.13.16,0,.18a34.83,34.83,0,0,1,6.63,2.53c-.76-.26-1.52-.5-2.3-.69a37.42,37.42,0,0,0-4.95-.75c-.07,0-.08.1,0,.12a55.5,55.5,0,0,1,6.56,2.64h-.07a22,22,0,0,0-5.47.89c-.07,0-.06.15,0,.14a30.84,30.84,0,0,1,5.35.06c.52.06,1.05.14,1.57.23a24.06,24.06,0,0,0-2.4.23,20,20,0,0,0-3.11.88s0,.08,0,.08c1-.1,2,0,3-.08s2.09,0,3.13,0,2,.11,3,.23l.53.08c-2.25-.12-4.84-.21-6.78.89a.12.12,0,0,0,.06.23c1.33.07,2.67-.06,4,0,.8,0,1.58.14,2.37.24a27.76,27.76,0,0,0,3,6.55,30.39,30.39,0,0,0,2.27,2.89c-.32-.25-.65-.49-1-.76A45.12,45.12,0,0,1,628,631a.06.06,0,0,0-.11.06,28.38,28.38,0,0,0,6.59,9,26.35,26.35,0,0,1-8.66-7.76.06.06,0,0,0-.1,0c1.71,4,4.86,6.84,8.45,9.12l-.76-.41a30.18,30.18,0,0,1-8.89-7.19s-.08,0-.06.05a19.46,19.46,0,0,0,3.38,4.58l.1.09c-1.61-.86-3.24-1.71-4.87-2.55s-3.35-1.52-5.05-2.25c0,0-.09,0,0,.07,1.53,1,3,2.07,4.6,3s3.13,1.9,4.69,2.87l1.67,1.05a63,63,0,0,1-8-3.84s0,0,0,0a56.43,56.43,0,0,0,6.54,4.52,65.41,65.41,0,0,1-10.92-6c-.09-.06-.19.07-.11.15a39.09,39.09,0,0,0,6.87,5.19c-3.2-1.16-6.37-2.41-9.59-3.49-.07,0-.12.08-.05.13a73.46,73.46,0,0,0,10.69,5.33,38.37,38.37,0,0,0-9.87-.13s0,.06,0,.06a57.88,57.88,0,0,1,7.09.69c-.33,0-.66,0-1,.08a26.21,26.21,0,0,0-5.07.77.08.08,0,0,0,0,.15,41.89,41.89,0,0,0,5.25-.13c1.68-.06,3.37-.13,5-.14H626l.11,0c-2.86,0-5.88.26-8.34,1.7-.09.06-.06.23.06.22,1.91-.19,3.77-.37,5.64-.44a21.79,21.79,0,0,1,2.44,1.71c.86.71,1.67,1.49,2.48,2.25.5.47,1,1,1.47,1.45h0c.12.16.23.33.34.5l-.06-.06a38.82,38.82,0,0,0-7.3-5.71c-.09-.06-.2.08-.11.14a53.83,53.83,0,0,1,5,4.57,37,37,0,0,0-6.36-2.67c-.1,0-.18.13-.08.17a27.22,27.22,0,0,1,6.18,3.88A23,23,0,0,0,620,648.7a.11.11,0,0,0-.08.2c1.62,1,3.23,2.05,4.8,3.13l2,2.08c-1.9-1.4-3.8-2.77-5.82-4-.06,0-.13,0-.08.1a84.51,84.51,0,0,0,6.55,6l-.48-.27a31.67,31.67,0,0,1-5.88-4.49c-.14-.14-.33.06-.21.21a27.3,27.3,0,0,0,5.6,5.13h0l-.43-.2a26,26,0,0,1-4.22-2.64c-.1-.08-.23.09-.13.17a32,32,0,0,0,4.07,3,17.27,17.27,0,0,0,4.62,2.07.32.32,0,0,0,.17,0c.27.12.54.24.81.34l-.75-.2a34.5,34.5,0,0,1-9.91-4.33c-.08-.05-.17.07-.1.14a26.81,26.81,0,0,0,8.72,5,41.68,41.68,0,0,1,4.32,1.64,12.66,12.66,0,0,1,2,1.2,19.79,19.79,0,0,1-3.6-.36,22.52,22.52,0,0,1-7.28-2.81c-.07,0-.15.06-.09.12a16.45,16.45,0,0,0,7,4.24,19,19,0,0,1-2.12-.31,7.65,7.65,0,0,1-3.32-1.34,0,0,0,0,0-.06.06,7.58,7.58,0,0,0,2.61,2.26l.26.1a17.81,17.81,0,0,1-4.15-1.34,9,9,0,0,0-4.4-1.26s0,0,0,0c1.84.53,3.2,2,4.86,2.94a15.24,15.24,0,0,0,3.42,1.32,13.15,13.15,0,0,1-5-1.32s-.06,0,0,.05a11.68,11.68,0,0,0,3.21,1.93,11.22,11.22,0,0,0,4,.7c.22,0,.45,0,.67,0a20.15,20.15,0,0,0-4.25,3.14c-.08.08,0,.23.12.16a24.52,24.52,0,0,1,5.21-3,33.66,33.66,0,0,0-3.31,2.41c-.07.05,0,.16.08.11a19.14,19.14,0,0,1,4.57-2.39,12.27,12.27,0,0,0-3.36,2.53c-.08.09,0,.24.13.17a25.08,25.08,0,0,1,5.46-2.72c.46-.16.93-.31,1.39-.45a27.54,27.54,0,0,0-5.68,3.18c-.13.08,0,.28.11.2a33.91,33.91,0,0,1,4.58-2.12,18.16,18.16,0,0,0-3.14,2.11c-.06.05,0,.15.09.11a23.8,23.8,0,0,1,4.83-2.17l.74-.21a1.86,1.86,0,0,1-.27.22.2.2,0,0,0-.07.1,9.27,9.27,0,0,0-4,2,.08.08,0,0,0,.08.13,12,12,0,0,1,7-.53,11,11,0,0,1,2.83,1.14l.09.07a13.45,13.45,0,0,1,2.49,3.61,17.82,17.82,0,0,1,1.27,4.07c0,.2,0,.4,0,.59a1.09,1.09,0,0,0,.16.5c0,.07,0,.15,0,.22l0,0a34.35,34.35,0,0,0-3.12-1.64c-2-1-4.24-2-5.46-4,0-.06-.14,0-.12,0a8.59,8.59,0,0,0,3.57,4.08c-2.07-.7-4.18-1.48-5.55-3.27,0,0-.08,0-.06,0a9.51,9.51,0,0,0,2.61,2.75c-1.68-.83-3.23-1.95-4.83-2.94,0,0,0,0,0,0a18,18,0,0,0,3.88,3.68,12.75,12.75,0,0,1-5.7-3.11s0,0,0,0a15.37,15.37,0,0,0,5.83,4.28,17.34,17.34,0,0,1-2.71-.93,28.42,28.42,0,0,1-4-2.29c-.06,0-.12,0-.08.09a14.09,14.09,0,0,0,6.31,4.38c-3-.59-6.2-1.37-8.57-3.23a.07.07,0,0,0-.1.1,11.63,11.63,0,0,0,4.72,3.47,31.73,31.73,0,0,1-7.27-3s-.11,0-.07.08a23,23,0,0,0,7.12,4.32,73.45,73.45,0,0,1-8.69-1.75.14.14,0,0,0-.1.25,24.78,24.78,0,0,0,10.27,3.08c.55.07,1.1.1,1.65.15h-.13a35.82,35.82,0,0,1-5.18.1,18.75,18.75,0,0,1-5.46-1,0,0,0,0,0,0,0A14.57,14.57,0,0,0,632,686.9a25.15,25.15,0,0,0,4.42.41c-1.85.49-3.67,1-5.48,1.67-.11,0-.06.18,0,.17,2.79-.44,5.58-.93,8.38-1.36l1.39-.22a24.47,24.47,0,0,0-6.38,3.25s0,.13,0,.1c2.32-.87,4.61-1.86,7-2.56l.27-.07c-1.43.89-2.88,1.77-4.22,2.79-.17.13-.08.46.15.37a39.36,39.36,0,0,0,4.72-2.27l.06,0q-.21.21-.39.42a40.7,40.7,0,0,1-2.7,3.29.08.08,0,0,0,.1.12c1.45-.87,2.78-1.92,4.17-2.9a27.91,27.91,0,0,0-3.57,4.76.13.13,0,0,0,.2.15c1.87-1.56,3.56-3.32,5.48-4.83.39-.31.8-.59,1.2-.87l-.38.42c-.7.82-1.4,1.63-2.11,2.44s-1.43,1.63-2.22,2.36c-.15.14,0,.35.21.27A10.36,10.36,0,0,0,645,693c.67-.62,1.28-1.29,1.88-2l-.27.42a23.83,23.83,0,0,1-1.81,2.65c-.13.16,0,.41.23.3a9.09,9.09,0,0,0,2.27-1.82c.68-.75,1.24-1.6,1.89-2.38.09-.11.19-.21.28-.31a22,22,0,0,1,.12,2.44,32.46,32.46,0,0,1-.55,5.1,50.2,50.2,0,0,1-2.85,9.35c-1.26,3.08-2.77,6-4.18,9.07-1.33,2.85-2.9,5.9-3.46,9-.1.57.71,1,1,.42,1.51-3.1,2.65-6.38,4.14-9.5s3-6.1,4.33-9.22a44.21,44.21,0,0,0,3.08-9.51c.49-2.7.9-6,.17-8.82a6,6,0,0,1,1-.6c.46-.2,1-.33,1.3-.8a.66.66,0,0,0-.1-.78,1.28,1.28,0,0,0-.27-.16c.18-.37.36-.74.55-1.09.54-1,1.12-1.94,1.75-2.86a69.35,69.35,0,0,1,4.36-5.48c2.34-2.76,5.19-5.77,6.09-9.37l.42-.73c.58-1,1.13-2.11,1.61-3.2a51.09,51.09,0,0,0,2.11-6.63c.06-.21-.27-.3-.34-.09a35.85,35.85,0,0,1-2.9,6.18l-.11.19c.1-.28.2-.57.29-.85a37.58,37.58,0,0,0,1.69-7.38.15.15,0,0,0-.27-.08c-1,2.21-1.72,4.52-2.65,6.75.58-2.46.89-5,1.24-7.54,0-.1-.14-.15-.17,0-.59,2.48-1.42,4.86-2.19,7.29-.3.94-.63,1.87-1,2.81.15-.7.28-1.41.39-2.12a39,39,0,0,0,.49-4.16c.07-1.45,0-2.89.1-4.33,0-.07-.1-.07-.11,0a37.84,37.84,0,0,1-.86,4.21c-.33,1.35-.6,2.7-1,4h0a51.37,51.37,0,0,0,0-8.77c0-.14-.25-.21-.28,0-.35,2.52-.68,5-1.08,7.54a67,67,0,0,0-1-7.7c0-.1-.17-.08-.17,0,.12,2.63,0,5.32-.11,8a54,54,0,0,0-1.83-6.94.11.11,0,0,0-.21.06,54.28,54.28,0,0,1,1.1,8.66,61.13,61.13,0,0,0-2.71-7s-.07,0-.06,0a40.48,40.48,0,0,1,1.68,7.83c0,.34.07.68.1,1-.22-.75-.46-1.49-.75-2.21a11.81,11.81,0,0,0-1.37-2.81,0,0,0,0,0-.08,0,16.41,16.41,0,0,0,.57,3c.22,1.08.48,2.15.7,3.23.14.64.23,1.29.34,1.94-.28-.53-.57-1.05-.89-1.56a9.56,9.56,0,0,0-1.43-2,.12.12,0,0,0-.2.11,7.24,7.24,0,0,0,.47,1.07q.27.63.51,1.26c.28.75.55,1.5.79,2.26.14.44.26.87.39,1.31a14.75,14.75,0,0,1-2.36,7.82c-.7,1.21-1.49,2.37-2.21,3.56.44-1.87.66-3.83.91-5.71.34-2.51.6-5,.81-7.54s.33-4.88.34-7.33a40.25,40.25,0,0,0-.24-4.26,9.24,9.24,0,0,1,2.5-6.13c1.59-1.46,3.76-2.15,5.56-3.28a36.27,36.27,0,0,0,5.8-2.21,25,25,0,0,0,5.17-3.41c.08-.07,0-.19-.11-.14-1.85,1-3.74,1.88-5.66,2.71h0a21.06,21.06,0,0,0,2.7-1.32,23.44,23.44,0,0,0,2.51-1.69,30.06,30.06,0,0,0,2.35-2.16,0,0,0,0,0-.07-.07,22.09,22.09,0,0,1-2.58,1.7c-.84.5-1.7,1-2.59,1.4-.51.25-1,.47-1.57.68a24.45,24.45,0,0,0,2.59-1.35,24.86,24.86,0,0,0,4.65-3.85s0-.1-.06-.07a34,34,0,0,1-5,3c-.8.41-1.63.78-2.46,1.13.31-.15.61-.31.89-.46a24.71,24.71,0,0,0,2.55-1.46,30.93,30.93,0,0,0,4.44-3.54s0-.1-.06-.07a35.37,35.37,0,0,1-4.75,3c-.82.43-1.64.86-2.49,1.24l-.53.21c.94-.52,1.87-1.07,2.78-1.66a38.93,38.93,0,0,0,4.91-3.88s0-.08-.06,0a43.45,43.45,0,0,1-5.2,3.51c-.86.5-1.74,1-2.63,1.4l-.69.31,0,0a35.58,35.58,0,0,0,6.8-4.81.11.11,0,0,0,0-.16c.36-.28.74-.54,1.09-.84a12.38,12.38,0,0,0,2-2.11c.09-.11-.08-.26-.19-.19-.52.32-1,.64-1.51,1,.76-.7,1.46-1.44,2.19-2.17.06-.06,0-.14-.09-.09-.84.7-1.77,1.31-2.66,2l-.54.38a22.22,22.22,0,0,0,4.23-4.16c.09-.13-.11-.25-.21-.16-1.64,1.4-3.26,2.85-5,4.1l-.33.22c.49-.36,1-.74,1.42-1.12a26.6,26.6,0,0,0,2.65-2.55,32.11,32.11,0,0,0,2.24-2.84s0-.08-.06-.05c-.84.84-1.77,1.62-2.68,2.4l-.12.1A18.28,18.28,0,0,0,678.26,626.9Z"/><path class="cls-5" d="M573.94,658.56a36.84,36.84,0,0,0-5.4,4.5c.63-.74,1.25-1.49,1.9-2.21,0-.05,0-.13-.08-.08a41.93,41.93,0,0,0-5.61,5.85c-.42.54-.84,1.1-1.25,1.65a.63.63,0,0,0-.18-.22c1-1.41,2-2.8,3.09-4.13a82,82,0,0,1,7.47-8s0-.12-.07-.09a46.35,46.35,0,0,0-8.26,7.44c-.81.93-1.59,1.9-2.34,2.89.59-1,1.2-2.08,1.88-3.09a57.62,57.62,0,0,1,3.53-4.7A44.47,44.47,0,0,1,572.5,654v0a51.32,51.32,0,0,0-4.52,4l-.3.35c.74-1,1.48-2.06,2.19-3.12.06-.09-.07-.16-.14-.1a27.36,27.36,0,0,0-4.32,4.85c-.66.9-1.32,1.86-1.92,2.85.69-1.56,1.45-3.1,2.23-4.6,0-.08-.08-.2-.15-.11a32.12,32.12,0,0,0-4.2,6.86,34.71,34.71,0,0,0-1.44,3.71,15.62,15.62,0,0,0-.79,3.29c-.18-.46-.36-.93-.5-1.41a22.75,22.75,0,0,1-.72-3c-.08-.53-.13-1.07-.16-1.61s.14-.85.24-1.27a22.61,22.61,0,0,1,1.52-4.22c.35-.75.71-1.53,1.11-2.29a43.65,43.65,0,0,1,2.79-3.44c.48-.55,1-1.06,1.47-1.6a12.35,12.35,0,0,1,1.72-1.82c.06,0,0-.13-.06-.08a17,17,0,0,1-1.87,1.52c-.58.49-1.13,1-1.67,1.57a33.36,33.36,0,0,0-3,3.4c-.49.65-1,1.34-1.45,2.06a39.84,39.84,0,0,1,2-3.57,42.63,42.63,0,0,1,5.3-6.87,0,0,0,0,0,0,0,29.57,29.57,0,0,0-5.87,6.21c.12-.3.23-.61.36-.9,1.16-2.67,2.52-5.29,3.88-7.86,0,0,0-.08-.06,0a32.9,32.9,0,0,0-4.71,7.54c-.3.65-.6,1.32-.89,2,.11-.44.23-.87.36-1.31a56,56,0,0,1,2.64-7h0a33.64,33.64,0,0,0-4,8.15c.07-.86.14-1.72.23-2.57.17-1.71.41-3.4.67-5.1s.37-3.4.71-5.07c0,0,0,0,0,0-.49,1.69-1.14,3.32-1.52,5s-.65,3.2-.91,4.8c-.14.89-.27,1.79-.38,2.7.05-2.2.11-4.41.26-6.59,0-.07-.1-.09-.12,0a57.74,57.74,0,0,0-.91,6.23c0-1.23-.07-2.46-.06-3.69,0-3.58.42-7.15.63-10.72a0,0,0,1,0,0,0,41.34,41.34,0,0,0-1.68,10.72,51.76,51.76,0,0,0,0,5.43c-.22-1-.43-2.11-.6-3.17-.26-1.61-.46-3.23-.59-4.86a19.78,19.78,0,0,0-.49-4.48.05.05,0,0,0-.1,0,13.25,13.25,0,0,0-.18,4.66c.09,1.61.23,3.21.44,4.8s.48,3.31.82,4.95c-.54-1.39-1.1-2.77-1.63-4.15-1-2.74-2-5.55-3.34-8.17,0-.06-.11,0-.1,0a55,55,0,0,0,2.6,8.69c.33.91.66,1.84,1,2.75l-.42-.75c-.76-1.37-1.48-2.77-2.2-4.17-1.43-2.78-2.6-5.7-4-8.47a0,0,0,0,0-.07,0,51.71,51.71,0,0,0,3.42,8.85c.65,1.43,1.37,2.82,2.12,4.21a34.53,34.53,0,0,0,1.92,3.27.38.38,0,0,0,0,.1c-.58-1-1.19-1.9-1.78-2.84-.14-.23-.29-.45-.43-.67s-.17-.37-.27-.56c-.71-1.4-1.59-2.7-2.35-4.07a0,0,0,0,0-.05,0c.27.56.51,1.14.73,1.73-.68-1-1.38-1.93-2.12-2.86,0,0,0,0,0,0,1.14,2.35,2.36,4.63,3.63,6.91a1.71,1.71,0,0,1,.13.23c.32.85.63,1.72.92,2.59.68,2,1.27,4,1.88,6.06-.17-.27-.32-.54-.48-.8a34.34,34.34,0,0,0-3.94-5.52s-.1,0-.08,0a48.8,48.8,0,0,0,3.1,6h0l-1.66-2.19c-1.7-2.23-3.41-4.5-4.9-6.89,0,0-.07,0,0,0,1.33,2.5,2.64,5,4.17,7.35-.49-.52-1-1-1.45-1.58-.83-.94-1.63-1.91-2.43-2.87s-1.73-2-2.53-3a.05.05,0,0,0-.08.06c.67,1.11,1.29,2.22,2,3.29s1.52,2.09,2.32,3.1,1.4,1.76,2.14,2.61c-.72-.71-1.44-1.42-2.15-2.15-2.45-2.47-4.94-5-7.2-7.63,0,0-.1,0-.07.06a71,71,0,0,0,6.21,8.44c.27.31.56.61.85.92l-.79-.65c-2.17-1.86-4.35-3.78-6.33-5.85,0-.05-.16,0-.11.09a55.6,55.6,0,0,0,4.88,5.92,17,17,0,0,0-4.91-3.28c-.09,0-.14.1-.06.15,2.22,1.3,3.63,3.55,5.45,5.31.16.15.34.28.5.43-.82-.28-1.65-.55-2.5-.75-1-.25-2.12-.33-3.19-.48a0,0,0,0,0,0,.09c1,.37,1.92.84,2.88,1.24.62.27,1.25.52,1.88.78-1-.24-2.09-.42-3.17-.56-.06,0-.07.09,0,.11,2.15.72,4.27,1.62,6.34,2.54l1,.47a12.32,12.32,0,0,0-1.55-.53,16.9,16.9,0,0,0-5.26-.34c-.07,0-.07.1,0,.11a25.43,25.43,0,0,1,4.81.87,16.71,16.71,0,0,1,4.12,2c.54.54,1.09,1.08,1.61,1.65a21.07,21.07,0,0,1,2,2.69c.17.3.34.59.5.9.47.89.9,1.81,1.45,2.66.22.63.44,1.26.67,1.88a25.39,25.39,0,0,1,.4,2.87c0,.73.08,1.47.11,2.21v1.79a.89.89,0,0,0,.09.38s0,.08,0,.12a30.6,30.6,0,0,0-1.88-3.09A21.92,21.92,0,0,0,549.6,683c-.07,0-.15.06-.09.11a35.18,35.18,0,0,1,2.56,2.92,16.59,16.59,0,0,0-5.07-3.75.09.09,0,0,0-.09.15,22.27,22.27,0,0,1,5.24,5.1,17.53,17.53,0,0,0-7.11-5.22.14.14,0,0,0-.14.24,35.31,35.31,0,0,1,3.79,3.55c.35.33.67.69,1,1-.33-.23-.66-.46-1-.67a19.68,19.68,0,0,0-5-2,13.79,13.79,0,0,1-5.19-2.06c-.08-.06-.17.07-.1.13a13.78,13.78,0,0,0,4.11,2.81c1.58.78,3.3,1.23,4.84,2.11a12.09,12.09,0,0,1,3.13,2.66c-.21-.18-.41-.37-.62-.54a17.27,17.27,0,0,0-4.4-2.64c-1.81-.74-4-.81-5.52-2.11,0,0-.1,0-.06,0a13,13,0,0,0,3.26,2.27c-.26-.08-.51-.16-.79-.22-1.78-.34-3.64-.07-5.4-.58a.1.1,0,0,0-.07.19,9.79,9.79,0,0,0,2.66,1.15,18.89,18.89,0,0,1-4.51-.07s-.09.06,0,.09c1.82.81,3.83.8,5.73,1.31a19.34,19.34,0,0,1,2.59.9,20.54,20.54,0,0,0-2.45-.32,16.35,16.35,0,0,0-2.71,0c-.83.07-1.61.29-2.43.4-.05,0,0,.09,0,.09a21.43,21.43,0,0,1,5,.5,15.18,15.18,0,0,1,3.35,1,13.22,13.22,0,0,0-5.2.35s0,0,0,0a23.9,23.9,0,0,1,5.69.93,10.05,10.05,0,0,0-5,.29.07.07,0,0,0,0,.14,26.9,26.9,0,0,1,5.75,1.25,7.26,7.26,0,0,0-3.1,1.43c-1.49-.93-3-1.8-4.45-2.83-.54-.38-1-.79-1.58-1.19a.56.56,0,0,0-.15-.31,20.64,20.64,0,0,1-2.53-2.84,12.17,12.17,0,0,1-1.59-3.5,15,15,0,0,1-.46-2.9.31.31,0,0,0,.05-.1c.29-1,.43-2,.69-2.93s.57-1.87.91-2.77.79-1.82,1.22-2.71a17,17,0,0,1,1.33-2.71c.08-.12-.12-.28-.21-.16-.53.67-1.14,1.24-1.66,1.91.21-.64.41-1.28.63-1.91.38-1.13.72-2.27,1.2-3.35,0,0,0-.09-.06,0-.6,1-1.25,2-1.78,3-.2.39-.37.77-.54,1.16,0-.16.09-.33.15-.49a51.91,51.91,0,0,1,2.15-5.24c0-.07,0-.16-.11-.09a19.53,19.53,0,0,0-2.79,4.93l-.09.22c.05-.29.09-.59.14-.88a75.45,75.45,0,0,0,1.24-8.71c0-.09-.15-.14-.19-.05a29.29,29.29,0,0,0-1.63,5c.15-.78.31-1.56.45-2.34a37.36,37.36,0,0,0,.8-4.67.15.15,0,0,0-.27-.07,28.93,28.93,0,0,0-1.52,4.46c-.5,1.6-.88,3.24-1.24,4.88-.19.89-.35,1.8-.48,2.71-.22-.64-.41-1.29-.58-2a47.16,47.16,0,0,1-.86-4.72c-.23-1.64-.41-3.29-.62-4.93-.11-.77-.19-1.55-.33-2.32-.16-.94-.48-1.86-.58-2.81,0-.12-.19-.13-.18,0,0,1-.18,2-.21,2.94,0,.82,0,1.63,0,2.45-.1-.95-.18-1.91-.26-2.86-.17-2-.58-3.9-.76-5.87a.06.06,0,0,0-.11,0c0,1.42-.15,2.81-.21,4.21-.38-1.65-.85-3.28-1.29-4.91,0-.05-.12,0-.11,0,.11,1.26.16,2.51.21,3.77,0-.14-.06-.28-.1-.42-.25-1-.51-2-.83-2.92s-.83-2-1.22-3a.06.06,0,0,0-.11,0c.22,1,.3,2,.5,3s.42,2.06.62,3.09c0,.25.09.49.14.73-.39-1-.79-2-1.14-3a.12.12,0,0,0-.23.06c.13.69.24,1.38.35,2.07-.27-.71-.56-1.41-.85-2.11-.38-.89-.84-1.74-1.2-2.64,0,0-.05,0,0,0,.28,1,.45,1.93.71,2.89s.49,1.77.76,2.65A49.61,49.61,0,0,0,523,660l-.58-1.35c-1.16-2.63-2.48-5.17-3.76-7.74,0-.09-.2,0-.17.08.57,2,1.12,4,1.73,5.94-.47-1-.94-2.08-1.38-3.13-.91-2.19-1.79-4.42-2.88-6.52,0-.07-.13,0-.12,0a29.9,29.9,0,0,0,2.08,7c.59,1.43,1.21,2.85,1.91,4.23-.29-.48-.58-1-.88-1.43-1.58-2.52-3.23-5-4.77-7.52a.07.07,0,0,0-.12.05c.65,1.63,1.31,3.25,2,4.87-1.35-2-2.68-4.09-4-6.16,0-.06-.14,0-.11,0a41.59,41.59,0,0,0,8.11,14l.63,1c-.28-.3-.57-.59-.84-.89-1-1.08-1.89-2.2-2.83-3.31a83.34,83.34,0,0,1-5.36-6.91.07.07,0,0,0-.11.07,62.33,62.33,0,0,0,4.53,7.57c.83,1.16,1.75,2.26,2.68,3.34l.74.87.25.54c-.51-.51-1-1-1.57-1.51-1.88-1.74-4-3.24-5.91-4.89a0,0,0,0,0-.07.07c1.81,1.75,3.4,3.71,5.08,5.58,1.1,1.22,2.2,2.45,3.34,3.64q-1-.82-1.95-1.62a89.48,89.48,0,0,1-7.48-6.09,0,0,0,0,0,0,0,70.44,70.44,0,0,0,6.67,6.6c.83.73,1.65,1.49,2.46,2.27l-.21-.17a40.77,40.77,0,0,0-3.65-2.59c-1.33-.86-2.76-1.53-4.09-2.39,0,0-.06,0,0,0,1.22.92,2.31,2,3.47,3s2.26,2,3.36,3c.19.17.36.35.54.52-.51-.39-1-.78-1.55-1.15s-1.15-.81-1.74-1.2a9.64,9.64,0,0,1-2-1.37c0-.05-.13,0-.06.08a8,8,0,0,1,1.72,1.57l1.5,1.51q1.49,1.53,3,3c1,1,1.95,2,2.89,3l.18.2c-.9-.89-1.82-1.74-2.77-2.57s-2.07-1.68-3.14-2.48c-.55-.41-1.12-.81-1.7-1.19a9.66,9.66,0,0,1-2-1.36c0-.06-.12,0-.06.08a7.35,7.35,0,0,1,1.7,1.55l1.39,1.41c1,1,2,2,2.94,3,.7.71,1.39,1.44,2.08,2.17-.69-.51-1.38-1-2.05-1.55a65.44,65.44,0,0,1-6.13-5.12s0,0,0,0a59.41,59.41,0,0,0,5.54,6c.39.33.8.64,1.2,1l-.78-.45a28.83,28.83,0,0,1-3.79-2.06s0,0,0,0c1.13.85,2.07,2,3.18,2.85s2.14,1.68,3.23,2.5a27.43,27.43,0,0,1,3,2.58c.33.33.63.68.94,1s.47.76.71,1.13c.64,1,1.32,1.91,2,2.86.29.42.57.84.87,1.25a36,36,0,0,0-5.78-1.12,38.65,38.65,0,0,1-7.86-3.35,26.66,26.66,0,0,1-5.08-3.85l-.23-.28a.06.06,0,0,0,0,0,7.61,7.61,0,0,0-.61-1.29c-.26-.42-.56-.82-.82-1.24-.53-.83-1-1.68-1.5-2.56a17.82,17.82,0,0,1-2-5.81c0-.06-.11-.07-.11,0a27.61,27.61,0,0,0,.56,4.65c-.16-.29-.33-.57-.48-.87a29.7,29.7,0,0,1-2.3-5.19s-.1,0-.09,0a49.32,49.32,0,0,0,1.38,5.21c-.26-.5-.51-1-.75-1.51-.75-1.69-1.36-3.42-2-5.14,0-.08-.16-.08-.16,0a16.35,16.35,0,0,0,1.28,5.5,25.18,25.18,0,0,0,1.46,3l-.3-.21a20.85,20.85,0,0,1-2.31-2.09,20.61,20.61,0,0,1-3.68-5c0-.07-.14,0-.12.06a16,16,0,0,0,1.73,4.16,28.1,28.1,0,0,1-1.85-2.38c-.44-.64-.86-1.28-1.24-1.95-.18-.32-.34-.66-.52-1a10.08,10.08,0,0,0-.54-1s-.07,0-.07,0a4.62,4.62,0,0,0,.22,1,8.63,8.63,0,0,0,.4,1.18,17.65,17.65,0,0,0,1,2.17,14.32,14.32,0,0,0,2.4,3.25l-.68-.48a26.25,26.25,0,0,1-2.2-1.74,16.15,16.15,0,0,1-2.06-2c-.07-.08-.21,0-.15.12.41.54.78,1.11,1.17,1.66-.38-.29-.74-.6-1.1-.92a27.34,27.34,0,0,1-2.2-2.24.06.06,0,0,0-.1.07,15.45,15.45,0,0,0,1.79,2.68l0,0a31.42,31.42,0,0,1-3.31-2.78c-.07-.07-.19,0-.14.1a20.41,20.41,0,0,0,3.75,4.12c-1.61-.93-3.23-1.83-4.77-2.89,0,0-.06,0,0,.05a30.21,30.21,0,0,0,4.67,4.23,30.53,30.53,0,0,0,2.66,1.68c.34.19.69.38,1.05.56l.09.14c-.78-.3-1.56-.63-2.34-.94s-1.63-.71-2.47-1a19.71,19.71,0,0,1-2.69-1.1c-.05,0-.09,0,0,.07.8.47,1.52,1.07,2.3,1.59a22.63,22.63,0,0,0,2.5,1.41c.82.41,1.66.77,2.51,1.12.37.16.74.3,1.11.44a.94.94,0,0,0,0,.16l-1.56-.65c-.81-.33-1.62-.69-2.45-1s-1.74-.63-2.59-1c-.14-.06-.26.14-.12.21,1.15.58,2.27,1.24,3.39,1.88l-.34-.15a27,27,0,0,0-4.72-1.57.09.09,0,0,0-.07.17,36.85,36.85,0,0,0,4.42,2.38c.93.44,1.85.89,2.79,1.32-.54-.16-1.08-.32-1.62-.46a27.09,27.09,0,0,0-3.1-.52,0,0,0,0,0,0,.09q2.75,1,5.48,2.1l1.12.45.4.45a29.21,29.21,0,0,0-3.83-1.16c-.09,0-.16.12-.07.16a36.76,36.76,0,0,1,4.73,2.49c.42.26.84.53,1.25.81l-.78-.24a24,24,0,0,1-2.85-1.1l-.31-.14a22.21,22.21,0,0,0-2.55-1.24,29.26,29.26,0,0,1-2.7-1.47c-1.73-1.06-3.28-2.35-4.92-3.54-.13-.09-.28.09-.21.22a14.13,14.13,0,0,0,4.45,4.49c.19.14.4.25.6.38-.64-.3-1.27-.61-1.89-1s-1.41-.89-2.09-1.38a16.54,16.54,0,0,1-2.13-1.58,0,0,0,0,0-.06.06,23.71,23.71,0,0,0,1.69,2.06,15.05,15.05,0,0,0,1.21,1l-2.1-.66c-.89-.28-1.8-.54-2.71-.75a11.41,11.41,0,0,0-2.71-.47.06.06,0,0,0,0,.11,9.66,9.66,0,0,0,2.43,1.36,26.12,26.12,0,0,0,2.57,1c.89.3,1.78.61,2.68.9a8.38,8.38,0,0,0,2.14.58.67.67,0,0,0,.06.12l.14.11-1.28-.31c-.91-.22-1.83-.43-2.75-.62s-2-.36-3-.62a.07.07,0,0,0,0,.14c1,.35,1.88.79,2.83,1.17s1.76.66,2.66,1l1.87.58c-.67,0-1.33,0-2-.08-1.67-.11-3.33-.26-5-.41-.79-.08-1.59-.13-2.38-.21a7.41,7.41,0,0,1-2.89-.52h0c.89,1,2.76,1,4,1.26a52,52,0,0,0,5.27.69l.12,0c-2.13,0-4.26,0-6.39,0-.16,0-.15.22,0,.24,2,.25,4,.45,5.95.58A53.91,53.91,0,0,0,479.29,686s0,0,0,0a37.8,37.8,0,0,0,6.13.23c-1.49.15-3,.33-4.43.6-.13,0-.09.21,0,.21a76.55,76.55,0,0,0,9.09.07,36.54,36.54,0,0,0-9,4,0,0,0,0,0,0,0,84.53,84.53,0,0,1,10-3.34c.67-.16,1.33-.3,2-.44,1,0,1.91-.09,2.87-.15a74.88,74.88,0,0,0-11.32,3.15s0,0,0,0A81.94,81.94,0,0,1,496.76,688c-1.3.55-2.61,1.09-3.94,1.57s-2.72.94-4.11,1.31c-.67.17-1.34.33-2,.47a3.4,3.4,0,0,0-1.7.56s0,0,0,.05a2.48,2.48,0,0,0,1.57,0c.68-.1,1.36-.25,2-.4,1.26-.27,2.49-.62,3.72-1a62.41,62.41,0,0,0-7.54,4.06s0,.06,0,0a82.13,82.13,0,0,1,10.88-4.27,32.46,32.46,0,0,0-10.26,7.72c0,.05,0,.13.07.09a72.28,72.28,0,0,1,10.73-6.64c.58-.27,1.17-.51,1.76-.75a53.07,53.07,0,0,0-7.15,4.16,35.17,35.17,0,0,0-3.24,2.48c-1.09,1-2,2.09-3.06,3.09,0,0,0,0,0,0a61.21,61.21,0,0,1,6.87-4.58l.88-.53a37.76,37.76,0,0,0-5.49,4.56.09.09,0,0,0,.11.14c2.69-1.67,5.36-3.36,8.12-4.91a42.44,42.44,0,0,0-6.29,5.86s0,0,0,0a75.74,75.74,0,0,1,6.63-5,16.45,16.45,0,0,0-3.58,6.49c0,.06.07.1.1,0a27.15,27.15,0,0,1,5.33-6.73c.64-.6,1.31-1.16,2-1.71a31.44,31.44,0,0,0-5.8,7.85s0,.07.05,0a62.22,62.22,0,0,1,6.64-7.13c.44-.39.89-.77,1.34-1.15a22.32,22.32,0,0,0-4.91,6.83c0,.06.05.11.1,0a41,41,0,0,1,6.44-6.79,31.52,31.52,0,0,1,6-3.8,30.13,30.13,0,0,1,8.21-1.62,38.38,38.38,0,0,1,7.87.41c.7.11,1.39.25,2.08.4a48.53,48.53,0,0,0-6.27,2.26c-3.49,1.34-7.65,2.48-11.1.3,0,0-.06,0,0,0a6.61,6.61,0,0,0,2.62,1.9,13.19,13.19,0,0,1-5.21-1.09c-.11,0-.18.08-.09.15a9,9,0,0,0,5.12,1.64,29.71,29.71,0,0,1-6.53-.06,0,0,0,0,0,0,.06,11.74,11.74,0,0,0,4.48,1c-3,.64-5.95,2.19-9.1,2.11-.14,0-.15.18,0,.23a8.15,8.15,0,0,0,5.36-.17,42.6,42.6,0,0,1-5.35,2.71.11.11,0,0,0,0,.22,9.68,9.68,0,0,0,4.82-1.55c-.68.48-1.37.95-2.08,1.41l-1.92,1.25a12.47,12.47,0,0,1-2.26,1.39c-.13.05-.08.27.07.23.72-.23,1.47-.29,2.2-.54a14,14,0,0,0,1.94-.86c1.21-.64,2.34-1.41,3.48-2.16l-1.53,1.56c-1.27,1.27-2.56,2.5-3.91,3.68s-2.91,2.11-4.33,3.23c0,0,0,.05,0,.05,2.47-.26,4.68-1.93,6.59-3.68-1,1.09-2,2.17-3.06,3.16-1.52,1.41-3.33,2.45-4.87,3.82-.08.06,0,.17.09.16a12.41,12.41,0,0,0,5-3,51,51,0,0,0,4.48-4.46c1.26-1.38,2.5-2.78,3.8-4.12-.84,1.12-1.69,2.23-2.57,3.31a54,54,0,0,1-7.23,7.5c-.07.07,0,.18.11.14a22.08,22.08,0,0,0,4.84-3.5c-.83,1-1.68,1.9-2.53,2.84a42,42,0,0,0-3.39,3.92s0,.05,0,0a23,23,0,0,0,4-3.28c1.1-1,2.15-2.15,3.18-3.27-.28.62-.57,1.23-.83,1.86a39.12,39.12,0,0,0-1.77,6.35s0,0,.06,0c.72-2,1.74-3.89,2.63-5.78.46-1,.94-1.91,1.44-2.85-.38,1-.74,2-1.05,3.09a32.64,32.64,0,0,0-.85,3.23c-.21,1.07-.22,2.09-.35,3.17,0,0,.09.07.1,0,.21-1,.61-2,.89-3s.56-2,.9-3a37.48,37.48,0,0,1,2.64-6,45.64,45.64,0,0,1,2.46-4,25.2,25.2,0,0,0-1,2.69,22.75,22.75,0,0,0-.64,11.23c0,.05.09,0,.09,0a30.94,30.94,0,0,1,1.84-10.69c.31-.85.65-1.69,1-2.51l-.16.42a21,21,0,0,0-1.18,5.81,21.78,21.78,0,0,0,.07,3.13,17.21,17.21,0,0,0,.66,2.75l.14-.08c-.08-.87,0-1.79,0-2.67a23.93,23.93,0,0,1,.15-2.81,24.82,24.82,0,0,1,1.36-5.64,22.85,22.85,0,0,1,2.6-5,10.73,10.73,0,0,1,.84-1,25.4,25.4,0,0,0-2.42,5,21.51,21.51,0,0,0-.89,11.23l.11-.06a27.36,27.36,0,0,1,1.68-10.58,25.28,25.28,0,0,1,2.63-5.12c.42-.62.88-1.2,1.35-1.77a23.26,23.26,0,0,0-2.68,4.86,19,19,0,0,0-1,11.56l.08,0a27.58,27.58,0,0,1,1.86-10.93,22.57,22.57,0,0,1,2.72-4.93,17.83,17.83,0,0,1,1.89-2.16,21.4,21.4,0,0,0-3.06,4.86,21.88,21.88,0,0,0-1.73,5.83,15.57,15.57,0,0,0-.17,3.05,30.16,30.16,0,0,0,.49,3s.06,0,.06,0a25.06,25.06,0,0,1,2.51-11.56,21.76,21.76,0,0,1,3.14-4.58,18.7,18.7,0,0,0-2,3.09,24.29,24.29,0,0,0-2.22,6.29,20.69,20.69,0,0,0-.37,3.34,17.16,17.16,0,0,0,.24,3.06l.13-.06c0-.82.14-1.66.21-2.46a28.54,28.54,0,0,1,.48-3.32,18.46,18.46,0,0,1,2.39-6.16,17.46,17.46,0,0,1,2.14-2.72,11,11,0,0,1,5.24-1.46,9.51,9.51,0,0,1,3.82.79c1.18.51,2.18,1.63,3.44,1.92.43.31.86.62,1.31.91a23.86,23.86,0,0,0-2.64-.57,18.65,18.65,0,0,0-9.45,1c-.08,0-.07.17,0,.16a34.39,34.39,0,0,1,6.66-.2,25.37,25.37,0,0,0-7.34,1.76s0,.09,0,.08a28.27,28.27,0,0,1,9.26-.62l.66.08c-.51,0-1,0-1.5,0a37.34,37.34,0,0,0-6.91,1,22.83,22.83,0,0,0-6.72,2.86c-.07,0,0,.18.06.15a46.93,46.93,0,0,1,10.77-2.47c-4.12.57-8.13,1.81-11.33,4.55,0,0,0,.1.06.08a27,27,0,0,1,7.13-2.66,18.81,18.81,0,0,0-7.37,4.51c-.1.11,0,.3.16.21a24.48,24.48,0,0,1,9.34-4.09,20,20,0,0,0-9.49,5.64s0,.1.06.07a35.27,35.27,0,0,1,7.58-3.71,22.72,22.72,0,0,0-5.88,3.7c2-.87,4.14-1.75,6.48-2.6.45-.17.9-.34,1.36-.49a107.92,107.92,0,0,1,19.23-4.81c1.21-.19,2.44-.36,3.69-.5,3-.35,6-.57,9.23-.67a.44.44,0,0,0,0-.28c-.56-2.08-1.3-4.09-1.74-6.21a31.41,31.41,0,0,1-.66-6.9,26.18,26.18,0,0,1,2.52-10.66,19.26,19.26,0,0,1,2-2,26.19,26.19,0,0,1,5.86-3.72c.07,0,0-.13-.05-.12a15.51,15.51,0,0,0-2.36.77c.28-.19.54-.39.83-.58.67-.43,1.38-.79,2.07-1.2a15,15,0,0,1,2.27-1.21.05.05,0,1,0,0-.1c-.82.22-1.64.37-2.45.64a14.47,14.47,0,0,0-2.33,1.08l-.12.08c1.55-1.32,3.17-2.56,4.77-3.82.07,0,0-.15-.08-.11a40.1,40.1,0,0,0-6.36,4.22,34.66,34.66,0,0,0-4.79,4.43s0,0,0,0c1.3-1.51,2.6-3,4-4.41a60.39,60.39,0,0,1,5.3-4.56c.07,0,0-.17-.07-.12a25.4,25.4,0,0,0-3,1.85c-.93.69-1.85,1.41-2.71,2.19a29.62,29.62,0,0,0-4.17,4.57h0a.61.61,0,0,0,.07-.1c.56-.73,1.1-1.47,1.66-2.2s1-1.32,1.56-2l.33-.47a90.32,90.32,0,0,1,8-8.2c.06,0,0-.16-.08-.11-1.4,1.07-2.76,2.17-4.07,3.34,1.69-1.77,3.4-3.51,5.1-5.27C574.05,658.6,574,658.52,573.94,658.56Z"/><path class="cls-5" d="M706.44,654a34.43,34.43,0,0,0-8.05,1.54c2.19-1,4.46-2,6.71-2.84.15-.06.15-.31,0-.3a24.32,24.32,0,0,0-7.8,1.87c1.27-.95,2.56-1.88,3.91-2.73a38.27,38.27,0,0,1,5.3-3.14c.13,0,.08-.26-.05-.21-1.87.72-3.84,1.18-5.65,2.06a39.68,39.68,0,0,0-4.61,2.63l.12-.12c1.39-1.31,2.85-2.56,4.27-3.84a43.78,43.78,0,0,1,4.69-3.91c.07,0,0-.17-.07-.13-1.77,1-3.6,1.82-5.32,2.89a38.51,38.51,0,0,0-4.75,3.6c-.44.39-.88.78-1.32,1.19.06-.08.11-.16.17-.23,1.11-1.36,2.28-2.69,3.5-4s2.48-2.75,3.85-4c.1-.09,0-.25-.14-.18a37.36,37.36,0,0,0-4.53,3.15,42.58,42.58,0,0,0-4,4l-.85,1c.11-.17.2-.34.32-.5,2-2.83,4-5.6,6.14-8.32a.05.05,0,0,0-.08-.07A60.37,60.37,0,0,0,691,651l-.69.94c.22-.41.43-.82.66-1.22,1.6-2.84,3.32-5.64,5.12-8.36.12-.18-.14-.37-.29-.22a43.76,43.76,0,0,0-6.08,7.62c1-2.61,2.18-5.2,3.38-7.74a.12.12,0,0,0-.21-.13,44.07,44.07,0,0,0-4.73,8.14c-.35.78-.7,1.58-1,2.4.24-1,.5-2,.8-3,.87-2.81,2.07-5.5,3-8.29.07-.19-.19-.27-.3-.13a32.2,32.2,0,0,0-3.94,8.08c-.3.81-.58,1.63-.85,2.46.14-.71.29-1.42.47-2.12a51.3,51.3,0,0,1,2.7-8.42c.07-.15-.14-.29-.23-.13a52.53,52.53,0,0,0-3.76,8c-.05.14-.1.28-.14.42a52.3,52.3,0,0,1,2.06-7.67c.08-.22-.26-.31-.34-.09-.92,2.34-1.87,4.7-2.69,7.09a41.55,41.55,0,0,0-.12-7.4c0-.16-.28-.23-.31,0-.32,2.08-.62,4.16-.93,6.24-.09-2.07-.25-4.12-.35-6.2a.19.19,0,0,0-.38,0c0,1.74-.2,3.49-.39,5.23-.15-1.7-.37-3.4-.68-5.09,0-.14-.24-.1-.25,0-.08,1.74-.16,3.47-.25,5.21a48.15,48.15,0,0,0-1.44-6.63c0-.06-.12-.05-.12,0,.22,3.18.34,6.41.37,9.59,0,.9,0,1.81,0,2.71a40.74,40.74,0,0,0-1.75-11.12c0-.16-.32-.14-.31,0,.14,2.41.26,4.82.32,7.23a43.53,43.53,0,0,0-1.46-5.55c-.06-.17-.36-.16-.34,0,.33,2.46.54,4.9.7,7.35-.07-.29-.12-.6-.18-.89a16.29,16.29,0,0,0-1.4-4.21.09.09,0,0,0-.17.05,35,35,0,0,0,.47,4.31c0,.27.06.55.09.83a.24.24,0,0,0,0-.08,14.49,14.49,0,0,0-1.72-4.09.12.12,0,0,0-.23.09,41.8,41.8,0,0,0,1.21,4.2,41.92,41.92,0,0,1,.83,4.13c-.1,1.37-.21,2.73-.35,4.1a32.92,32.92,0,0,1-.58,3.69c-.07.23-.13.47-.2.7a34.5,34.5,0,0,1-1.88,4.73c-.63,1.28-1.42,2.51-1.93,3.85l-.15.2h0c-.93.93-1.7,2-2.57,3s-1.81,1.93-2.71,2.9c-1.66,1.78-3.45,3.39-5.21,5.06-1,1-2.09,2-3.05,3.1a62.62,62.62,0,0,1,3.62-6.82c2.86-4.85,5.8-9.49,6.81-15.11,0-.14-.18-.26-.26-.11a139.72,139.72,0,0,1-7.33,12.32,1.15,1.15,0,0,0-1.95,0,26.53,26.53,0,0,0-1.64,2.77,1.68,1.68,0,0,0-.27.45c0,.11-.09.23-.14.34-.33.67-.64,1.34-.94,2a1.08,1.08,0,0,0-1,.77c-.19.58-.37,1.16-.56,1.75a.89.89,0,0,0-1,.68c0,.1-.05.2-.07.29a.5.5,0,0,0-.9.18,43.75,43.75,0,0,0-.77,9,.86.86,0,0,0,.16.48,1,1,0,0,0,1,.9c-.23.38-.46.78-.67,1.18l-.06.08a18.38,18.38,0,0,0-2.89,8.77c0,.1.16.16.21.06.68-1.55,1.33-3.09,2-4.61.43-.83.89-1.67,1.38-2.47a29.93,29.93,0,0,1,2.47-3.47c.24-.3.5-.6.75-.89s.68-.74,1-1.09a22,22,0,0,1,5.52-4,11.81,11.81,0,0,1,3.62-1.29l.06,0a3.89,3.89,0,0,1,1.51,1,4.36,4.36,0,0,1,.64,1,5,5,0,0,0,.73,3.21.16.16,0,0,0,.3-.08c.06-.74.08-1.48.12-2.22l.12,0a7.39,7.39,0,0,0,.48,1.71,4.27,4.27,0,0,0,.59,1c.22.28.51.47.75.73s.4,0,.33-.19a16.42,16.42,0,0,1-.39-1.85c-.07-.3-.13-.61-.19-.92a6.83,6.83,0,0,0,.65,1.26,9.5,9.5,0,0,0,1.49,1.55.12.12,0,0,0,.2-.11c-.19-.6-.29-1.22-.52-1.8s-.47-1.2-.64-1.81a6,6,0,0,1-.12-2.53h.1a7.77,7.77,0,0,0,.36,3.14,6.85,6.85,0,0,0,1,2,5.88,5.88,0,0,0,1.64,1.46.13.13,0,0,0,.18-.18,14.45,14.45,0,0,1-.88-1.76,1.34,1.34,0,0,0-.07-.18,15.6,15.6,0,0,0,1.58,1.67,9.89,9.89,0,0,0,2.25,1.6.1.1,0,0,0,.12-.16c-.57-.6-1.12-1.24-1.63-1.89a14.78,14.78,0,0,1-1.27-2.13,18.91,18.91,0,0,1-1-2.14c-.08-.21-.15-.43-.21-.65a12,12,0,0,0,1.7,1.57,9.88,9.88,0,0,0,2.31,1.43l.43.16a14.39,14.39,0,0,0,1.63,1.14,13.56,13.56,0,0,0,2.37,1c.11,0,.19-.12.11-.2-.56-.56-1.11-1.13-1.68-1.69.24.17.47.35.72.5.77.46,1.6.79,2.37,1.23a.06.06,0,0,0,.06-.1,9.7,9.7,0,0,1-1.85-1.88l-.2-.25.8.47c.37.21.74.43,1.13.61s.82.3,1.18.52c.09,0,.2-.08.12-.15a8.54,8.54,0,0,1-.69-.78l.29.2a17.75,17.75,0,0,0,2.32,1.32.07.07,0,0,0,.08-.1,15.14,15.14,0,0,0-1.78-1.89l-2-1.79c-.37-.33-.76-.63-1.15-.94,1.11.52,2.24,1,3.4,1.43,0,0,.07,0,0-.08q-.5-.49-1-1l.43.23a19.78,19.78,0,0,0,3.93,1.7.08.08,0,0,0,.08-.14,11.36,11.36,0,0,0-1.46-1.4h.07a15.44,15.44,0,0,0,2.25.13.1.1,0,0,0,0-.2c-.73-.3-1.45-.6-2.19-.86l-.36-.11a31.52,31.52,0,0,0,3.22,0s.06-.06,0-.08c-1-.33-2-.63-3.07-.93,1.09-.17,2.17-.38,3.26-.51a0,0,0,1,0,0-.06,16.69,16.69,0,0,1-4.29-.26c1.56-.19,3.07-.53,4.64-.79.06,0,0-.1,0-.09a33.75,33.75,0,0,1-6.59,0l-.74-.06,1-.07c1.07-.1,2.13-.27,3.19-.46.53-.1,1.06-.19,1.58-.31a10.08,10.08,0,0,1,2.11-.4c.07,0,.06-.12,0-.1a6.79,6.79,0,0,1-2,.17l-1.62.06-3.38.06-.9,0,.76-.12c2.73-.42,5.46-1.08,8.21-1.29,0,0,0-.08,0-.08-1.9.05-3.79,0-5.69,0l1.14-.19a41.92,41.92,0,0,1,4.55-.76.08.08,0,0,0,0-.16c-1.56.08-3.11-.14-4.68-.05-1.12.06-2.24.18-3.36.33l.49-.1c1.06-.26,2.11-.6,3.19-.78.07,0,0-.11,0-.11-1.11,0-2.2-.11-3.31-.06a25.29,25.29,0,0,0-2.74.33c1.09-.57,2.19-1.14,3.3-1.68,0,0,0-.07,0-.06-1.62.56-3.25,1.05-4.86,1.61a38.86,38.86,0,0,0,4.67-2.52c.05,0,0-.14,0-.12a50.87,50.87,0,0,0-5.46,2.11c-.86.36-1.73.72-2.58,1.09l-1.41.6c.53-.29,1.07-.57,1.61-.85,1-.51,2-1,3-1.55s1.94-1.14,3-1.61c0,0,0,0,0,0-1.07.36-2.16.63-3.23,1-.52.17-1,.37-1.55.58l1-.53c.46-.25.91-.51,1.36-.78a16,16,0,0,1,1.53-.93s0-.09,0-.07c-.56.21-1.16.28-1.73.45s-1,.31-1.48.5c-1,.39-2,.85-3,1.33l-.85.42c2-1.16,4-2.26,6.07-3.27.07,0,0-.15-.06-.13a29.85,29.85,0,0,0-7.91,3.42l-.19-.13c2.16-1.34,4.35-2.63,6.6-3.83,0,0,0-.08,0-.07a40.13,40.13,0,0,0-8,3.66c-.56.33-1.12.68-1.68,1a.35.35,0,0,0-.14.06.57.57,0,0,1-.13.08l-.16.12h0l-.05,0-.15.08-.1.05a.67.67,0,0,1-.19,0h-.32l-.29-.08-.08,0-.07,0-.13-.12-.11-.1h0l0,0,0-.06,0-.05-.08-.12a1.17,1.17,0,0,0-.05-.11h0l-.06-.13c.1-.31.19-.61.29-.91a18.43,18.43,0,0,1,.81-1.94,11.94,11.94,0,0,1,5.95-4.1,26.76,26.76,0,0,1,4.83-.8c2.33-.19,4.67-.3,7-.62.6-.08,1.2-.17,1.81-.29a.58.58,0,0,0,.44.1c1-.14,2-.34,2.95-.45a.65.65,0,0,0,.56.13c.34-.09.7-.16,1-.22a19.86,19.86,0,0,1,4,.46.2.2,0,0,0,.16-.35.24.24,0,0,0,.13-.44,10.28,10.28,0,0,0-1.08-.58h.22c.22,0,.43,0,.65.06a.86.86,0,0,0,.55,0,.18.18,0,0,0,.06-.24c-.11-.2-.33-.23-.53-.3l-.63-.2a7.87,7.87,0,0,0-1.37-.25,8.25,8.25,0,0,0-1.22,0,17.15,17.15,0,0,1,3.79,0c.3,0,.34-.42.07-.5a13.29,13.29,0,0,0-2.34-.47c.39-.13.78-.26,1.17-.37a16.16,16.16,0,0,1,2.18-.43,7.67,7.67,0,0,1,2.39-.06.16.16,0,0,0,.12-.29c-.28-.17-.58-.33-.89-.48a8.81,8.81,0,0,1,2.81.41.29.29,0,0,0,.22-.52,9.28,9.28,0,0,0-3.33-1.24,17.71,17.71,0,0,1,4.88.1.23.23,0,0,0,.12-.45,20,20,0,0,0-4.14-.83,33.09,33.09,0,0,1,5-.37.17.17,0,0,0,0-.34,13.45,13.45,0,0,0-4.94-.7,27,27,0,0,1,3.48-.22.27.27,0,0,0,.07-.52A12.93,12.93,0,0,0,698,663c.62-.2,1.23-.4,1.85-.54.35-.08.2-.58-.14-.53a28.44,28.44,0,0,0-4.84,1,34.24,34.24,0,0,0-4.57,1.87,30.35,30.35,0,0,0-5.74,3.69l-.31.22c.77-.95,1.6-1.84,2.45-2.72,1.17-1.21,2.4-2.35,3.61-3.51.37-.18.73-.36,1.1-.52,1.43-.65,2.86-1.3,4.33-1.82a36.88,36.88,0,0,1,4.26-1.2,23.32,23.32,0,0,1,4.55-.65.06.06,0,0,0,0-.11,13.86,13.86,0,0,0-2.21-.5c-.57,0-1.14,0-1.71,0,.35-.09.69-.19,1-.27,1.54-.34,3.07-.77,4.61-1,.1,0,.1-.18,0-.19a17.26,17.26,0,0,0-4.65-.18l-.64.1a37.75,37.75,0,0,1,5.48-1.64C706.7,654.33,706.65,654,706.44,654Z"/></g><g id="fork_pasta" data-name="fork + pasta"><path class="cls-4" d="M670.62,494.34c.18-.15,1.31-1.72,2.66-3.62-3.47-11.21-7.14-22.39-10-33.72C663.26,457,670,491,670.62,494.34Z"/><path class="cls-2" d="M669.55,451.42s-6.8,2.34-7,2.47c.07.47.67,3.11.67,3.11,2.88,11.33,6.55,22.51,10,33.72,2.16-3.06,4.9-7,5.15-7.19C677.43,480.17,670.39,454.47,669.55,451.42Z"/><path class="cls-4" d="M685.33,584.65c-.78-12.88-1.3-23.65-1.75-33-.52-11-1-19.73-1.59-27.37-2.26-25.74-6.28-25.83-10.26-38.57-1.3.95-1.64-3.54-1.86-3.46.3,1.62,6.74,40.32,6.71,69.75,0,12.76,1.35,28.2,2.72,48l-1,2.55C682.63,597.32,685.43,584.39,685.33,584.65Z"/><path class="cls-6" d="M851.68,267.92v-15L837.05,268.4l.1.1C840.77,266.48,846.36,266,851.68,267.92Z"/><path class="cls-7" d="M837.05,268.4c-1.81,1.24-11.06,12.46-17,18.75s-4.89,16.43-4.89,16.43c-3.49,7-22,16.08-38.1,21.32S736.86,336.44,718,367.19s-49.29,64.66-65,81.09C640.13,461.7,634.8,466.8,636.55,470c1.92,3.46,7,0,11.88-4.89,2.19-2.19,40.07-39.69,47.19-47.89,13.26-15.26,26-30.7,32.14-38.24,2.1-2.57,6.59-2.12,8.81-.19a5.79,5.79,0,0,1,.58,7.89c-2,2.46-5.31,6.17-10.43,12-13.49,15.4-31.61,33.78-45.72,47.64,2.31,1.56,6.25,2.16,8.61,4.74,6.7-6,13.92-12.76,21.15-20,19.23-19.23,29.8-30.83,35.54-37.28,2-2.28,4.67-3.09,7.07-1.22h0a5.77,5.77,0,0,1,.53,8.65C743,412,728.81,427.25,713.44,441.64c-6.19,5.8-12.43,11.46-18.27,16.66a70.27,70.27,0,0,1,4.42,8.06c6.71-5.75,14.06-12.11,21.42-18.55,16.89-14.74,34.92-31.58,42.36-39.67a5.77,5.77,0,0,1,7.76-.66l0,0a5.76,5.76,0,0,1,.82,8.39c-20.89,23.45-49.14,45.83-68.56,60.21.89,2.73,1.09,5.55,1.8,8.65,14-9.93,34-24.54,56.35-42.53,43-34.6,56.74-68,60.93-90.76s4.54-25.86,11.88-33.55c5.35-5.6,9.11-3.16,17.31-8.75V267.92C846.36,266,840.48,266.05,837.05,268.4Z"/><path class="cls-7" d="M682,490.93l-.16.12c-3.5,2.8-1.92,7.22,1.4,7s6.91-3.1,12.88-7.05c-.88-2.89-1.11-6.32-2.1-8.8C688,486.51,683.11,490.07,682,490.93Z"/><path class="cls-7" d="M680.13,457.71a20.63,20.63,0,0,0-6.87-5.6c-.25.23-18.27,17.15-20.19,18.78-7,5.94-.7,9,3.84,5.94C659.61,475,678,459.53,680.13,457.71Z"/><path class="cls-7" d="M685.43,465c-3,2.65-18.89,16.24-19.43,16.69-5.57,4.64-.12,8.34,4.53,6.5,3.73-1.47,15.63-12.21,19-15.27C688,470,686.77,467.26,685.43,465Z"/><path class="cls-8" d="M694,482.19c-2,1.4-3.8,2.72-5.43,3.9A81.4,81.4,0,0,1,690.1,495c1.73-1.12,3.68-2.48,6-4C695.22,488.1,695,484.67,694,482.19Z"/><path class="cls-8" d="M673.26,452.11l-4.35,4.07a42.14,42.14,0,0,1,6.72,5.33c2.24-1.88,3.94-3.32,4.5-3.8A20.63,20.63,0,0,0,673.26,452.11Z"/><path class="cls-8" d="M685.43,465l-4,3.49a48.67,48.67,0,0,1,4.17,8c1.7-1.51,3.13-2.8,4-3.58C688,470,686.77,467.26,685.43,465Z"/><path class="cls-2" d="M705,481.5c-2.9-14.79-23.23-56.4-40.57-39.49-2.77,2.37-3.17,9.95-.45,16.92.21-.19,4-3.83,5.9-5.6-1.6-13,42.5,33.31,25.5,100.83,0-15.51-12.37-55.44-13.11-57.91-.35.1-3.78-12.44-4-13.21-.51.42-3.64,2.82-6,4.53,4,12.74,9.48,33.69,9.33,32.23,3.33,12.84,6.2,27.13,8.69,51.11-1.47,4.32-8.62,24.21-12,31.7-4.9,12.31-25.18,64.29-27.42,89.32-4.84,54,17.66,106.68,18.85,108.78l11.51-6.36c-.13-.23-5.14-31.56-7.18-38.11,0,0,11.69-45.08,18.5-77.92,4.88-22.29,9.55-49.94,6.42-89.27-.22-2.86-.46-5.62-.69-8.26,2.15-8.06,7.69-25.56,8.5-47.89a134.09,134.09,0,0,0,1.08-13.67A177.68,177.68,0,0,0,705,481.5Z"/><path class="cls-9" d="M677.27,641.28A40.74,40.74,0,0,1,679,652.4c0-.9,0-1.81,0-2.71,0-3.18-.15-6.41-.37-9.59,0-.07.11-.08.12,0a48.15,48.15,0,0,1,1.44,6.63c.09-1.74.17-3.47.25-5.21,0-.13.22-.17.25,0,.31,1.69.53,3.39.68,5.09.19-1.74.35-3.49.39-5.23a.19.19,0,0,1,.38,0c.1,2.08.26,4.13.35,6.2l.39-2.61c-.55-6.49-1-12-1.23-14.3-.35,1-2.17,4.71-4.47,10.57A.24.24,0,0,1,677.27,641.28Z"/><path class="cls-2" d="M676.18,650.39c-.12-1.77-.28-3.54-.47-5.32q-.27.73-.54,1.5a21.66,21.66,0,0,1,.83,2.93C676.06,649.79,676.11,650.1,676.18,650.39Z"/><path class="cls-2" d="M675,650.48c0-.28,0-.56-.09-.83-.07-.55-.15-1.11-.23-1.67-.09.24-.17.49-.25.73.2.58.38,1.16.55,1.69A.24.24,0,0,1,675,650.48Z"/><path class="cls-9" d="M677,641.71l-.87,2.27a44.34,44.34,0,0,1,1.17,4.57C677.22,646.27,677.11,644,677,641.71Z"/><path class="cls-3" d="M674.94,721.15a22.35,22.35,0,0,0-5.19,4.59,25.26,25.26,0,0,0-3,4.61A136.94,136.94,0,0,0,669,745C670.14,740.53,672.42,731.35,674.94,721.15Z"/><path class="cls-5" d="M682.5,647.53c-.09-2.07-.25-4.12-.35-6.2a.19.19,0,0,0-.38,0c0,1.74-.2,3.49-.39,5.23-.15-1.7-.37-3.4-.68-5.09,0-.14-.24-.1-.25,0-.08,1.74-.16,3.47-.25,5.21a48.15,48.15,0,0,0-1.44-6.63c0-.06-.12-.05-.12,0,.22,3.18.34,6.41.37,9.59,0,.9,0,1.81,0,2.71a40.74,40.74,0,0,0-1.75-11.12.24.24,0,0,0-.08-.09l-.21.52c.13,2.28.24,4.56.3,6.84a44.34,44.34,0,0,0-1.17-4.57c-.13.36-.26.73-.4,1.09.19,1.78.35,3.55.47,5.32-.07-.29-.12-.6-.18-.89a21.66,21.66,0,0,0-.83-2.93c-.17.47-.34.93-.5,1.41.08.56.16,1.12.23,1.67,0,.27.06.55.09.83a.24.24,0,0,0,0-.08c-.17-.53-.35-1.11-.55-1.69-.14.39-.27.78-.4,1.18.07.24.15.47.21.71a41.92,41.92,0,0,1,.83,4.13c-.1,1.37-.21,2.73-.35,4.1a32.92,32.92,0,0,1-.58,3.69c-.07.23-.13.47-.2.7a34.5,34.5,0,0,1-1.88,4.73c-.63,1.28-1.42,2.51-1.93,3.85l-.15.2h0c-.88.87-1.61,1.88-2.42,2.81-.82,4.46-1.49,9.14-1.95,14a3.58,3.58,0,0,1,.51.44,4.36,4.36,0,0,1,.64,1,5,5,0,0,0,.73,3.21.16.16,0,0,0,.3-.08c.06-.74.08-1.48.12-2.22l.12,0a7.91,7.91,0,0,0,.48,1.71,4.27,4.27,0,0,0,.59,1c.22.28.51.47.75.73s.4,0,.33-.19a16.42,16.42,0,0,1-.39-1.85c-.07-.3-.13-.61-.19-.92a6.83,6.83,0,0,0,.65,1.26,9.5,9.5,0,0,0,1.49,1.55.12.12,0,0,0,.2-.11c-.19-.6-.29-1.22-.52-1.8s-.47-1.2-.64-1.81a6,6,0,0,1-.12-2.53h.1a7.77,7.77,0,0,0,.36,3.14,6.85,6.85,0,0,0,1,2,5.88,5.88,0,0,0,1.64,1.46.13.13,0,0,0,.18-.18,14.45,14.45,0,0,1-.88-1.76,1.34,1.34,0,0,0-.07-.18,15.6,15.6,0,0,0,1.58,1.67,9.89,9.89,0,0,0,2.25,1.6.1.1,0,0,0,.12-.16c-.57-.6-1.12-1.24-1.63-1.89a14.78,14.78,0,0,1-1.27-2.13,18.91,18.91,0,0,1-1-2.14c-.08-.21-.15-.43-.21-.65a12,12,0,0,0,1.7,1.57,9.88,9.88,0,0,0,2.31,1.43l.43.16a14.39,14.39,0,0,0,1.63,1.14,13.56,13.56,0,0,0,2.37,1c.11,0,.19-.12.11-.2-.56-.56-1.11-1.13-1.68-1.69.24.17.47.35.72.5.42.25.86.47,1.29.68l.12-.47c-.29-.31-.57-.64-.83-1l-.2-.25.8.47.36.2.5-2.07-.21-.19c-.37-.33-.76-.63-1.15-.94l1.47.66c.31-1.28.61-2.49.88-3.61l-.73-.06.76-.06q.12-.51.24-1h-.16l-.9,0,.76-.12.33-.06c.2-.79.37-1.53.54-2.21l-.7.08.49-.1.23-.06q.11-.47.21-.9h-.57a25.29,25.29,0,0,0-2.74.33c1.09-.57,2.19-1.14,3.3-1.68,0,0,0-.07,0-.06-1.62.56-3.25,1.05-4.86,1.61a38.86,38.86,0,0,0,4.67-2.52c.05,0,0-.14,0-.12a50.87,50.87,0,0,0-5.46,2.11c-.86.36-1.73.72-2.58,1.09l-1.41.6c.53-.29,1.07-.57,1.61-.85,1-.51,2-1,3-1.55s1.94-1.14,3-1.61c0,0,0,0,0,0-1.07.36-2.16.63-3.23,1-.52.17-1,.37-1.55.58l1-.53c.46-.25.91-.51,1.36-.78a16,16,0,0,1,1.53-.93s0-.09,0-.07c-.56.21-1.16.28-1.73.45s-1,.31-1.48.5c-1,.39-2,.85-3,1.33l-.85.42c2-1.16,4-2.26,6.07-3.27.07,0,0-.15-.06-.13a29.85,29.85,0,0,0-7.91,3.42l-.19-.13c2.16-1.34,4.35-2.63,6.6-3.83,0,0,0-.08,0-.07a40.13,40.13,0,0,0-8,3.66c-.56.33-1.12.68-1.68,1a.35.35,0,0,0-.14.06.57.57,0,0,1-.13.08l-.16.12h0l-.05,0-.15.08-.1.05a.67.67,0,0,1-.19,0h-.32l-.29-.08-.08,0-.07,0-.13-.12-.11-.1h0l0,0,0-.06,0-.05-.08-.12a1.17,1.17,0,0,0-.05-.11h0l-.06-.13c.1-.31.19-.61.29-.91a18.43,18.43,0,0,1,.81-1.94,11.94,11.94,0,0,1,5.95-4.1,26.76,26.76,0,0,1,4.83-.8c2.12-.18,4.24-.28,6.34-.54-.1-1.48-.23-3.17-.37-5l-.25.19-.31.22c.17-.22.36-.42.54-.63-.54-6.85-1.27-15.65-1.91-23.13Z"/><path class="cls-9" d="M690.48,650.39c-1.23-13-2.23-24.81-3.05-35.46,1.68-4.69,3.44-9.77,5.19-15.14A272.68,272.68,0,0,1,690.48,650.39Z"/><path class="cls-4" d="M667.07,442.68s21.26-.94,35.07,50.11C702.14,492.79,691.19,439.54,667.07,442.68Z"/><path class="cls-4" d="M699.1,529c-4.29,29.4-11.89,48.72-21,73.65-39.89,109.51-19.49,160.52-8.8,159.36,16.91-1.82,8-.53,8.47-7.6-17.67,8.43-20.64-36.16-16-74.64C667.62,631.16,699.43,582.19,699.1,529Z"/><path class="cls-4" d="M690.48,650.39c-1.23-13-2.23-24.81-3.05-35.46l-5.77,15.69c.57,6.67,3.42,39.29,3.82,47.11Z"/><path class="cls-4" d="M680.34,755.76l6,.53L689,720.63l.11,35.77,6.6.34c.43-.74-.34-21.34-3.2-78.42L683.41,719Z"/><path class="cls-8" d="M794.34,405.62s37.37-54,13.47-69.6c-30.63-20-72.55,17.37-72.55,17.37,14.87-10.65,46.21-21,62.76-8.07C816,359.36,794.34,405.62,794.34,405.62Z"/><path class="cls-8" d="M844.06,310.09c3.93-2.58,10.6-17.72,2.87-22.35-15.8-9.47-27.44,7.77-27.6,9.26,0,0,9-10.69,20.74-4.08S844.06,310.09,844.06,310.09Z"/></g><g id="bowl"><path class="cls-10" d="M311,850.39H850.49c0-23.06-.1-43.47-.1-66.53v-45.6S782.83,751.88,572,752.12H566.3c-211.11,0-304.08-17.59-306.15-28a214.2,214.2,0,0,0,5,33.67C271.19,784.69,282.26,820.05,311,850.39Z"/><path class="cls-11" d="M323,791c-45.13-17-55.71-42.1-61.2-51.57.4,4.75,3.35,18.3,3.35,18.32,6,26.94,17.11,62.3,45.85,92.64H850.49c0-23.06-.1-35.47-.1-58.53C780.88,813.4,682,831.47,587,831.17,476.14,830.82,370.59,808.91,323,791Z"/></g></svg>