<svg id="Notes" xmlns="http://www.w3.org/2000/svg" width="30cm" height="30cm" viewBox="0 0 850.39 850.39"><defs><style>.cls-1{fill:#585faa;}.cls-2{fill:#524fa1;}.cls-3{fill:#4d3f99;}.cls-4{fill:#48348d;}.cls-5{fill:#3c2d72;}.cls-6{fill:#2c234a;}.cls-7{fill:#221c3e;}.cls-8{fill:#453995;}.cls-9{fill:#6f60aa;}.cls-10{fill:#211f3f;}.cls-11{fill:none;}.cls-12{fill:#534f9f;}.cls-13{fill:#443682;}.cls-14{fill:#484489;}.cls-15{fill:#0c1e40;}</style></defs><g id="sky"><rect class="cls-1" width="850.39" height="850.39"/></g><g id="mountain"><path class="cls-2" d="M.63,613.57h850v-60c0-19.91.25-76.7.25-96.61,0-18.44-.25,0-.25-18.44-40,27-206,48-275,25s-86-22-127-22-157.28-20.83-222-59c-17.42-10.27-31.85-14.76-45.25-15.24-16.59-.6-31.6,4.94-48.75,13.24-19.39,9.39-132,53-132,53v180Z"/></g><g id="hills"><path class="cls-3" d="M0,567s120,9,222,0,178,14,306,13,236.39-13,322.39,5v50.55L0,635Z"/><path class="cls-4" d="M0,669l302.4,2.87L315,672q267.5,0,535.39.35V607.11C775.39,618.11,603,626,446,609c-50.31-5.45-114.27-8.43-178-10-135.1-3.26-268,.09-268,.09V669Z"/><path class="cls-5" d="M0,743.08c184.7,8.39,368.91,16.37,553.61,24.77L601,770c85.67-10.33,163.73-20.2,249.39-30.54V646.69S827,649,722,651c-36.85.7-84.79-1.43-140-3.84-102-4.47-228.83-9.9-356-.16C18.14,662.91,0,638,0,638c.12,24.3-.12,22.34,0,46.64C.05,695.23,0,732.48,0,743.08Z"/><path class="cls-6" d="M0,850.39H850.39v-122S677.5,759.5,556.5,754.5s-274-36-406-39l-11.93-.26C17.4,712.68,0,715.79,0,715.79c-.14,20.28.11,77.75,0,98C-.22,840.54.19,823.68,0,850.39Z"/></g><g id="shadow"><path class="cls-7" d="M617.43,755.06S656,700,674,678s26-27,35-27,39.5-.5,39.5-.5,8-19,28-35c0,0-8.5,9.5-15.5,34.5l-12.5.5s-19.67,3.88-66.67,99.88c0,0-26.25,2.24-45.25,3.24Z"/></g><path class="cls-7" d="M638.18,753.53s33,1.86,98,96.86H596.9s-32-89.15-64-97.15c0,0,28.72,1.72,57.94,1.56S638.18,753.53,638.18,753.53Z"/><g id="pencil"><path class="cls-8" d="M777,0V538.43A14.78,14.78,0,0,1,789,532a13,13,0,0,1,12,8V0Z"/><polygon class="cls-9" points="800.96 539.84 799.46 240.19 799.46 -0.16 800.96 -0.16 800.96 539.84"/><path class="cls-10" d="M753,0V537s4-7,12-6,11,9,11,9a12.91,12.91,0,0,1,1-1.57V0Z"/><polygon class="cls-11" points="787.38 582 767.03 582 777 614 787.38 582"/><path class="cls-12" d="M801,540s-2-8-12-8-12,6-12,6-4.54-6.36-12-7c-8-.69-11,4-12,6l14,45h20.35Z"/><path class="cls-13" d="M765,531c-8-.69-11,4-12,6l14,45h8.7c.11-14.7,1.13-29.13,1.25-44C776.81,537.73,772.31,531.63,765,531Z"/><path class="cls-14" d="M783.84,582h3.54L801,540S788.53,567,783.84,582Z"/><polygon class="cls-7" points="787.38 582 767.03 582 777 614 787.38 582"/><path class="cls-15" d="M791.25,531.93a16.64,16.64,0,0,0-5.5,0,14.16,14.16,0,0,0-5.2,1.92,11.44,11.44,0,0,0-3.59,3.54,20.23,20.23,0,0,0-5.09-4.41,15.39,15.39,0,0,0-6.87-2.25,14,14,0,0,0-7.09,1.18A10.61,10.61,0,0,0,753,537a10.75,10.75,0,0,1,5.06-4.78,13.86,13.86,0,0,1,6.89-.94,15.72,15.72,0,0,1,6.57,2.27,19.43,19.43,0,0,1,5.18,4.67.4.4,0,0,0,.12.1.38.38,0,0,0,.51-.15h0a10.67,10.67,0,0,1,3.59-3.73,13.53,13.53,0,0,1,4.93-1.86,20.16,20.16,0,0,1,5.32-.17,13.76,13.76,0,0,1,5.13,1.56A12,12,0,0,0,791.25,531.93Z"/></g></svg>