<svg id="Places" xmlns="http://www.w3.org/2000/svg" xmlns:xlink="http://www.w3.org/1999/xlink" width="30cm" height="30cm" viewBox="0 0 850.39 850.39"><defs><style>.cls-1{fill:#284d87;}.cls-2{fill:#323e4d;}.cls-3{fill:#2e3a4d;}.cls-4{fill:#2a3541;}.cls-5{fill:#293747;}.cls-6{fill:#263e5f;}.cls-7{fill:#264169;}.cls-8{fill:#c88348;}.cls-9{fill:#733e2f;}.cls-10{fill:#753e2f;}.cls-11{fill:#6e3b2c;}.cls-12{fill:#69372b;}.cls-13{fill:#5e592f;}.cls-14{fill:#59552e;}.cls-15{fill:#6b6536;}.cls-16{fill:url(#radial-gradient);}.cls-17{fill:#7e4333;}.cls-18{fill:#8f4532;}.cls-19{fill:#8f4614;}.cls-20{fill:#827a3f;}.cls-21{fill:#918841;}.cls-22{fill:#8f4735;}.cls-23{fill:#8c843f;}.cls-24{fill:#827b3f;}.cls-25{fill:#726f3a;}.cls-26{fill:#d1884b;}</style><radialGradient id="radial-gradient" cx="593.96" cy="789.81" r="58.58" gradientUnits="userSpaceOnUse"><stop offset="0" stop-color="#9e5726"/><stop offset="0.47" stop-color="#995425"/><stop offset="1" stop-color="#8c4d22"/></radialGradient></defs><g id="background"><rect class="cls-1" x="0.89" width="850.39" height="850.39"/></g><g id="birds"><path class="cls-2" d="M820.12,495.54q8.73-9.92,17.14-20.1c.28-.34.67-.71,1.09-.59s.56.64.57,1.08c.08,3.53-3.26,6.3-3.74,9.8-.17,1.18,0,2.38-.12,3.56a10.18,10.18,0,0,1-3,5.7c-1.5,1.59-3.26,2.9-4.87,4.38-1.93,1.79-3.63,3.83-5.59,5.6a14.19,14.19,0,0,1-6.85,3.75c-.75-4.19-3.39-7.77-6.11-11a15.77,15.77,0,0,1-2.1-2.92,33.91,33.91,0,0,1-1.36-4c-1.1-3.08-3.29-5.61-5-8.36a7.19,7.19,0,0,1-1.44-4.14,1.22,1.22,0,0,1,.64-1.16c.66-.23,1.21.52,1.51,1.15a89.92,89.92,0,0,0,12.24,19.13c.94,1.13,2,2.63,3.45,1.7A18.09,18.09,0,0,0,820.12,495.54Z"/><path class="cls-3" d="M779.58,531c1.23-1.12,1-3.08,1.48-4.68,1-3.41,5.09-5,6.55-8.28.62-1.37.9-3.17,2.29-3.73a3.89,3.89,0,0,1,1.63-.17l3,.09a.58.58,0,0,1,.19,0c.17.11,0,.39-.1.53-1,.93-2.63,1.35-2.95,2.66a4,4,0,0,0,0,1.33,13.21,13.21,0,0,1-3.94,10.87"/><path class="cls-4" d="M779.08,379c4.37-1.34,10.87-3,16-5.41a43.61,43.61,0,0,1,8.48-3.48c.13.92-.77,1.61-1.56,2.08a34.83,34.83,0,0,1-8.4,4.06c-1.74.48-3.56.69-5.24,1.34-3.12,1.22-5.8,3.95-9.15,3.85-2.86-.08-5.23-2.24-8-3-2.54-.74-5.32-.31-7.82-1.15s-6.47-4.34-6.24-4.89,2.7.94,5.44,2C775.43,379.45,779.08,379,779.08,379Z"/></g><g id="tree"><path class="cls-5" d="M624.36,499.07c-.42-2.21-1-4.6-2.78-6s-5.09-.69-5.33,1.54a145.69,145.69,0,0,0-4.7-19.77c-1.13-3.6-3.33-8.74-5.58-7.94-1.44.52-.48,8.83-3.85,15.54-1.28,2.53-.78,5.61-1.2,8.41A40.65,40.65,0,0,1,594.16,508c-.29-8.08-.56-16.32,1.61-24.11,2-7.08,5.34-14.74,7.21-21.85,2.76-10.53,5.35-29.65.85-34.36-1.42-1.48.21-6.61-1.17-13.8-2.57-13.38-10.17-27.4-10.17-21.19,0,4.06-2.57,5.24-.84,14.27-1.94.71-5.37,2.64-11.13,17.15C585.2,413.61,590,402,586.73,391c-1.43-4.85-4.37-9.26-5-14.28-.57-4.34-.1-10-4.16-11.67a1.79,1.79,0,0,0-1.61,0,2.19,2.19,0,0,0-.71,1.7c-.3,3.4-.26,6.83-.38,10.24a104.64,104.64,0,0,1-3.44,23.21c.52-4.94-2.5-14.18-4.76-13.61s-1.91,5-1.41,7.58c-.14-1.2-1.84-1.63-2.88-1a5.39,5.39,0,0,0-1.93,3c-.84,2.29-1.63,4.59-2.4,6.9-.12-1-.25-1.93-.4-2.89-.39-2.43-1-5-2.57-6.83a6.33,6.33,0,0,1-.84-1.09,4.32,4.32,0,0,1-.34-1.53q-.43-4.72-.88-9.46a34.56,34.56,0,0,0-1.81-9.59,2.85,2.85,0,0,0-1.05-1.48,2,2,0,0,0-2.56.86,5.79,5.79,0,0,0-.7,2.85,147.22,147.22,0,0,0,0,17.7,11.88,11.88,0,0,1-.05,2.6,22.49,22.49,0,0,1-.7,2.39,20.49,20.49,0,0,0-.44,6.86c.16,3.06.29,6.37-.78,9.15l-1.14-.66a30,30,0,0,0-.64-11.49c-.26-.87-.59-1.73-.77-2.62a20.54,20.54,0,0,1-.28-2.36,54.34,54.34,0,0,0-2.78-13.22,11.73,11.73,0,0,0-1.41-3,1.56,1.56,0,0,0-.79-.65c-.76-.2-1.34.64-1.64,1.36-2.17,5.23-2.46,11-2.51,16.68,0,2.94,0,5.87.09,8.8a3.22,3.22,0,0,0-3.26.84c-1.2,1.31-1.39,3.23-1.52,5l-1.11,15A11.54,11.54,0,0,0,523,418.9a7.9,7.9,0,0,1-1.51-1.37,18.4,18.4,0,0,1-1.1-2.43,2,2,0,0,0-2.14-1.2,2,2,0,0,0-1,1c-1.13,1.94-.93,4.36-.56,6.57.57,3.55,1.48,7.06,1.72,10.65s-.23,7.35-2.19,10.37a31.46,31.46,0,0,0-2.5-8,4.3,4.3,0,0,0-1.52-2,3.06,3.06,0,0,0-3.67.95,8.49,8.49,0,0,0-1.53,3.77c-.6,2.61-1.12,5.24-1.63,7.88-.68-4.44-4.23-8.45-5.86-12.86-2.1-5.66-1-11.92-.63-17.94a5.89,5.89,0,0,0-.81-4.08c-1.4-1.76-4.37-1.39-6,.16s-2.27,3.85-2.84,6A55.1,55.1,0,0,0,485,396.8a4.71,4.71,0,0,0-1.44-2.15,1.72,1.72,0,0,0-2.34.2,41.42,41.42,0,0,0-5-13.1c-1.22-2-3.16-4.2-5.48-3.75-1.32,3.87.51,8,1.88,11.87a53.7,53.7,0,0,1,2.71,11.73c-.67-.53-1.61-1.92-2.42-.23.1,4,2,8,1.05,11.93-1.35,5.41-7.79,8.59-8.71,14-.05-.09-.11-.17-.15-.26-1.73-3.26-1.35-7.17-1.38-10.86a44.84,44.84,0,0,0-1.76-12.08c-.68-2.38-2.53-5.23-4.89-4.47a48.06,48.06,0,0,0-9.63-19.32c-.92-1.12-2.47-2.28-3.66-1.46a3,3,0,0,0-.9,2.33,29,29,0,0,0,1.3,10.31,8.64,8.64,0,0,1,.67,3.44c-.07.74-.36,1.44-.5,2.17a11,11,0,0,0,.29,4.23q1.47,7.22,2.93,14.43c-1.91-3.66-3.85-7.31-5.78-11-1.11-2.1-3.87-5.49-4.78-7.68-4.5-10.81-5.25-6.1-10.87-15.61a1.4,1.4,0,0,0-1.47-.55c-.88.21-1,1.4-.89,2.3a117.3,117.3,0,0,0,3.88,18.3,68.53,68.53,0,0,0-10.49-10.36c-2.45-2-5-4.06-8.09-4.92-1.32-.37-2.7-.51-4-.91-2.49-.75-4.63-2.37-7.1-3.17-1.63-.53-4-.32-4.36,1.35-.26,1.1.53,2.15,1.3,3,2.79,3,6,5.59,9,8.38a89.32,89.32,0,0,1,11.32,12.79c-5.86-1-10.46-5.89-16.28-7.12a1.37,1.37,0,0,0-1.16.13,1.11,1.11,0,0,0-.33.77,5.33,5.33,0,0,0,1.16,3.4c7,10.75,19.9,16.08,28.71,25.41,1,1.09,2,2.25,3,3.41l-19.78-11.6a5.59,5.59,0,0,0-2.87-1c-1,0-2.1.88-2,1.9A72.19,72.19,0,0,0,396,418.5c-1.11-.43-2.54-.76-3.34.12s-.42,2,0,3c2,4.3,6.27,7.05,10.3,9.57-1,1.74.41,3.89,1.94,5.21a22.94,22.94,0,0,0,6,3.74c2.49,1.05,5.15,1.66,7.64,2.69a24,24,0,0,1,10.59,8.63,5.07,5.07,0,0,0,1.59,4.9,23.32,23.32,0,0,0,4.47,3c3.2,2,5.94,4.63,9,6.84-.35,3.9.9,7.87,2.65,11.42,1.42,2.87,3.16,5.57,4.73,8.35a14,14,0,0,0-7.49-4.51,8.57,8.57,0,0,1-3.15-.91,6.43,6.43,0,0,1-1.52-1.68,138.92,138.92,0,0,0-12-14.66,23.36,23.36,0,0,0-6.89-5.56c-3-1.39-6.68-1.69-8.9-4.15-1.21-1.34-1.78-3.13-2.65-4.73s-2.56-3.43-4.09-3.2,0,5.14.43,7.68a66.52,66.52,0,0,0,5,16.41c-6.53-8.26-11-18.33-19.14-25a5.18,5.18,0,0,0-3.33-1.5c-2.47.12-3.56,3.18-3.7,5.65a29.09,29.09,0,0,0,2.38,13.21c.78,1.78,1.75,3.5,2.36,5.35.52,1.6.76,3.28,1.18,4.91,1.37,5.33,4.55,10,7.66,14.54a7.26,7.26,0,0,0-3.05-1.61,2.54,2.54,0,0,0-2.87,1.41,3.58,3.58,0,0,0,.56,2.7,36.25,36.25,0,0,0,17.63,16.26c4.2,1.8,8.75,2.81,12.72,5.08s7.23,5.76,11.44,7.56a51.7,51.7,0,0,0,7.87,2.15,43.13,43.13,0,0,1,6.35,2.15,53.38,53.38,0,0,1,16.67,13.32c2.6,3.25,4.68,6.88,7,10.33A85.3,85.3,0,0,0,492,568a31.16,31.16,0,0,1-18.52-13.28,12.1,12.1,0,0,0-2.08-2.73,3.17,3.17,0,0,0-3.19-.72q-3.46-4.08-7.13-8c-2.86-3-5.93-6.08-9.84-7.52-1.43-.53-2.94-.82-4.35-1.39a28.88,28.88,0,0,1-5.73-3.51,74.9,74.9,0,0,0-8.74-5.32c-1-.52-2.49-.87-3,.14a2,2,0,0,0,0,1.3c.79,3.46,2.88,6.47,5.18,9.17,5.18,6.09,11.53,11,17.41,16.46q1.68,1.56,3.34,3.15c-6.51-.89-12.44-4.83-17.06-9.6-5.19-5.36-9.11-11.79-13.72-17.65-.88-1.13-2.4-2.33-3.55-1.49-.94.67-.72,2.11-.35,3.2a36.5,36.5,0,0,0,6.65,11.83c-4.71-2.87-7.67-8-12.27-11a40.87,40.87,0,0,1-4.46-2.88c-2.77-2.38-4-6.24-7-8.34a2.07,2.07,0,0,0-1.28-.48c-1.24.09-1.48,1.81-1.25,3a32.44,32.44,0,0,0,2.6,7.63,63,63,0,0,0,11.54,17,13.65,13.65,0,0,0-5.06-1.84,1.36,1.36,0,0,0-.87.08c-.59.35-.36,1.25,0,1.83,1.54,2.35,4.14,3.74,6.4,5.41,3.75,2.76,6.75,6.44,10.55,9.12a40.93,40.93,0,0,0,11.17,5.19,101.84,101.84,0,0,0,17.75,4l1.05.14q-1.55.43-3.06,1a5.28,5.28,0,0,0-2.42,1.41c-.39.46-.61,1-1,1.53A6.7,6.7,0,0,1,448,576.3a116.49,116.49,0,0,0-15.85,13,19.76,19.76,0,0,0-4.72,6.13,2.84,2.84,0,0,0,0,2.85c.87,1,2.55.59,3.77,0,8-3.87,15.16-9.64,23.8-11.5a2.31,2.31,0,0,0,2.16,2.28,6.47,6.47,0,0,0,3.34-.85c10.92-5,21.55-11.5,33.48-13.07l.8-.09c6.05,3.3,17.45,11.23,26.21,27.33,27.62,50.74,51.16,126.73,58.44,175.53s12.84,11.56,12.84,11.56-2.08-11.26-5.87-28.36a1.64,1.64,0,0,0,1,.4c1.29,0,1.81-1.66,2-3l3.12-26.77a23.24,23.24,0,0,0,.16-6.23,32.64,32.64,0,0,0-.79-3.28c-1.25-4.72-1.24-9.67-2-14.49-8-48-17-96.22-29-143.62a22.44,22.44,0,0,0,2.53-1,17.9,17.9,0,0,0,8.34-8c2.15,3.64,5.07,6.8,9.08,7.75L588.51,574c6.41.18,11.51-5.46,14.2-11.28s4-12.35,7.8-17.52c2.57-3.48,6.11-6.13,8.82-9.5C627.31,525.79,626.75,511.58,624.36,499.07Z"/><path class="cls-6" d="M548,662.85c15.09,40.23,26.67,83.34,31.39,115,7.28,48.81,12.84,11.56,12.84,11.56s-2.08-11.26-5.87-28.36a1.64,1.64,0,0,0,1,.4c1.29,0,1.81-1.66,2-3l3.12-26.77a23.24,23.24,0,0,0,.16-6.23,32.64,32.64,0,0,0-.79-3.28c-1.25-4.72-1.24-9.67-2-14.49q-1.51-9.09-3.08-18.19A115.39,115.39,0,0,1,548,662.85Z"/><path class="cls-5" d="M583.23,417.8c-.84,1.78-1.74,3.85-2.71,6.29C581.44,422,582.36,419.93,583.23,417.8Z"/><path class="cls-5" d="M583.23,417.8c-.84,1.78-1.74,3.85-2.71,6.29C581.44,422,582.36,419.93,583.23,417.8Z"/><path class="cls-6" d="M536.3,503.37a10.8,10.8,0,0,0,3-7c2-29.29,16.6-11.65,41-34.79,9.9-9.41,6.93-21.95,2.71-40.61-3.28-14.53,1.8-41-6.62-56.09a1.29,1.29,0,0,0-.41.16,2.19,2.19,0,0,0-.71,1.7c-.3,3.4-.26,6.83-.38,10.24a104.64,104.64,0,0,1-3.44,23.21c.52-4.94-2.5-14.18-4.76-13.61s-1.91,5-1.41,7.58c-.14-1.2-1.84-1.63-2.88-1a5.39,5.39,0,0,0-1.93,3c-.84,2.29-1.63,4.59-2.4,6.9-.12-1-.25-1.93-.4-2.89-.39-2.43-1-5-2.57-6.83a6.33,6.33,0,0,1-.84-1.09,4.32,4.32,0,0,1-.34-1.53q-.43-4.72-.88-9.46a34.56,34.56,0,0,0-1.81-9.59,2.85,2.85,0,0,0-1.05-1.48,2,2,0,0,0-2.56.86,5.79,5.79,0,0,0-.7,2.85,147.22,147.22,0,0,0,0,17.7,11.88,11.88,0,0,1-.05,2.6,22.49,22.49,0,0,1-.7,2.39,20.49,20.49,0,0,0-.44,6.86c.16,3.06.29,6.37-.78,9.15l-1.14-.66a30,30,0,0,0-.64-11.49c-.26-.87-.59-1.73-.77-2.62a20.54,20.54,0,0,1-.28-2.36,54.34,54.34,0,0,0-2.78-13.22,11.73,11.73,0,0,0-1.41-3,1.56,1.56,0,0,0-.79-.65c-.76-.2-1.34.64-1.64,1.36-2.17,5.23-2.46,11-2.51,16.68,0,2.94,0,5.87.09,8.8a3.22,3.22,0,0,0-3.26.84c-1.2,1.31-1.39,3.23-1.52,5l-1.11,15A11.54,11.54,0,0,0,523,418.9a7.9,7.9,0,0,1-1.51-1.37,18.4,18.4,0,0,1-1.1-2.43,2,2,0,0,0-2.14-1.2,2,2,0,0,0-1,1c-1.13,1.94-.93,4.36-.56,6.57.57,3.55,1.48,7.06,1.72,10.65s-.23,7.35-2.19,10.37a31.46,31.46,0,0,0-2.5-8,4.3,4.3,0,0,0-1.52-2,3.06,3.06,0,0,0-3.67.95,8.49,8.49,0,0,0-1.53,3.77c-.6,2.61-1.12,5.24-1.63,7.88-.68-4.44-4.23-8.45-5.86-12.86-2.1-5.66-1-11.92-.63-17.94a5.89,5.89,0,0,0-.81-4.08c-1.4-1.76-4.37-1.39-6,.16s-2.27,3.85-2.84,6A55.1,55.1,0,0,0,485,396.8a4.71,4.71,0,0,0-1.44-2.15,1.72,1.72,0,0,0-2.34.2,41.42,41.42,0,0,0-5-13.1c-1.22-2-3.16-4.2-5.48-3.75-1.32,3.87.51,8,1.88,11.87a53.7,53.7,0,0,1,2.71,11.73c-.67-.53-1.61-1.92-2.42-.23.1,4,2,8,1.05,11.93-1.35,5.41-7.79,8.59-8.71,14-.05-.09-.11-.17-.15-.26-1.73-3.26-1.35-7.17-1.38-10.86a44.84,44.84,0,0,0-1.76-12.08c-.68-2.38-2.53-5.23-4.89-4.47a48.06,48.06,0,0,0-9.63-19.32c-.92-1.12-2.47-2.28-3.66-1.46a3,3,0,0,0-.9,2.33,29,29,0,0,0,1.3,10.31,8.64,8.64,0,0,1,.67,3.44c-.07.74-.36,1.44-.5,2.17a11,11,0,0,0,.29,4.23q1.47,7.22,2.93,14.43c-1.91-3.66-3.85-7.31-5.78-11-1.11-2.1-3.87-5.49-4.78-7.68-4.5-10.81-5.25-6.1-10.87-15.61a1.4,1.4,0,0,0-1.47-.55c-.88.21-1,1.4-.89,2.3a117.3,117.3,0,0,0,3.88,18.3,68.53,68.53,0,0,0-10.49-10.36c-2.45-2-5-4.06-8.09-4.92-1.32-.37-2.7-.51-4-.91-2.49-.75-4.63-2.37-7.1-3.17-1.63-.53-4-.32-4.36,1.35-.26,1.1.53,2.15,1.3,3,2.79,3,6,5.59,9,8.38a89.32,89.32,0,0,1,11.32,12.79c-5.86-1-10.46-5.89-16.28-7.12a1.37,1.37,0,0,0-1.16.13,1.11,1.11,0,0,0-.33.77,5.33,5.33,0,0,0,1.16,3.4c7,10.75,19.9,16.08,28.71,25.41,1,1.09,2,2.25,3,3.41l-19.78-11.6a5.59,5.59,0,0,0-2.87-1c-1,0-2.1.88-2,1.9A72.19,72.19,0,0,0,396,418.5c-1.11-.43-2.54-.76-3.34.12s-.42,2,0,3c2,4.3,6.27,7.05,10.3,9.57-1,1.74.41,3.89,1.94,5.21a22.94,22.94,0,0,0,6,3.74c2.49,1.05,5.15,1.66,7.64,2.69a24,24,0,0,1,10.59,8.63,5.07,5.07,0,0,0,1.59,4.9,23.32,23.32,0,0,0,4.47,3c3.2,2,5.94,4.63,9,6.84-.35,3.9.9,7.87,2.65,11.42,1.42,2.87,3.16,5.57,4.73,8.35a14,14,0,0,0-7.49-4.51,8.57,8.57,0,0,1-3.15-.91,6.43,6.43,0,0,1-1.52-1.68,138.92,138.92,0,0,0-12-14.66,23.36,23.36,0,0,0-6.89-5.56c-3-1.39-6.68-1.69-8.9-4.15-1.21-1.34-1.78-3.13-2.65-4.73s-2.56-3.43-4.09-3.2,0,5.14.43,7.68a66.52,66.52,0,0,0,5,16.41c-6.53-8.26-11-18.33-19.14-25a5.18,5.18,0,0,0-3.33-1.5c-2.47.12-3.56,3.18-3.7,5.65a29.09,29.09,0,0,0,2.38,13.21c.78,1.78,1.75,3.5,2.36,5.35.52,1.6.76,3.28,1.18,4.91,1.37,5.33,4.55,10,7.66,14.54a7.26,7.26,0,0,0-3.05-1.61,2.54,2.54,0,0,0-2.87,1.41,3.58,3.58,0,0,0,.56,2.7,36.25,36.25,0,0,0,17.63,16.26c4.2,1.8,8.75,2.81,12.72,5.08s7.23,5.76,11.44,7.56a51.7,51.7,0,0,0,7.87,2.15,43.13,43.13,0,0,1,6.35,2.15,53.38,53.38,0,0,1,16.67,13.32c2.6,3.25,4.68,6.88,7,10.33A85.3,85.3,0,0,0,492,568a31.16,31.16,0,0,1-18.52-13.28,12.1,12.1,0,0,0-2.08-2.73,3.17,3.17,0,0,0-3.19-.72q-3.46-4.08-7.13-8c-2.86-3-5.93-6.08-9.84-7.52-1.43-.53-2.94-.82-4.35-1.39a28.88,28.88,0,0,1-5.73-3.51,74.9,74.9,0,0,0-8.74-5.32c-1-.52-2.49-.87-3,.14a2,2,0,0,0,0,1.3c.79,3.46,2.88,6.47,5.18,9.17,5.18,6.09,11.53,11,17.41,16.46q1.68,1.56,3.34,3.15c-6.51-.89-12.44-4.83-17.06-9.6-5.19-5.36-9.11-11.79-13.72-17.65-.88-1.13-2.4-2.33-3.55-1.49-.94.67-.72,2.11-.35,3.2a36.5,36.5,0,0,0,6.65,11.83c-4.71-2.87-7.67-8-12.27-11a40.87,40.87,0,0,1-4.46-2.88c-2.77-2.38-4-6.24-7-8.34a2.07,2.07,0,0,0-1.28-.48c-1.24.09-1.48,1.81-1.25,3a32.44,32.44,0,0,0,2.6,7.63,63,63,0,0,0,11.54,17,13.65,13.65,0,0,0-5.06-1.84,1.36,1.36,0,0,0-.87.08c-.59.35-.36,1.25,0,1.83,1.54,2.35,4.14,3.74,6.4,5.41,3.75,2.76,6.75,6.44,10.55,9.12a40.93,40.93,0,0,0,11.17,5.19,101.84,101.84,0,0,0,17.75,4l1.05.14q-1.55.43-3.06,1a5.28,5.28,0,0,0-2.42,1.41c-.39.46-.61,1-1,1.53A6.7,6.7,0,0,1,448,576.3a116.49,116.49,0,0,0-15.85,13,19.76,19.76,0,0,0-4.72,6.13,2.84,2.84,0,0,0,0,2.85c.87,1,2.55.59,3.77,0,8-3.87,15.16-9.64,23.8-11.5a2.31,2.31,0,0,0,2.16,2.28,6.47,6.47,0,0,0,3.34-.85c10.92-5,21.55-11.5,33.48-13.07l.8-.09a62.09,62.09,0,0,1,16.46,13.39c-3.1-17.54,10.7-24.95,16.39-41.82C531.64,534.71,518.17,521.25,536.3,503.37Z"/><path class="cls-1" d="M463.89,503.8c3.38,2.5,7.19,4.83,9.05,8.6.89,1.81,1.26,3.82,2.15,5.62,1.77,3.61,5.38,6,7.51,9.4s2.61,7.51,3.06,11.48a235.43,235.43,0,0,0-18.72-27.3c-1.7-2.14-3.95-4.46-6.66-4.1a13.66,13.66,0,0,0-.67-7.36A35.63,35.63,0,0,0,463.89,503.8Z"/><path class="cls-1" d="M475.55,448.87a8.29,8.29,0,0,1,1.22,2.65,10.61,10.61,0,0,1,0,2.87,19.27,19.27,0,0,0,2,9.73,2.54,2.54,0,0,1,.42,1.49,2.9,2.9,0,0,1-1,1.44c-2.12,2.2-2.78,5.31-2.71,8.44l-.15-.06c-2.52-2.34-3.69-6-4.37-9.46a70.72,70.72,0,0,1-1-19.91c.16-1.86.37-3.77.43-5.66Z"/><path class="cls-1" d="M554.39,649.86c-11.56-29.33-24.64-52.46-24-78.87,1.19,2.74,3.4,5.14,6.3,5.78,1.56.35,3.29.2,4.64,1s2,2.43,2.52,3.91A718.43,718.43,0,0,1,582.51,744C575.85,715.93,566.12,679.63,554.39,649.86Z"/><path class="cls-7" d="M815,506.48c-1.39-1.16-8.55,5.84-12.71,11.37.11-.57-.14-1.18-1.21-1.83-2.6-1.56-22.09,14.4-33.14,21.61,5.61-5.46,11.36-11.14,14.27-18.4.62-1.53,1-3.55-.31-4.59-1.59-1.29-3.87.27-5.28,1.76a196.31,196.31,0,0,0-15.89,19.11c1.07-2.14-1.29-4.77-3.68-4.69s-4.35,2-5.54,4.06-1.86,4.43-3.12,6.46c-5.55,8.9-19.17,7.92-27.26,14.58-5.55,4.57-6,12-12.92,13.77-1.47.38-5.12,1.23-6.1.11a6.55,6.55,0,0,1-1.66-4.78c.25-3.73,2.77-7,5.83-9.15s6.66-3.39,10.15-4.74a142.79,142.79,0,0,0,42.21-25.38c1.35-1.17,2.78-2.57,2.87-4.36s-2.17-3.54-3.51-2.35a45.53,45.53,0,0,0,8.58-11.89,4.79,4.79,0,0,0,.58-3,31.9,31.9,0,0,0,12.09-6.55c.95-.88,1.88-2.11,1.5-3.34-.48-1.57-2.58-1.79-4.22-1.68A114,114,0,0,0,760,494.9l1.39-1.44c4.29-4.53,8.59-9,12.7-13.75,1.47-1.67,3-3.5,3.22-5.7s-1.38-4.76-3.6-4.59l3.51-6.3c2.23-4,4.49-8.09,5.22-12.61a6.65,6.65,0,0,0-.57-4.27,17.48,17.48,0,0,0,4-5,3.37,3.37,0,0,0,.48-2c-.31-1.79-2.74-2.1-4.55-1.88a59.47,59.47,0,0,0-18.12,5.24c4.19-3.7,8.42-7.34,12.75-10.86,2-1.67,4.19-3.4,5.29-5.81.84-1.82.65-4.52-1.24-5.2a121.72,121.72,0,0,0,9.67-10c1.22-1.42,2.46-3,2.68-4.85a2.09,2.09,0,0,0-.51-1.81,2.48,2.48,0,0,0-2.39-.13c-5.17,1.59-9.76,4.63-14.27,7.64l-10.72,7.15a19.72,19.72,0,0,0,.82-6.74,3.35,3.35,0,0,0-.48-1.82,2.43,2.43,0,0,0-2.85-.65,5.33,5.33,0,0,0-2.29,2.1,29.49,29.49,0,0,0-2.73,5.89,158.14,158.14,0,0,1-16.76,32,31.92,31.92,0,0,0,.54-6.76c-.09-2.54-.85-5.5-3.21-6.4.64-2.41,1.28-4.93.81-7.38s-2.41-4.81-4.91-4.89l-.12-3.63a1.78,1.78,0,0,0-.6-1.55,1.46,1.46,0,0,0-1.07-.06c-2,.49-3.26,2.42-4.24,4.23a74.61,74.61,0,0,0-4.76,10.6,3.13,3.13,0,0,0-3.66.81,9.63,9.63,0,0,0-1.86,3.56,102.5,102.5,0,0,1-7.63,16.26c-.35.44-.69.89-1,1.36a39.46,39.46,0,0,0-10.6,5,59.46,59.46,0,0,0,9.39-11.12,5.43,5.43,0,0,0,1.12-2.76,2,2,0,0,0-1.7-2.12,30.87,30.87,0,0,0,8.44-9.81c1-1.88,1.59-4.73-.29-5.75-1.25-.68-2.78,0-4,.67a63.53,63.53,0,0,0-21.94,20.4,29.65,29.65,0,0,0,.5-11.68c-.13-.85-.42-1.83-1.24-2.1-1.19-.38-2.1,1.06-2.52,2.24q-2.19,6.14-4.37,12.28l-1.22,3.41c-.34,1-.68,1.92-1,2.9-1.33,4.13-2.09,8.42-3.19,12.61-.72,2.72-1.59,5.4-2.53,8a50.82,50.82,0,0,1,0-10.82c.28-2.66.72-5.56-.65-7.86a14.35,14.35,0,0,1-1.14-1.83c-.53-1.31-.12-2.78.09-4.18a15.12,15.12,0,0,0-.24-5.84,2.94,2.94,0,0,0-.87-1.68,2.23,2.23,0,0,0-2.77.31,6.61,6.61,0,0,0-1.49,2.6l-3,7.8A61.87,61.87,0,0,0,660.26,467c-1.22,6.65-.21,13.5,1,20.16a10.57,10.57,0,0,0-6.09,6.35c-.14.37-.27.74-.39,1.12a4,4,0,0,0-4.62-.43c-1.83,1.11-2.73,3.26-3.36,5.3a46.23,46.23,0,0,0-1.68,8c-2.39-5.94-1.39-13-2.92-19.39-.49-2.05-1.46-4.25-3.43-5a17.89,17.89,0,0,0-1.48-9.89,2.36,2.36,0,0,0-.87-1.13c-1.07-.6-2.27.57-2.84,1.65-2.83,5.28-2.83,11.55-3,17.54a205.48,205.48,0,0,1-2.28,24.4A70.22,70.22,0,0,0,627,526.78c0,.84.06,1.66.14,2.49a18.65,18.65,0,0,1-3.77-5.92c-1-2.74-1.83-6.41-4.72-6.84-2.25-.33-4.16,1.78-4.9,3.92-.59,1.72-.75,3.57-1.27,5.29-.14-.28-.27-.57-.41-.86a42.86,42.86,0,0,1-2.28-4.48c-1.8-4.77-.5-10.55-3.32-14.8a3.39,3.39,0,0,0-2-1.6c-1.73-.36-3.1,1.46-3.65,3.14-1.15,3.54-.86,7.56-2.78,10.75-.75,1.23-1.78,2.26-2.61,3.42-2.54,3.54-3.12,8.16-2.76,12.5s1.56,8.56,2.25,12.86a56.05,56.05,0,0,1,.21,16.66,56.83,56.83,0,0,1-4.49-16.72c-1.46-13.27,1.75-26.7.6-40a17.75,17.75,0,0,0-2.23-8.06c-1.5-2.38-4.28-4.14-7.06-3.71a6.41,6.41,0,0,0-3.93,2.33c-1.34-3.08-2.58-6.2-3.93-9.3l-1.63-3.76a66.89,66.89,0,0,0-5.22-10.35,33.65,33.65,0,0,0-4.66-5.59,6.58,6.58,0,0,0-3.23-2,5.13,5.13,0,0,0-4.72,2.35c-3.32,4.6-1.18,10.92-1.06,16.59.07,3.4-.64,6.77-.9,10.17a38.33,38.33,0,0,0,1.82,14.81,2.67,2.67,0,0,0-3.36.67,6.4,6.4,0,0,0-1.27,3.46,23.81,23.81,0,0,0,1.24,11.07c-2.21-.45-3.7,2.26-4,4.49a25.49,25.49,0,0,0,1.9,13L539.09,533c-1.28-1.26-3.26-2.58-4.67-1.48-1,.8-.95,2.36-.73,3.65a61.11,61.11,0,0,0,4.6,14.88c-.93-1-2.84-.13-3.19,1.22s.31,2.73,1,4a80.68,80.68,0,0,0,17.61,21.89,34,34,0,0,0-9.78-4.26,7.58,7.58,0,0,0-3.34-.28,3,3,0,0,0-2.39,2.12c-.3,1.46.86,2.77,2,3.77a62.38,62.38,0,0,0,14.59,9.85,3.41,3.41,0,0,0-3.1,2.67,8.42,8.42,0,0,0,.3,4.36,34.62,34.62,0,0,0,3.56,8.44l-4.2-.9a1.93,1.93,0,0,0-1.09,0,1.53,1.53,0,0,0-.77.88c-.95,2.32.75,4.81,2.36,6.74,8.28,9.9,16.94,19.75,22.41,31.44a6,6,0,0,0-2.51-2,2.06,2.06,0,0,0-2.64,1.21,3,3,0,0,0,.6,2.06l12.6,21.45c1.61,2.74,3.22,5.48,4.93,8.15l-.07,0a69.84,69.84,0,0,1-8-7,99.71,99.71,0,0,0-15.77-12.2c-6-3.74-12.55-6.9-19.58-7.6a1.8,1.8,0,0,0-.95.09,1.62,1.62,0,0,0-.64,1.68c.26,3.29,2.85,5.86,5.35,8q5.22,4.53,10.84,8.59a1.74,1.74,0,0,0-.57,2.39,4.36,4.36,0,0,0,2.13,1.66c4.19,1.94,8.83,2.62,13.32,3.71s9.05,2.74,12.19,6.12c2.71,2.91,4,6.65,5.08,10.53q-.54,11.6-2,23.13c-.64,4.93-1.41,9.84-2.18,14.76-1.45,9.22-2.9,18.48-5.61,27.42-1.88,6.21-4.41,12.31-8.4,17.43l17.65,2a37.32,37.32,0,0,1,9.73,2c-3.39-8.65-2.09-18.33-.75-27.52,2.74-18.77,5.48-37.61,10.51-55.88,3.4-4.15,7-8.16,10.69-12,3.08-3.17,6.45-6.33,10.69-7.6,5.6-1.66,11.56.29,17.06,2.26,2.2.8,4.54,1.61,6.85,1.2s4.49-2.53,4.08-4.84c-.39-2.13-2.68-3.36-4.81-3.75s-4.4-.27-6.38-1.16l23-2.17c1.75-.16,3.72-.44,4.77-1.85s-.07-4.11-1.76-3.59c12.3-7.1,27.54-7.52,40-14.34A85.78,85.78,0,0,0,724.2,637c3.82-2.91,11.32-8.42,10.36-9.91s-6,2-8.48,4.08a52.08,52.08,0,0,1-28.49,12,21.49,21.49,0,0,0,6.35-7.41c.5-1,.87-2.25.09-3s-1.95-.35-2.9,0l-16.65,7.07a4.61,4.61,0,0,0,.08-3.91,4.75,4.75,0,0,0-5.12-.19,17.18,17.18,0,0,0-4.12,3.5,48.91,48.91,0,0,1-20,12.18,13.54,13.54,0,0,0,5.74-5.84,2.33,2.33,0,0,0,.35-1.61c-.36-1.51-2.61-1.18-4-.43a42.55,42.55,0,0,0-9.33,7l5.49-13.29c.89-2.14,1.79-4.45,1.34-6.73s-2.89-4.31-5-3.43a4,4,0,0,0-.12-3.59,13,13,0,0,1,4.49-1.73c4.13-.65,8.11,1.48,12.09,2.77,13.75,4.46,28.54-1,41.95-6.4C719,613.87,736.59,599.1,735,597.72s-16.64,9.26-26,10.51c3.15-2.64,8.68-8.62,6.92-10a1.57,1.57,0,0,0-1.22-.05c9.55-3.44,23.38-11.42,22.39-13.51-1.1-2.29-16.19.67-23.53,4,33.67-18.28,45.3-25.29,43.9-27.72s-10.29,1.34-15.43,2a167.94,167.94,0,0,0,71.14-48.36C815.17,512.24,816.56,507.81,815,506.48Z"/><path class="cls-5" d="M567,616a64.47,64.47,0,0,1-17.73-11.74c-.54,2.17,1,4.44,2.52,6.23,8.28,9.9,16.94,19.75,22.41,31.44a6,6,0,0,0-2.51-2,2.06,2.06,0,0,0-2.64,1.21,3,3,0,0,0,.6,2.06l12.6,21.45c1.61,2.74,3.22,5.48,4.93,8.15l-.07,0a69.84,69.84,0,0,1-8-7,99.71,99.71,0,0,0-15.77-12.2c-6-3.74-12.55-6.9-19.58-7.6a1.8,1.8,0,0,0-.95.09,1.62,1.62,0,0,0-.64,1.68c.26,3.29,2.85,5.86,5.35,8q5.22,4.53,10.84,8.59a1.74,1.74,0,0,0-.57,2.39,4.36,4.36,0,0,0,2.13,1.66c4.19,1.94,8.83,2.62,13.32,3.71s9.05,2.74,12.19,6.12c2.71,2.91,4,6.65,5.08,10.53q-.54,11.6-2,23.13c-.64,4.93-1.41,9.84-2.18,14.76-1.45,9.22-2.9,18.48-5.61,27.42-1.88,6.21-4.41,12.31-8.4,17.43l17.65,2a37.32,37.32,0,0,1,9.73,2c-3.39-8.65-2.09-18.33-.75-27.52,2.74-18.77,5.48-37.61,10.51-55.88,3.4-4.15,7-8.16,10.69-12,3.08-3.17,6.45-6.33,10.69-7.6,5.6-1.66,11.56.29,17.06,2.26,2.2.8,4.54,1.61,6.85,1.2s4.49-2.53,4.08-4.84c-.39-2.13-2.68-3.36-4.81-3.75s-4.4-.27-6.38-1.16l23-2.17c1.75-.16,3.72-.44,4.77-1.85s-.07-4.11-1.76-3.59c12.3-7.1,27.54-7.52,40-14.34A85.78,85.78,0,0,0,724.2,637c3.82-2.91,11.32-8.42,10.36-9.91s-6,2-8.48,4.08a52.08,52.08,0,0,1-28.49,12,21.49,21.49,0,0,0,6.35-7.41c.5-1,.87-2.25.09-3s-1.95-.35-2.9,0l-16.65,7.07a4.61,4.61,0,0,0,.08-3.91,4.75,4.75,0,0,0-5.12-.19,17.18,17.18,0,0,0-4.12,3.5,48.91,48.91,0,0,1-20,12.18,13.54,13.54,0,0,0,5.74-5.84,2.33,2.33,0,0,0,.35-1.61c-.36-1.51-2.61-1.18-4-.43a42.55,42.55,0,0,0-9.33,7l5.49-13.29c.89-2.14,1.79-4.45,1.34-6.73s-2.89-4.31-5-3.43a4,4,0,0,0-.12-3.59,13,13,0,0,1,4.49-1.73c4.13-.65,8.11,1.48,12.09,2.77,13.75,4.46,28.54-1,41.95-6.4C719,613.87,736.59,599.1,735,597.72s-16.64,9.26-26,10.51c3.15-2.64,8.68-8.62,6.92-10a1.57,1.57,0,0,0-1.22-.05c9.55-3.44,23.38-11.42,22.39-13.51-1.1-2.29-16.19.67-23.53,4,6.39-3.47,12-6.53,16.85-9.23-17.19,4.4-35.36,5-49.43,16.62C648,624,604,634,567,616Z"/><path class="cls-1" d="M626.16,628.71c1.37-3.24,2.39-6.63,3.56-10a95.49,95.49,0,0,1,10.9-21.87c.78-1.14,1.58-2.22,2.41-3.28,1.81,5.19,4.12,10.26,6.43,15.25Q637.58,618.52,626.16,628.71Z"/><path class="cls-1" d="M689.9,581.77c1.76-1.5,4.36-1.26,6.66-1.67a41.26,41.26,0,0,1-9.12,7.33C688,585.36,688.3,583.12,689.9,581.77Z"/><path class="cls-1" d="M732.79,526.12c.55-6.37,5.42-11.67,11-14.7,4.42-2.38,9.31-3.64,14.21-4.83C749.35,512.7,742.58,521.88,732.79,526.12Z"/><path class="cls-1" d="M745.52,465.73c2.84-4.57,7.76-7.46,12.79-9.38,3-1.14,6.11-2,9.19-3-1.87,1.58-3.75,3.15-5.72,4.61C756.93,461.62,751.49,464.7,745.52,465.73Z"/><path class="cls-1" d="M685.68,510c2.15-4.2,4.48-8.43,5.13-13.09.47-3.43,0-7,1-10.33a22,22,0,0,1,3.35-6.23c.21-.31.44-.61.66-.91-.53,5.63.17,11.59.77,17.25,1,9.72,0,19.78-5.57,27.82-9.8,14.15-9.44,1.87-9.47-1.15C681.5,518.64,683.53,514.18,685.68,510Z"/><path class="cls-1" d="M607.38,580.36c1.21-8.94,4.33-17.5,6.33-26.29l.12.24c1.22,2.21,2.82,4.22,3.71,6.58,1.18,3.09,1.05,6.53,1.93,9.72,1.32,4.75,4.75,8.6,6.88,13a10.25,10.25,0,0,1,1.21,4.93,12.43,12.43,0,0,1-1,3.57l-9.15,24.26a77.93,77.93,0,0,0-3.4,10.74C609.19,611.94,605.25,596.11,607.38,580.36Z"/><path class="cls-1" d="M584,583.81c1.54-1,3.75,0,4.63,1.64s1.92,5.49.68,5.41S585.2,587.07,583,585A3.33,3.33,0,0,1,584,583.81Z"/><path class="cls-1" d="M578.59,623c-2.44-7.41-3.08-15.25-3.8-23a13.72,13.72,0,0,0,4.29,2.19c3.27,1,6.75,1.13,10,2a21.91,21.91,0,0,1,8.62,4.67,15.39,15.39,0,0,0,2.86,2.1,103.39,103.39,0,0,1,6.55,20.75c.46,2.3.86,4.63,1.32,6.93-2.23,11.38-5.71,22.52-9.2,33.6-.48,1.53-1.07,3.19-2.46,4a3.8,3.8,0,0,1-2.56.37,30.3,30.3,0,0,1,1.59-14.56c1-2.64,2.35-5.16,2.95-7.91a2.25,2.25,0,0,0-.23-1.95c-.75-.87-2.17-.27-3.06.45a20.51,20.51,0,0,0-4.77,5.48A94.46,94.46,0,0,1,594.47,637c1.06-3.58,2.34-7.36,1.36-11a3.73,3.73,0,0,0-1.28-2.13,3.13,3.13,0,0,0-3.68.33,7.85,7.85,0,0,0-2.16,3.29,33.36,33.36,0,0,0-2.44,14.58C584.23,635.55,580.74,629.55,578.59,623Z"/><path class="cls-1" d="M633.61,646.33c-.62,8.85-6.51,16.49-13.18,22.35-2.54,2.23-5.23,4.3-7.92,6.35,1.31-9.78,3.18-19.69,8.84-27.67,3.23-4.55,7.53-8.21,11.88-11.69.36-.28.73-.55,1.08-.83a9,9,0,0,0-.25.89C633.26,639.18,633.86,642.79,633.61,646.33Z"/><path class="cls-1" d="M637.78,632.16q2.26-1.74,4.57-3.43c-1.06,1.67-2.05,3.37-2.93,5.12A1.86,1.86,0,0,0,637.78,632.16Z"/><path class="cls-1" d="M653.93,584.73c1-6.79,1.19-13.78,3.75-20.14a4.36,4.36,0,0,1,1-1.71,3.47,3.47,0,0,1,2.57-.68c3.36.28,6,3.38,6.61,6.7a12.6,12.6,0,0,1-.31,5.39l-.28.21Q660.56,579.53,653.93,584.73Z"/><path class="cls-1" d="M690,610.55a5.47,5.47,0,0,0-6.2-4.23c9.24-3.13,19-4.58,28.33-7.29l.53-.16C707.18,601.08,696.57,607.41,690,610.55Z"/><path class="cls-2" d="M617,610.86a7.11,7.11,0,0,0-.64-2.25,1.68,1.68,0,0,0-2-.85c-.91.41-.77,1.57-2.91,2.16,2.08,1,1.6,2.49,1.38,3.77a29.23,29.23,0,0,0-.37,10.12,25.6,25.6,0,0,0,1.44,4c1.59-5.18,3-9.31,4.42-13.62A10.41,10.41,0,0,1,617,610.86Z"/></g><g id="fruit"><path class="cls-8" d="M850.39,732a1171.82,1171.82,0,0,0-133.64,5c-74.81,7.38-127.47,38.53-127.47,38.53l203.26,74.88h57.85Z"/><path class="cls-9" d="M673.07,792.1s-4.23-22.9-.36-42.16,12.45-40.29,12.3-42.71-7.11-6.12-8.59-4.51-15.22,56.87-9.59,88.49S673.07,792.1,673.07,792.1Z"/><path class="cls-8" d="M397.91,837.16s41.42-66.47,47.2-73.53,5.46-19.59,2.25-26.33-15.87-8.89-20.87-7.71c-66.79,15.73-79,44.63-146.42,54.27-84.53,12.07-147-26-166.32-31.79S56,737.94,31.87,729c-17-6.36-27.3-34.54-31.87-50.51v48.89c9.69,21.91,10.4,67.3,23.53,97C31.27,841.82,397.91,837.16,397.91,837.16Z"/><path class="cls-10" d="M0,794.45s37.43-45.2,101.87-28.58C182.78,786.74,168,850.39,168,850.39s-167.56-.45-168,0S0,794.45,0,794.45Z"/><path class="cls-9" d="M770.55,800.07c-.71-21-40.73-48.32-91-48.32s-91,23.94-91,48.32,40.72,44.15,91,44.15S771.36,824.44,770.55,800.07Z"/><path class="cls-11" d="M657.36,754.92a106.11,106.11,0,0,0-51.69,17.74c65.12-9.49,85.3,33.38,91.76,56,8.93,31.24,32.52,4.5,23.61,19.57,14.21,0,30.69,0,30.69,0,2.72-6.78,19.36-23.52,19.36-30.93C771.09,775,715.86,750.66,657.36,754.92Z"/><path class="cls-12" d="M638.63,791.23c-27.31-19.1,13.28,58.31,13.28,58.31l3.46-3.18"/><path class="cls-13" d="M586.07,792.52c-.68-21-38.25-53.62-86.05-53.62s-85.52,27.8-85.52,52.18,38.75,44.15,86.55,44.15S586.85,816.9,586.07,792.52Z"/><path class="cls-14" d="M490.92,741c-12.76.67-28.3,3.3-42.14,9.61,52.36-12.82,76,5.22,82.22,14.18,13.36,19.11,6.32,58.05-1.17,70.72,12,0,38.26-13.58,38.26-13.58,2.29-5.7,5.19-11.71,5.19-17.94C573.28,768.4,540.23,738.4,490.92,741Z"/><path class="cls-15" d="M498.07,739.53a113.25,113.25,0,0,0-47.3,10.09c13.83-4.47,24.55-7.29,35.3-8.1,36.25-2.72,54.29,9.34,65.12,18.18,7.46,6.08,20.56,22.77,20.42,37.5-.13,13.28-12.9,23.39-16.37,30.37,11.1-.05,28.83-5.66,28.83-5.66A47.93,47.93,0,0,0,587.61,804C587.61,768.38,547.52,739.53,498.07,739.53Z"/><path class="cls-16" d="M583.49,766.28c-39.25,0-71.07,28.85-71.07,64.43,0,6.23,1.7,13.5,3.52,19.2l137.75.55c1.3-5.79,2-15.5,1-25.2C651.46,792.61,622.74,766.28,583.49,766.28Z"/><ellipse class="cls-17" cx="112.28" cy="804.43" rx="33.2" ry="40.22" transform="translate(-675.3 605.88) rotate(-67.91)"/><path class="cls-18" d="M670.26,754.73c19.39.5,28.1,6.68,42.1,11.76,11.8,4.29,17,9.32,27.22,17,5.41,1.56,16.9.73,19.41,2.54-5.14-7.31-23.37-19.85-41.92-25.59C705.9,757,684.11,752.46,670.26,754.73Z"/><path class="cls-19" d="M597.8,767.28A81.6,81.6,0,0,0,583,765.92c-27.21,0-52.83,13.16-64.86,36.91,7.3,2.76,5.52,5.47,13.62.32s11.6-9.82,25.41-21S579.5,769.55,597.8,767.28Z"/><path class="cls-20" d="M850.39,840.7c-19.67-35.72-71-56.81-120.91-49.57-40.86,5.94-68.24,29.36-79.15,59.26H850.39Z"/><path class="cls-21" d="M798.81,801.45C781.81,793.1,756,790.79,739,795c34.81.39,87.25,23.78,94,29.21C826.07,815.71,820.74,812.22,798.81,801.45Z"/><path class="cls-9" d="M301.26,783.21c-42,0-76.09,25.74-76.09,57.48a44,44,0,0,0,1.1,9.7h150a44,44,0,0,0,1.1-9.7C377.36,809,343.29,783.21,301.26,783.21Z"/><path class="cls-11" d="M295.14,786.25c-13.36,1.22-19.3,1.51-30.29,7.83,41.56-12.83,64.52,15.65,68.35,24.4,9.24,21.13,18.59,31,4.06,31.79,9.5,0,50.67.09,50.67.09,1.82-5.7-15.81-9-17.4-16.06C362.79,800.07,334.23,782.66,295.14,786.25Z"/><path class="cls-22" d="M326.69,788.09c-10.4-3.41-25.14-4.05-34.73-.89,20-1.36,32.15,3.54,42.32,10.89,4.91,3.55,7.88,6.73,11.06,9.19,1.35-2.12,3.13-2.82,5.33-5.1C346.4,796.58,335.58,791,326.69,788.09Z"/><path class="cls-17" d="M768.81,829.52s2.16-23.18,11.12-40.66,23-35.38,23.46-37.76-5.18-7.82-7-6.68S766.24,795,763.05,827,768.81,829.52,768.81,829.52Z"/><path class="cls-20" d="M73.61,850.39h211a119.71,119.71,0,0,0-23.28-36.91q-3.78-4.08-7.82-7.72c-18.82-17-41.45-26.92-61.93-31.46a121.69,121.69,0,0,0-23.85-3c-36.07-.7-58.35,9.5-72.1,22.78a68,68,0,0,0-12.07,15.68A80.6,80.6,0,0,0,73.61,850.39Z"/><path class="cls-23" d="M229.38,800.77c-15.18-11.34-40.08-18.34-57.64-17.32,34.15,6.79,68.11,38.26,68.11,38.26s14.4.35,20,6.92C251.82,818.66,249,815.38,229.38,800.77Z"/><path class="cls-17" d="M199.75,814.94s11.36-20.32,13.9-39.8,1.18-42.15,2.1-44.4,8.7-3.5,9.59-1.51-3.9,58.75-19.4,86.87S199.75,814.94,199.75,814.94Z"/><path class="cls-24" d="M546.4,838.48c-7.11-49-61.24-81.63-120.91-73C373.82,773,335,809.07,330.08,850.39H547.16A73.67,73.67,0,0,0,546.4,838.48Z"/><path class="cls-21" d="M502.23,785.77C486.62,775,461.47,769,444,770.69c34.39,5.46,83.94,35.41,89.78,41.75C525.33,802.79,522.35,799.62,502.23,785.77Z"/><path class="cls-17" d="M432.75,804.08s-.32-23.28-7.87-41.42-20.07-37.08-20.39-39.49,5.78-7.38,7.55-6.1,26,52.82,26.65,84.93S432.75,804.08,432.75,804.08Z"/><path class="cls-25" d="M73.61,850.39H275.45c-2.83-7.76-8.81-13.44-17.49-17.62-1.43-.69-2.94-1.34-4.51-1.95-2.54-1-7.73-2-13.3-3.73-32.61-7-44.26-12.41-65.75-33.57q-2.4-2.37-4.89-5c-9.79-9.79-22.28-16-34.6-14.35a90.38,90.38,0,0,0-23.83,8.62C70.54,804.78,73.61,850.39,73.61,850.39Z"/><path class="cls-8" d="M232.23,850.39H21.28s0-4.57-2.57-7.13-12.52-13.17-2.57-23.12,39.49-6.75,50.73-12.52S158.38,773.09,232.23,850.39Z"/><path class="cls-26" d="M145.84,807.23c-12.62-4.78-31.13-2-43.06,5.53,24.85-6.47,54.27,9.85,54.27,9.85l12.57-4.79S162.13,813.39,145.84,807.23Z"/><path class="cls-25" d="M330.08,850.39H547.16a73.67,73.67,0,0,0-.76-11.91,74.77,74.77,0,0,0-3.29-13.58,78.92,78.92,0,0,0-15.8-26.69A60,60,0,0,0,483,789c-10,2-19,5.26-28.05,8s-18,5-27.95,5c-17-1-33-6-50-5-14.72,1.34-25.85,9.84-34.3,21a90.59,90.59,0,0,0-6.29,9.56A79.38,79.38,0,0,0,330.08,850.39Z"/><path class="cls-8" d="M594.4,826c-28.31,1.7-56.75-1.08-85,.91-25.75,1.8-52.21,8.1-72.67,23.49H625.21C633.18,821.34,600.29,825.64,594.4,826Z"/><path class="cls-13" d="M650.33,850.39H850.39v-7.12a35.87,35.87,0,0,0-5.36-5.39,41.15,41.15,0,0,0-4-2.88c-8.59-5.73-18.07-7.61-27.75-8-17.38-.61-35.43,3.78-50.2-.08-11.06-3.09-20.56-7.16-30.06-10.48-12-4.18-23.93-7.16-39-5.49-11.18,1.6-20.09,7.16-27.63,14.57a97.72,97.72,0,0,0-9.75,11.35c-1,1.72-1.93,3.48-2.8,5.26A84.59,84.59,0,0,0,650.33,850.39Z"/></g></svg>