<svg id="Recipe" xmlns="http://www.w3.org/2000/svg" viewBox="0 0 142 142"><defs><style>.cls-1{fill:#6c2c2a;}.cls-2{fill:#9c3b2e;}.cls-3{fill:#672725;}.cls-4{fill:#32654d;}.cls-5{fill:#00514b;}</style></defs><g id="background"><rect class="cls-1" x="-707" y="-219" width="850.49" height="850.4"/></g><g id="floating_food_elements" data-name="floating food elements"><path class="cls-2" d="M91.79-.09c-1.59-3,13.21-14,32.31-24.19S160-40.35,161.57-37.38c.29.54,2.36,3.68,2.36,3.68s-18.48,11.85-34.07,20.19C113.57-4.81,93.51,3.93,93.51,3.93S92,.35,91.79-.09Z"/><ellipse class="cls-3" cx="128.72" cy="-14.87" rx="39.92" ry="6.1" transform="translate(22.2 58.91) rotate(-28.12)"/><circle class="cls-2" cx="37.68" cy="68.46" r="15.09"/><circle class="cls-2" cx="143" cy="137.17" r="15.09"/><path class="cls-4" d="M29.17,142.51l-.08.2a.62.62,0,0,1-.8.39h0l-13.49-4.72a.64.64,0,0,1-.39-.82h0l.08-.21a.62.62,0,0,1,.8-.38h0l13.49,4.72a.63.63,0,0,1,.4.8Z"/><path class="cls-4" d="M-14,6.55l-.12-.19a.64.64,0,0,1,.18-.88l13.17-9a.65.65,0,0,1,.89.18l.12.19a.64.64,0,0,1-.18.88l-13.17,9A.65.65,0,0,1-14,6.55Z"/><path class="cls-5" d="M42.74,111.68c-.26.17-.53.33-.8.47A1.67,1.67,0,0,0,42.74,111.68Z"/><path class="cls-5" d="M32.6,93.74a2.38,2.38,0,0,1-.07-2.17,1.64,1.64,0,0,1,2.27-.13,5.28,5.28,0,0,1,1.4,2.11c2.37,5.1,6.13,9.66,7.15,15.18a4.48,4.48,0,0,1,0,2.06,1.83,1.83,0,0,1-1.42,1.36c-1.11.14-2.84-2.27-3.35-3.26C35.79,103.56,34.6,99.42,32.6,93.74Z"/><path class="cls-5" d="M32.53,91.57a1.09,1.09,0,0,1,.33-.27C32.68,91.37,32.55,91.46,32.53,91.57Z"/><path class="cls-5" d="M123.23,73.07a11.51,11.51,0,0,0-5-7.73,8.9,8.9,0,0,0,2.58-7.7,12.92,12.92,0,0,0-3.91-7.32,6.35,6.35,0,0,1-1.11-1.26,6.19,6.19,0,0,1-.56-2.36c-.65-5.19-3.94-10.2-8.84-12-1.08-.41-2.22-.66-3.29-1.09A29.25,29.25,0,0,0,99.41,32,7,7,0,0,0,96,32V32a7.48,7.48,0,0,0-5.12-3,11.65,11.65,0,0,0-6,.88,13.21,13.21,0,0,0-17.85-5,17.67,17.67,0,0,1-2.39,1.28c-.67.26-1.38.38-2.06.6a7.15,7.15,0,0,0-4.14,3.39,6,6,0,0,0-.15,5.29,5,5,0,0,0-2.91,4.68,5,5,0,0,0-5.74,7.56,5.39,5.39,0,0,0,1.68,10.5,5,5,0,0,0,.91,7,4.86,4.86,0,0,0,.87.54c-.39,1.82-2.49,9.77-10.85,18.87-3.35,3.66-8.11,5.92-9.42,6.79a2.24,2.24,0,0,1,1.94.14,5.28,5.28,0,0,1,1.4,2.11l7.15,15.18a4.22,4.22,0,0,1,0,2.06,2.21,2.21,0,0,1-.62.89c3.42-2.3,6.35-7.94,18.27-14a36.54,36.54,0,0,1,23.2-3.15,5.23,5.23,0,0,0,4.51,2.79c.85,5.26,6.22,9.25,11.53,8.88a12.5,12.5,0,0,0,10.92-10.05,11.7,11.7,0,0,0,8.33-10.6,6.35,6.35,0,0,1,.17-1.74A6.45,6.45,0,0,1,120.9,82,11.55,11.55,0,0,0,123.23,73.07Zm-66.07-1L59,66l.35-.09a8.66,8.66,0,0,0,5.13-3.85c.2.3.42.59.63.86l.15.2c-2.91,3.32-8.18,9.21-8.1,9Z"/><path class="cls-4" d="M50.35,73a51,51,0,0,1-8.07,11.48c-3.35,3.66-8.11,5.92-9.42,6.79a2.24,2.24,0,0,1,1.94.14,5.28,5.28,0,0,1,1.4,2.11l7.15,15.18a4.48,4.48,0,0,1,0,2.06,2.21,2.21,0,0,1-.62.89c3.42-2.3,6.35-7.94,18.27-14A35.12,35.12,0,0,1,73.34,94,38.11,38.11,0,0,0,71,84C68.56,75.07,59.54,71.41,50.35,73Z"/><path class="cls-5" d="M123.23,73.07a11.51,11.51,0,0,0-5-7.73,8.9,8.9,0,0,0,2.58-7.7,12.92,12.92,0,0,0-3.91-7.32,6.35,6.35,0,0,1-1.11-1.26,6.19,6.19,0,0,1-.56-2.36c-.65-5.19-3.94-10.2-8.84-12-1.08-.41-2.22-.66-3.29-1.09A29.25,29.25,0,0,0,99.41,32,7,7,0,0,0,96,32V32a7.48,7.48,0,0,0-5.12-3,11.65,11.65,0,0,0-6,.88,13.21,13.21,0,0,0-17.85-5,17.67,17.67,0,0,1-2.39,1.28c-.67.26-1.38.38-2.06.6a7.15,7.15,0,0,0-4.14,3.39,6,6,0,0,0-.15,5.29,5,5,0,0,0-2.91,4.68,5,5,0,0,0-5.74,7.56,5.39,5.39,0,0,0,1.68,10.5,5,5,0,0,0,.91,7,4.86,4.86,0,0,0,.87.54,32.46,32.46,0,0,1-2.78,7.39c9.19-1.62,18.21,2,20.65,11a37.86,37.86,0,0,1,2.35,10.07,37.33,37.33,0,0,1,10.86.46,5.23,5.23,0,0,0,4.51,2.79c.85,5.26,6.22,9.25,11.53,8.88a12.5,12.5,0,0,0,10.92-10.05,11.7,11.7,0,0,0,8.33-10.6,6.35,6.35,0,0,1,.17-1.74A6.36,6.36,0,0,1,120.9,82,11.55,11.55,0,0,0,123.23,73.07Z"/><path class="cls-1" d="M57.16,72.1,59,66l.35-.09a8.66,8.66,0,0,0,5.13-3.85c.2.3.42.59.63.86l.15.2C62.35,66.44,57.08,72.33,57.16,72.1Z"/><path class="cls-4" d="M105.22,52.74a11.27,11.27,0,0,1-.06,1.16,10.05,10.05,0,0,0,.91-4.18c0-5.91-5.13-10.7-11.46-10.7a11.64,11.64,0,0,0-9.54,4.79,12.88,12.88,0,0,1,7.81-2.61C99.7,41.2,105.22,46.37,105.22,52.74Z"/><path class="cls-4" d="M67.62,32.54c6.71-2.23,14,.46,16.4,6a8.74,8.74,0,0,1,.42,1.25,8.37,8.37,0,0,0-.6-4.28c-2.19-5.15-9-7.65-15.22-5.58A11.49,11.49,0,0,0,61,37.22,13.26,13.26,0,0,1,67.62,32.54Z"/><path class="cls-4" d="M90.09,54.9a8.39,8.39,0,0,1-.06,1,9.35,9.35,0,0,0,.82-3.83c0-5.5-4.77-10-10.65-10a10.84,10.84,0,0,0-8.92,4.52,11.94,11.94,0,0,1,7.32-2.46C85,44.17,90.09,49,90.09,54.9Z"/><ellipse class="cls-4" cx="101.31" cy="94.06" rx="10.66" ry="9.96" transform="translate(-2.01 185.9) rotate(-84.51)"/><ellipse class="cls-5" cx="103.86" cy="89.59" rx="11.54" ry="10.78" transform="translate(4.38 184.03) rotate(-84.29)"/><path class="cls-4" d="M92.77,55.58a11,11,0,0,0-8.67,1.74,12,12,0,0,1,6.47-.39c6.2,1.32,10.23,7.09,9,12.88a9.67,9.67,0,0,1-.69,2.09,9.24,9.24,0,0,0,2.24-4.37C102.26,62.15,98.52,56.8,92.77,55.58Z"/><path class="cls-4" d="M111.25,67.43c3.34,6.22,1.94,13.92-3.12,17.18a8.21,8.21,0,0,1-1.17.63,8.27,8.27,0,0,0,4.12-1.33c4.7-3,6-10.17,2.9-15.94a11.49,11.49,0,0,0-8.49-6.26A13.31,13.31,0,0,1,111.25,67.43Z"/></g></svg>