<svg id="music" xmlns="http://www.w3.org/2000/svg" xmlns:xlink="http://www.w3.org/1999/xlink" width="30cm" height="30cm" viewBox="0 0 850.39 850.39"><defs><style>.cls-1{fill:#4d6666;}.cls-2{fill:#445051;}.cls-3{fill:url(#linear-gradient);}.cls-4{fill-rule:evenodd;fill:url(#linear-gradient-2);}.cls-5{fill:#3c8a8c;}.cls-6{fill:#4c5053;}.cls-7{fill:#33312f;}.cls-8{fill:#35363b;}.cls-9{fill:#2a5e5e;}.cls-10{fill:#84807a;}.cls-11{fill:#567271;}.cls-12{fill:#469b9b;}.cls-13{fill:#5c7a79;}</style><linearGradient id="linear-gradient" x1="425.12" y1="718.02" x2="425.12" y2="632.01" gradientUnits="userSpaceOnUse"><stop offset="0" stop-color="#9c5151"/><stop offset="1" stop-color="#445051"/></linearGradient><linearGradient id="linear-gradient-2" x1="605.5" y1="521.41" x2="605.5" y2="699.39" gradientUnits="userSpaceOnUse"><stop offset="0" stop-color="#303029"/><stop offset="1" stop-color="#424242"/></linearGradient></defs><g id="sky"><rect class="cls-1" width="850.39" height="704.6"/><rect class="cls-2" width="850.39" height="704.6"/><rect class="cls-3" x="-0.31" y="630.39" width="850.85" height="82.46"/></g><g id="sun"><path class="cls-4" d="M605.5,526A177.51,177.51,0,0,1,745.8,812.24c-32.47,41.84-243.85,44-276.41,5.2A177.51,177.51,0,0,1,605.5,526Z"/><circle class="cls-5" cx="603.5" cy="704.5" r="55"/><circle class="cls-6" cx="603.5" cy="704.5" r="3.5"/><path class="cls-7" d="M450,703c0-84.92,69.08-154,154-154s154,69.08,154,154c0,21.47-4.42,40.3-12.4,56.45h2.23C755.66,743.24,760,724.4,760,703c0-86-70-156-156-156S448,617,448,703c0,21.4,4.34,40.24,12.17,56.45h2.23C454.42,743.3,450,724.47,450,703Z"/><path class="cls-7" d="M476.25,703a127.75,127.75,0,1,1,242.33,56.45h2.23A128.89,128.89,0,0,0,733.75,703c0-71.54-58.21-129.75-129.75-129.75S474.25,631.46,474.25,703a128.89,128.89,0,0,0,12.94,56.45h2.23A127,127,0,0,1,476.25,703Z"/><path class="cls-7" d="M502.5,703a101.5,101.5,0,1,1,185.81,56.45h2.4a103.5,103.5,0,1,0-173.42,0h2.4A100.9,100.9,0,0,1,502.5,703Z"/></g><g id="water"><rect class="cls-8" y="704" width="850.39" height="146.39"/><path class="cls-9" d="M658.61,704H548.41c-.68,48.8-1,97.6-.7,146.39H659.05C659.67,764.5,658.91,722.48,658.61,704Z"/></g><g id="plane"><path class="cls-10" d="M534,218s157.8-72.57,163.8-75.57,17.14-8.22,17.77-7C716.32,137,699,144,689,149,681.36,152.82,534,218,534,218Z"/></g><g id="sun-2" data-name="sun"><circle class="cls-5" cx="216.5" cy="228.5" r="56.5"/><path class="cls-11" d="M168.26,219.25a56.26,56.26,0,0,1,10.5-32.79,56.49,56.49,0,1,0,83.74,74.83,56.49,56.49,0,0,1-94.24-42Z"/></g><g id="stars"><circle class="cls-12" cx="172.91" cy="157.98" r="1.04"/><circle class="cls-12" cx="94.65" cy="185.03" r="1.04"/><circle class="cls-12" cx="75.86" cy="164.48" r="1.04"/><circle class="cls-12" cx="21.92" cy="92.88" r="1.04"/><circle class="cls-12" cx="51.94" cy="22.8" r="1.04"/><circle class="cls-12" cx="120.49" cy="47.29" r="1.04"/><circle class="cls-12" cx="269.32" cy="40.54" r="1.04"/><circle class="cls-12" cx="225.01" cy="27.06" r="1.04"/><circle class="cls-12" cx="192.58" cy="73.61" r="1.04"/><circle class="cls-12" cx="202.05" cy="118.81" r="1.04"/><circle class="cls-12" cx="214.89" cy="126.83" r="1.04"/><circle class="cls-12" cx="287.78" cy="168.17" r="1.04"/><circle class="cls-12" cx="339.23" cy="74.74" r="1.04"/><circle class="cls-12" cx="363.26" cy="191.77" r="1.04"/><circle class="cls-12" cx="413.72" cy="96.89" r="1.04"/><circle class="cls-12" cx="484.12" cy="195.71" r="1.04"/><circle class="cls-12" cx="393.63" cy="260.89" r="1.04"/><circle class="cls-12" cx="604.48" cy="209.73" r="1.04"/><circle class="cls-12" cx="605.79" cy="140.4" r="1.04"/><circle class="cls-12" cx="538.79" cy="102.94" r="1.04"/><circle class="cls-12" cx="489.1" cy="47.26" r="1.04"/><circle class="cls-12" cx="523.99" cy="17.77" r="1.04"/><circle class="cls-12" cx="628.45" cy="52.4" r="1.04"/><circle class="cls-12" cx="649" cy="38.51" r="1.04"/><circle class="cls-12" cx="701.23" cy="113.4" r="1.04"/><circle class="cls-12" cx="715.36" cy="179.55" r="1.04"/><circle class="cls-12" cx="689.46" cy="280.18" r="1.04"/><circle class="cls-12" cx="810.61" cy="225.17" r="1.04"/><circle class="cls-12" cx="838.87" cy="170.15" r="1.04"/><circle class="cls-12" cx="816.61" cy="122.82" r="1.04"/><circle class="cls-12" cx="765.66" cy="145.08" r="1.04"/><circle class="cls-12" cx="810.83" cy="77.47" r="1.04"/><circle class="cls-12" cx="827.52" cy="65.69" r="1.04"/><circle class="cls-12" cx="816.18" cy="16.7" r="1.04"/><circle class="cls-12" cx="727.8" cy="62.27" r="1.04"/><circle class="cls-12" cx="726.51" cy="15.39" r="1.04"/><circle class="cls-12" cx="502.58" cy="135.26" r="1.04"/><circle class="cls-12" cx="69.33" cy="221.93" r="1.04"/><circle class="cls-12" cx="48.89" cy="306.96" r="1.04"/><circle class="cls-12" cx="132.53" cy="264.66" r="1.04"/><circle class="cls-13" cx="36.74" cy="32.94" r="1.04"/><circle class="cls-13" cx="83.49" cy="38.46" r="1.04"/><circle class="cls-13" cx="74.18" cy="61.73" r="1.04"/><circle class="cls-13" cx="59.17" cy="90.15" r="1.04"/><circle class="cls-13" cx="67.84" cy="100.35" r="1.04"/><circle class="cls-13" cx="61.41" cy="163.92" r="1.04"/><circle class="cls-13" cx="91.27" cy="296.77" r="1.04"/><circle class="cls-13" cx="29.63" cy="161.99" r="1.04"/><circle class="cls-13" cx="22.08" cy="153.48" r="1.04"/><circle class="cls-13" cx="13.25" cy="28.74" r="1.04"/><circle class="cls-13" cx="13.73" cy="47.85" r="1.04"/><circle class="cls-13" cx="89.83" cy="17.51" r="1.04"/><circle class="cls-13" cx="128.36" cy="18.95" r="1.04"/><circle class="cls-13" cx="141.36" cy="86.7" r="0.73"/><circle class="cls-13" cx="91.76" cy="94.16" r="1.04"/><circle class="cls-13" cx="113.11" cy="120.41" r="1.04"/><circle class="cls-13" cx="154.69" cy="207.83" r="1.04"/><circle class="cls-13" cx="74.66" cy="261.13" r="1.04"/><circle class="cls-13" cx="176.2" cy="148.75" r="1.04"/><circle class="cls-13" cx="211.2" cy="94.57" r="1.04"/><circle class="cls-13" cx="126.43" cy="179.33" r="1.04"/><circle class="cls-13" cx="181.1" cy="24.49" r="1.04"/><circle class="cls-13" cx="248.04" cy="14.21" r="1.04"/><circle class="cls-13" cx="237.21" cy="75.54" r="1.04"/><circle class="cls-13" cx="260.41" cy="87.42" r="0.73"/><circle class="cls-13" cx="246.2" cy="122.82" r="0.73"/><circle class="cls-13" cx="227.17" cy="147.14" r="1.04"/><circle class="cls-13" cx="256.47" cy="151.88" r="1.04"/><circle class="cls-13" cx="266.43" cy="139.04" r="1.04"/><circle class="cls-13" cx="274.77" cy="107.25" r="1.04"/><circle class="cls-13" cx="294.36" cy="82.2" r="1.04"/><circle class="cls-13" cx="263.54" cy="62.62" r="1.04"/><circle class="cls-13" cx="695.72" cy="8.92" r="1.04"/><circle class="cls-13" cx="718.92" cy="20.8" r="0.73"/><circle class="cls-13" cx="704.71" cy="56.2" r="0.73"/><circle class="cls-13" cx="733.28" cy="40.62" r="1.04"/><circle class="cls-13" cx="752.87" cy="15.58" r="1.04"/><circle class="cls-13" cx="294.36" cy="34.44" r="0.73"/><circle class="cls-13" cx="314.19" cy="7.47" r="1.04"/><circle class="cls-13" cx="302.95" cy="158.7" r="1.04"/><circle class="cls-13" cx="284.01" cy="180.22" r="1.04"/><circle class="cls-13" cx="329.04" cy="73.53" r="1.04"/><circle class="cls-13" cx="316.19" cy="37.25" r="1.04"/><circle class="cls-13" cx="333.43" cy="159" r="1.04"/><circle class="cls-13" cx="375.84" cy="31.23" r="0.73"/><circle class="cls-13" cx="352.72" cy="21.6" r="1.04"/><circle class="cls-13" cx="349.19" cy="5.54" r="1.04"/><circle class="cls-13" cx="392.53" cy="15.18" r="1.04"/><circle class="cls-13" cx="383.86" cy="106.37" r="1.04"/><circle class="cls-13" cx="400.69" cy="307.98" r="1.04"/><circle class="cls-13" cx="430.85" cy="282.96" r="1.04"/><circle class="cls-13" cx="450.78" cy="252.33" r="1.04"/><circle class="cls-13" cx="485.46" cy="265.17" r="1.04"/><circle class="cls-13" cx="500.68" cy="302.66" r="1.04"/><circle class="cls-13" cx="382.9" cy="75.33" r="1.04"/><circle class="cls-13" cx="417.76" cy="30.99" r="1.04"/><circle class="cls-13" cx="443.02" cy="96.49" r="1.04"/><circle class="cls-13" cx="416.48" cy="122.18" r="0.73"/><circle class="cls-13" cx="433.18" cy="191.53" r="1.04"/><circle class="cls-13" cx="471.71" cy="140.59" r="1.04"/><circle class="cls-13" cx="428.04" cy="149.2" r="1.04"/><circle class="cls-13" cx="473.42" cy="78.51" r="0.73"/><circle class="cls-13" cx="502.77" cy="92.02" r="1.04"/><circle class="cls-13" cx="485.33" cy="119.85" r="1.04"/><circle class="cls-13" cx="523.94" cy="144.82" r="1.04"/><circle class="cls-13" cx="494.72" cy="153.32" r="1.04"/><circle class="cls-13" cx="425.28" cy="229.02" r="1.04"/><circle class="cls-13" cx="463.41" cy="267.31" r="1.04"/><circle class="cls-13" cx="522.89" cy="230.95" r="1.04"/><circle class="cls-13" cx="541.97" cy="252.75" r="1.04"/><circle class="cls-13" cx="544.11" cy="296.42" r="1.04"/><circle class="cls-13" cx="628.02" cy="270.73" r="1.04"/><circle class="cls-13" cx="602.95" cy="244.43" r="1.04"/><circle class="cls-13" cx="625.21" cy="233.73" r="1.04"/><circle class="cls-13" cx="652.85" cy="194.77" r="1.04"/><circle class="cls-13" cx="681.11" cy="256.42" r="1.04"/><circle class="cls-13" cx="715.97" cy="245.72" r="1.04"/><circle class="cls-13" cx="730.96" cy="231.16" r="1.04"/><circle class="cls-13" cx="738.48" cy="265.22" r="1.04"/><circle class="cls-13" cx="784.71" cy="205.29" r="1.04"/><circle class="cls-13" cx="825.38" cy="257.09" r="1.04"/><circle class="cls-13" cx="627.59" cy="241.44" r="1.04"/><circle class="cls-13" cx="555.86" cy="262.41" r="0.75"/><circle class="cls-13" cx="648.68" cy="282.96" r="0.75"/><circle class="cls-13" cx="743.61" cy="301.69" r="0.75"/><circle class="cls-13" cx="783.11" cy="265.84" r="0.75"/><circle class="cls-13" cx="837.8" cy="289.92" r="0.75"/><circle class="cls-13" cx="507.56" cy="189.61" r="1.04"/><circle class="cls-13" cx="528.43" cy="86.86" r="1.04"/><circle class="cls-13" cx="511.09" cy="65.35" r="1.04"/><circle class="cls-13" cx="531" cy="24.17" r="1.04"/><circle class="cls-13" cx="544.17" cy="42.87" r="1.04"/><circle class="cls-13" cx="566" cy="19.75" r="1.04"/><circle class="cls-13" cx="585.26" cy="61.17" r="1.04"/><circle class="cls-13" cx="562.15" cy="80.12" r="1.04"/><circle class="cls-13" cx="573.38" cy="105.8" r="1.04"/><circle class="cls-13" cx="559.9" cy="124.75" r="1.04"/><circle class="cls-13" cx="581.09" cy="143.05" r="1.04"/><circle class="cls-13" cx="589.92" cy="184.71" r="0.82"/><circle class="cls-13" cx="480.32" cy="227.35" r="0.82"/><circle class="cls-13" cx="567.28" cy="169.38" r="1.04"/><circle class="cls-13" cx="553.48" cy="199.48" r="1.04"/><circle class="cls-13" cx="572.5" cy="220.03" r="1.04"/><circle class="cls-13" cx="588.47" cy="153.16" r="1.04"/><circle class="cls-13" cx="604.21" cy="40.62" r="1.04"/><circle class="cls-13" cx="611.59" cy="29.31" r="1.04"/><circle class="cls-13" cx="589.36" cy="16.14" r="1.04"/><circle class="cls-13" cx="632.46" cy="8.84" r="1.04"/><circle class="cls-13" cx="632.46" cy="32.92" r="1.04"/><circle class="cls-13" cx="653.33" cy="17.83" r="1.04"/><circle class="cls-13" cx="637.6" cy="67.27" r="1.04"/><circle class="cls-13" cx="640.49" cy="93.6" r="1.04"/><circle class="cls-13" cx="656.46" cy="91.6" r="1.04"/><circle class="cls-13" cx="644.66" cy="117.68" r="1.04"/><circle class="cls-13" cx="637.2" cy="132.69" r="1.04"/><circle class="cls-13" cx="591.69" cy="83.97" r="1.04"/><circle class="cls-13" cx="795.57" cy="11.65" r="1.04"/><circle class="cls-13" cx="772.46" cy="30.59" r="1.04"/><circle class="cls-13" cx="773.34" cy="68.48" r="1.04"/><circle class="cls-13" cx="802" cy="34.44" r="1.04"/><circle class="cls-13" cx="611.27" cy="107.01" r="0.78"/><circle class="cls-13" cx="615.12" cy="65.83" r="0.78"/><circle class="cls-13" cx="475.56" cy="100.16" r="1.04"/><circle class="cls-13" cx="455.01" cy="31.9" r="1.04"/><circle class="cls-13" cx="478.56" cy="30.56" r="1.04"/><circle class="cls-13" cx="451.4" cy="12.82" r="1.04"/><circle class="cls-13" cx="429.99" cy="63.77" r="1.04"/><circle class="cls-13" cx="359.14" cy="98.66" r="0.73"/><circle class="cls-13" cx="310.98" cy="117.6" r="1.04"/><circle class="cls-13" cx="361.74" cy="173.98" r="1.04"/><ellipse class="cls-13" cx="371.1" cy="227.09" rx="0.72" ry="1.04"/><circle class="cls-13" cx="366.6" cy="141.68" r="1.04"/><circle class="cls-13" cx="392.29" cy="162.56" r="1.04"/><circle class="cls-13" cx="383.52" cy="172.32" r="1.04"/><circle class="cls-13" cx="757.04" cy="222.6" r="1.04"/><circle class="cls-13" cx="751.91" cy="180.27" r="1.04"/><circle class="cls-13" cx="686.54" cy="213.53" r="1.04"/><circle class="cls-13" cx="690.47" cy="172.75" r="1.04"/><circle class="cls-13" cx="812.27" cy="188.8" r="1.04"/><circle class="cls-13" cx="707.38" cy="203.39" r="1.04"/><circle class="cls-13" cx="655.3" cy="168.32" r="1.04"/><circle class="cls-13" cx="322.72" cy="212.32" r="1.04"/><circle class="cls-13" cx="402.57" cy="97.29" r="1.04"/><circle class="cls-13" cx="837.54" cy="105.96" r="1.04"/><circle class="cls-13" cx="838.69" cy="137.19" r="0.73"/><circle class="cls-13" cx="812.81" cy="98.26" r="0.73"/><circle class="cls-13" cx="835.39" cy="23.12" r="1.04"/><circle class="cls-13" cx="837.56" cy="180.22" r="1.04"/><circle class="cls-13" cx="766.17" cy="112.09" r="1.04"/><circle class="cls-13" cx="765.21" cy="81.05" r="1.04"/><circle class="cls-13" cx="798.79" cy="127.9" r="0.73"/><circle class="cls-13" cx="810.34" cy="154.93" r="1.04"/><circle class="cls-13" cx="741.45" cy="104.39" r="0.73"/><circle class="cls-13" cx="748.91" cy="147.41" r="1.04"/><circle class="cls-13" cx="723.73" cy="151.32" r="1.04"/><circle class="cls-13" cx="774.6" cy="168.28" r="1.04"/><circle class="cls-13" cx="784.87" cy="103.02" r="1.04"/><circle class="cls-13" cx="787.47" cy="80.68" r="1.04"/><circle class="cls-13" cx="374.95" cy="48.97" r="1.04"/><circle class="cls-13" cx="98.98" cy="129.88" r="1.04"/><circle class="cls-13" cx="37.89" cy="110.86" r="0.73"/><circle class="cls-13" cx="69.44" cy="212.24" r="1.04"/><circle class="cls-13" cx="61.09" cy="281.12" r="1.04"/><circle class="cls-13" cx="13.33" cy="309.93" r="1.04"/><circle class="cls-13" cx="24.81" cy="258.8" r="1.04"/><circle class="cls-13" cx="152.04" cy="248.61" r="1.04"/><circle class="cls-13" cx="151.32" cy="260.25" r="1.04"/><circle class="cls-13" cx="158.94" cy="298.05" r="1.04"/><circle class="cls-13" cx="316.97" cy="291.52" r="1.04"/><circle class="cls-13" cx="296.85" cy="250.85" r="1.04"/><circle class="cls-13" cx="332.81" cy="247.86" r="1.04"/><circle class="cls-13" cx="349.94" cy="226.88" r="1.04"/><circle class="cls-13" cx="354.22" cy="277.4" r="1.04"/><circle class="cls-13" cx="247.24" cy="298.37" r="1.04"/><circle class="cls-13" cx="57.72" cy="189.21" r="0.73"/><circle class="cls-13" cx="25.45" cy="226.45" r="1.04"/><circle class="cls-13" cx="119.93" cy="223.56" r="0.66"/><circle class="cls-13" cx="387.22" cy="287.67" r="0.66"/><circle class="cls-13" cx="50.1" cy="228.06" r="1.04"/><circle class="cls-13" cx="29.55" cy="279.43" r="1.04"/><circle class="cls-13" cx="156.7" cy="118.57" r="1.04"/><circle class="cls-13" cx="155.01" cy="132.77" r="0.36"/><circle class="cls-13" cx="161.03" cy="96.41" r="1.04"/><circle class="cls-13" cx="174.84" cy="79.07" r="0.73"/><circle class="cls-13" cx="163.28" cy="57.88" r="1.04"/><circle class="cls-13" cx="219.15" cy="39.9" r="0.73"/><circle class="cls-13" cx="118.65" cy="62.06" r="1.04"/><circle class="cls-13" cx="109.09" cy="149.15" r="0.73"/><circle class="cls-13" cx="135.91" cy="12.05" r="0.73"/><circle class="cls-13" cx="665.78" cy="69.44" r="1.04"/><circle class="cls-13" cx="684.48" cy="124.9" r="0.73"/><circle class="cls-13" cx="718.51" cy="74.98" r="1.04"/><circle class="cls-13" cx="620.26" cy="169.06" r="1.04"/><circle class="cls-13" cx="661.36" cy="143.21" r="1.04"/><circle class="cls-13" cx="712.25" cy="129.56" r="0.73"/><circle class="cls-13" cx="688.33" cy="93.28" r="1.04"/><circle class="cls-13" cx="670.91" cy="44.07" r="0.73"/><circle class="cls-13" cx="58.52" cy="52.99" r="0.73"/><circle class="cls-13" cx="42.15" cy="70.16" r="1.04"/></g></svg>