<svg id="Notes" xmlns="http://www.w3.org/2000/svg" viewBox="0 0 150.4 150.4"><defs><style>.cls-1{fill:#585faa;}.cls-2{fill:#524fa1;}.cls-3{fill:#4d3f99;}.cls-4{fill:#48348d;}.cls-5{fill:#3c2d72;}.cls-6{fill:#221c3e;}.cls-7{fill:#453995;}.cls-8{fill:#6f60aa;}.cls-9{fill:#211f3f;}.cls-10{fill:none;}.cls-11{fill:#534f9f;}.cls-12{fill:#443682;}.cls-13{fill:#484489;}.cls-14{fill:#0c1e40;}</style></defs><g id="sky"><rect class="cls-1" x="-700.6" y="-493.5" width="850.4" height="850.4"/></g><g id="mountain"><path class="cls-2" d="M-699.9,120h850V60c0-19.9.2-76.7.2-96.6,0-18.4-.2,0-.2-18.4-40,27-206,48-275,25s-86-22-127-22-157.3-20.8-222-59c-17.4-10.3-31.9-14.8-45.3-15.2-16.6-.6-31.6,4.9-48.8,13.2-19.4,9.4-132,53-132,53V120Z"/></g><g id="hills"><path class="cls-3" d="M-700.6,73.5s120,9,222,0,178,14,306,13,236.4-13,322.4,5V142l-850.4-.5Z"/><path class="cls-4" d="M-700.6,175.5l302.4,2.9,12.6.1q267.45,0,535.4.3V113.6c-75,11-247.4,18.9-404.4,1.9-50.3-5.5-114.3-8.4-178-10-135.1-3.3-268,.1-268,.1Z"/><path class="cls-5" d="M-700.6,249.5c184.7,8.4,368.9,16.4,553.6,24.8l47.4,2.1c85.7-10.3,163.7-20.2,249.4-30.5V153.1s-23.4,2.3-128.4,4.3c-36.8.7-84.8-1.4-140-3.8-102-4.5-228.8-9.9-356-.2-207.9,15.9-226-9-226-9,.1,24.3-.1,22.3,0,46.6C-700.5,201.7-700.6,238.9-700.6,249.5Z"/></g><g id="shadow"><path class="cls-6" d="M-83.1,261.5s38.6-55.1,56.6-77.1,26-27,35-27,39.5-.5,39.5-.5,8-19,28-35c0,0-8.5,9.5-15.5,34.5l-12.6.6s-19.7,3.9-66.7,99.9c0,0-26.2,2.2-45.2,3.2Z"/></g><g id="pencil"><path class="cls-7" d="M76.4-493.5V44.9a14.49,14.49,0,0,1,12-6.4,13.1,13.1,0,0,1,12,8v-540Z"/><polygon class="cls-8" points="100.4 46.3 98.9 -253.3 98.9 -493.7 100.4 -493.7 100.4 46.3"/><path class="cls-9" d="M52.4-493.5v537s4-7,12-6,11,9,11,9a14,14,0,0,1,1-1.6V-493.5Z"/><polygon class="cls-10" points="86.8 88.5 66.5 88.5 76.4 120.5 86.8 88.5"/><path class="cls-11" d="M100.4,46.5s-2-8-12-8-12,6-12,6-4.5-6.4-12-7c-8-.7-11,4-12,6l14,45H86.7Z"/><path class="cls-12" d="M64.4,37.5c-8-.7-11,4-12,6l14,45h8.7c.1-14.7,1.1-29.1,1.2-44A16.73,16.73,0,0,0,64.4,37.5Z"/><path class="cls-13" d="M83.3,88.5h3.5l13.6-42S88,73.5,83.3,88.5Z"/><polygon class="cls-6" points="86.8 88.5 66.5 88.5 76.4 120.5 86.8 88.5"/><path class="cls-14" d="M90.7,38.4a16.92,16.92,0,0,0-5.5,0A14.21,14.21,0,0,0,80,40.3a12,12,0,0,0-3.6,3.5,21.58,21.58,0,0,0-5.1-4.4,14.06,14.06,0,0,0-6.9-2.2,14.43,14.43,0,0,0-7.1,1.2,10.55,10.55,0,0,0-4.9,5.1,10.81,10.81,0,0,1,5.1-4.8,13.64,13.64,0,0,1,6.9-.9A15.81,15.81,0,0,1,71,40.1a19.32,19.32,0,0,1,5.2,4.7l.1.1a.37.37,0,0,0,.5-.2h0A10.63,10.63,0,0,1,80.4,41a14.69,14.69,0,0,1,4.9-1.9,23.53,23.53,0,0,1,5.3-.2,13.22,13.22,0,0,1,5.1,1.6A11.64,11.64,0,0,0,90.7,38.4Z"/></g></svg>