<svg id="music" xmlns="http://www.w3.org/2000/svg" xmlns:xlink="http://www.w3.org/1999/xlink" viewBox="0 0 325 325"><defs><style>.cls-1{fill:#4d6666;}.cls-2{fill:#445051;}.cls-3{fill:url(#linear-gradient);}.cls-4{fill-rule:evenodd;fill:url(#linear-gradient-2);}.cls-5{fill:#3c8a8c;}.cls-6{fill:#4c5053;}.cls-7{fill:#33312f;}.cls-8{fill:#35363b;}.cls-9{fill:#2a5e5e;}</style><linearGradient id="linear-gradient" x1="51.61" y1="-357.4" x2="51.61" y2="-271.39" gradientTransform="matrix(1, 0, 0, -1, 0, -136)" gradientUnits="userSpaceOnUse"><stop offset="0" stop-color="#9c5151"/><stop offset="1" stop-color="#445051"/></linearGradient><linearGradient id="linear-gradient-2" x1="231.99" y1="-160.79" x2="231.99" y2="-338.77" gradientTransform="matrix(1, 0, 0, -1, 0, -136)" gradientUnits="userSpaceOnUse"><stop offset="0" stop-color="#303029"/><stop offset="1" stop-color="#424242"/></linearGradient></defs><g id="sky"><rect class="cls-1" x="-373.51" y="-496.62" width="850.39" height="704.6"/><rect class="cls-2" x="-373.51" y="-496.62" width="850.39" height="704.6"/><rect class="cls-3" x="-373.82" y="133.77" width="850.85" height="82.46"/></g><g id="sun"><path class="cls-4" d="M232,29.38a177.51,177.51,0,0,1,140.3,286.24c-32.47,41.84-243.85,44-276.41,5.2A177.52,177.52,0,0,1,232,29.38Z"/><circle class="cls-5" cx="229.99" cy="207.88" r="55"/><circle class="cls-6" cx="229.99" cy="207.88" r="3.5"/><path class="cls-7" d="M76.49,206.38c0-84.92,69.08-154,154-154s154,69.08,154,154c0,21.47-4.42,40.3-12.4,56.45h2.23c7.83-16.21,12.17-35,12.17-56.45,0-86-70-156-156-156s-156,70-156,156c0,21.4,4.34,40.24,12.17,56.45h2.23C80.91,246.68,76.49,227.85,76.49,206.38Z"/><path class="cls-7" d="M102.74,206.38a127.75,127.75,0,1,1,242.33,56.45h2.23a128.82,128.82,0,0,0,12.94-56.45c0-71.54-58.21-129.75-129.75-129.75S100.74,134.84,100.74,206.38a129,129,0,0,0,12.94,56.45h2.23A127,127,0,0,1,102.74,206.38Z"/><path class="cls-7" d="M129,206.38A101.5,101.5,0,1,1,314.8,262.83h2.4a103.5,103.5,0,1,0-173.42,0h2.4A100.89,100.89,0,0,1,129,206.38Z"/></g><g id="water"><rect class="cls-8" x="-373.51" y="207.38" width="850.39" height="146.39"/><path class="cls-9" d="M285.1,207.38H174.9c-.68,48.8-1,97.6-.7,146.39H285.54C286.16,267.88,285.4,225.86,285.1,207.38Z"/></g></svg>