<svg id="Food" xmlns="http://www.w3.org/2000/svg" viewBox="0 0 210.39 210.39"><defs><style>.cls-1{fill:#2e454a;}.cls-2{fill:#6a5b35;}.cls-3{fill:#8c7b66;}.cls-4{fill:#647d88;}.cls-5{fill:#4c5b65;}</style></defs><g id="background"><rect class="cls-1" x="-605" y="-323" width="850.49" height="850.4"/></g><g id="fork_pasta" data-name="fork pasta"><path class="cls-2" d="M65.62,171.34c.18-.15,1.31-1.72,2.66-3.62-3.47-11.21-7.14-22.39-10-33.72C58.26,134,65,168,65.62,171.34Z"/><path class="cls-3" d="M64.55,128.42s-6.8,2.34-7,2.47c.07.47.67,3.11.67,3.11,2.88,11.33,6.55,22.51,10,33.72,2.16-3.06,4.9-7,5.15-7.19C72.43,157.17,65.39,131.47,64.55,128.42Z"/><path class="cls-2" d="M80.33,261.65c-.78-12.88-1.3-23.65-1.75-33-.52-11-1-19.73-1.59-27.37-2.26-25.74-6.28-25.83-10.26-38.57-1.3.95-1.64-3.54-1.86-3.46.3,1.62,6.74,40.32,6.71,69.75,0,12.76,1.35,28.2,2.72,48l-1,2.55C77.63,274.32,80.43,261.39,80.33,261.65Z"/><path class="cls-4" d="M232.05-54.6c-1.81,1.24-11.06,12.46-17,18.75s-4.89,16.43-4.89,16.43c-3.49,7-22,16.08-38.1,21.32S131.86,13.44,113,44.19s-49.29,64.66-65,81.09C35.13,138.7,29.8,143.8,31.55,147c1.92,3.46,7,0,11.88-4.89,2.19-2.19,40.07-39.69,47.19-47.89,13.26-15.26,26-30.7,32.14-38.24,2.1-2.57,6.59-2.12,8.81-.19a5.79,5.79,0,0,1,.58,7.89c-2,2.46-5.31,6.17-10.43,12C108.23,91.08,90.11,109.46,76,123.32c2.31,1.56,6.25,2.16,8.61,4.74,6.7-6,13.92-12.76,21.15-20C125,88.83,135.56,77.23,141.3,70.78c2-2.28,4.67-3.09,7.07-1.22h0a5.78,5.78,0,0,1,1,8.1,5.07,5.07,0,0,1-.49.55c-10.9,10.79-25.09,26-40.46,40.43-6.19,5.8-12.43,11.46-18.27,16.66a70.8,70.8,0,0,1,4.42,8.06c6.71-5.75,14.06-12.11,21.42-18.55,16.89-14.74,34.92-31.58,42.36-39.67a5.77,5.77,0,0,1,7.76-.66h0a5.76,5.76,0,0,1,1.08,8.07,4,4,0,0,1-.26.32c-20.89,23.45-49.14,45.83-68.56,60.21.89,2.73,1.09,5.55,1.8,8.65,14-9.93,34-24.54,56.35-42.53,43-34.6,56.74-68,60.93-90.76S222,2.58,229.35-5.11c5.35-5.6,9.11-3.16,17.31-8.75V-55.08C241.36-57,235.48-56.95,232.05-54.6Z"/><path class="cls-4" d="M77,167.93l-.16.12c-3.5,2.8-1.92,7.22,1.4,7S85.15,172,91.12,168c-.88-2.89-1.11-6.32-2.1-8.8C83,163.51,78.11,167.07,77,167.93Z"/><path class="cls-4" d="M75.13,134.71a20.71,20.71,0,0,0-6.87-5.6c-.25.23-18.27,17.15-20.19,18.78-7,5.94-.7,9,3.84,5.94C54.61,152,73,136.53,75.13,134.71Z"/><path class="cls-4" d="M80.43,142c-3,2.65-18.89,16.24-19.43,16.69-5.57,4.64-.12,8.34,4.53,6.5,3.73-1.47,15.63-12.21,19-15.27C83,147,81.77,144.26,80.43,142Z"/><path class="cls-5" d="M89,159.19c-2,1.4-3.8,2.72-5.43,3.9A81.29,81.29,0,0,1,85.1,172c1.73-1.12,3.68-2.48,6-4C90.22,165.1,90,161.67,89,159.19Z"/><path class="cls-5" d="M68.26,129.11l-4.35,4.07a41.65,41.65,0,0,1,6.72,5.33c2.24-1.88,3.94-3.32,4.5-3.8A20.71,20.71,0,0,0,68.26,129.11Z"/><path class="cls-5" d="M80.43,142l-4,3.49a49,49,0,0,1,4.17,8c1.7-1.51,3.13-2.8,4-3.58C83,147,81.77,144.26,80.43,142Z"/><path class="cls-3" d="M100,158.5C97.1,143.71,76.77,102.1,59.43,119c-2.77,2.37-3.17,10-.45,16.92.21-.19,4-3.83,5.9-5.6-1.6-13,42.5,33.31,25.5,100.83,0-15.51-12.37-55.44-13.11-57.91-.35.1-3.78-12.44-4-13.21-.51.42-3.64,2.82-6,4.53,4,12.74,9.48,33.69,9.33,32.23,3.33,12.84,6.2,27.13,8.69,51.11-1.47,4.32-8.62,24.21-12,31.7-4.9,12.31-25.18,64.29-27.42,89.32-4.84,54,17.66,106.68,18.85,108.78l11.51-6.36c-.13-.23-5.14-31.56-7.18-38.11,0,0,11.69-45.08,18.5-77.92C92.43,333,97.1,305.38,94,266.05c-.22-2.86-.46-5.62-.69-8.26,2.15-8.06,7.69-25.56,8.5-47.89a136.07,136.07,0,0,0,1.08-13.67A178.09,178.09,0,0,0,100,158.5Z"/><path class="cls-2" d="M62.07,119.68s21.26-.94,35.07,50.11C97.14,169.79,86.19,116.54,62.07,119.68Z"/><path class="cls-2" d="M94.1,206c-4.29,29.4-11.89,48.72-21,73.65C33.21,389.16,53.61,440.17,64.3,439c16.91-1.82,8-.53,8.47-7.6-17.67,8.43-20.64-36.16-16-74.64C62.62,308.16,94.43,259.19,94.1,206Z"/><path class="cls-5" d="M189.34,82.62s37.37-54,13.47-69.6c-30.63-20-72.55,17.37-72.55,17.37,14.87-10.65,46.21-21,62.76-8.07C211,36.36,189.34,82.62,189.34,82.62Z"/></g></svg>