<svg id="Places" xmlns="http://www.w3.org/2000/svg" xmlns:xlink="http://www.w3.org/1999/xlink" viewBox="0 0 265 265"><defs><style>.cls-1{fill:#284d87;}.cls-2{fill:#293747;}.cls-3{fill:#263e5f;}.cls-4{fill:#264169;}.cls-5{fill:#323e4d;}.cls-6{fill:#c88348;}.cls-7{fill:#733e2f;}.cls-8{fill:#6e3b2c;}.cls-9{fill:#69372b;}.cls-10{fill:#5e592f;}.cls-11{fill:#59552e;}.cls-12{fill:#6b6536;}.cls-13{fill:url(#radial-gradient);}.cls-14{fill:#8f4532;}.cls-15{fill:#8f4614;}.cls-16{fill:#827a3f;}.cls-17{fill:#918841;}.cls-18{fill:#7e4333;}.cls-19{fill:#827b3f;}.cls-20{fill:#726f3a;}</style><radialGradient id="radial-gradient" cx="84.54" cy="-523.2" r="58.58" gradientTransform="matrix(1, 0, 0, -1, 0, -318.79)" gradientUnits="userSpaceOnUse"><stop offset="0" stop-color="#9e5726"/><stop offset="0.47" stop-color="#995425"/><stop offset="1" stop-color="#8c4d22"/></radialGradient></defs><g id="background"><rect class="cls-1" x="-508.53" y="-585.4" width="850.39" height="850.39"/></g><g id="tree"><path class="cls-2" d="M114.94-86.33c-.42-2.21-1-4.6-2.78-6s-5.09-.69-5.33,1.54a145.69,145.69,0,0,0-4.7-19.77c-1.13-3.6-3.33-8.74-5.58-7.94-1.44.52-.48,8.83-3.85,15.54-1.28,2.53-.78,5.61-1.2,8.41A40.58,40.58,0,0,1,84.74-77.4c-.29-8.08-.56-16.32,1.61-24.11,2-7.08,5.34-14.74,7.21-21.85,2.76-10.53,5.35-29.65.85-34.36-1.42-1.48.21-6.61-1.17-13.8-2.57-13.38-10.17-27.4-10.17-21.19,0,4.06-2.57,5.24-.84,14.27-1.94.71-5.37,2.64-11.13,17.15,4.68-10.5,9.48-22.11,6.21-33.11-1.43-4.85-4.37-9.26-5-14.28-.57-4.34-.1-10-4.16-11.67a1.82,1.82,0,0,0-1.61,0,2.2,2.2,0,0,0-.71,1.7c-.3,3.4-.26,6.83-.38,10.24A104.64,104.64,0,0,1,62-185.2c.52-4.94-2.5-14.18-4.76-13.61s-1.91,5-1.41,7.58c-.14-1.2-1.84-1.63-2.88-1a5.34,5.34,0,0,0-1.93,3c-.84,2.29-1.63,4.59-2.4,6.9-.12-1-.25-1.93-.4-2.89-.39-2.43-1-5-2.57-6.83a6.33,6.33,0,0,1-.84-1.09,4.21,4.21,0,0,1-.34-1.53q-.43-4.72-.88-9.46a34.9,34.9,0,0,0-1.81-9.59,2.9,2.9,0,0,0-1-1.48,2,2,0,0,0-2.56.86,5.81,5.81,0,0,0-.7,2.85,145.18,145.18,0,0,0,0,17.7,11.89,11.89,0,0,1,0,2.6,21.82,21.82,0,0,1-.7,2.39,20.57,20.57,0,0,0-.44,6.86c.16,3.06.29,6.37-.78,9.15l-1.14-.66a30.06,30.06,0,0,0-.64-11.49c-.26-.87-.59-1.73-.77-2.62a20.81,20.81,0,0,1-.28-2.36,54.44,54.44,0,0,0-2.78-13.22,11.92,11.92,0,0,0-1.41-3,1.53,1.53,0,0,0-.79-.65c-.76-.2-1.34.64-1.64,1.36-2.17,5.23-2.46,11-2.51,16.68,0,2.94,0,5.87.09,8.8a3.23,3.23,0,0,0-3.26.84c-1.2,1.31-1.39,3.23-1.52,5l-1.11,15a11.55,11.55,0,0,0-4.17-7.39,7.87,7.87,0,0,1-1.51-1.37A17.72,17.72,0,0,1,11-170.3a2,2,0,0,0-2.14-1.2,2,2,0,0,0-1,1c-1.13,1.94-.93,4.36-.56,6.57.57,3.55,1.48,7.06,1.72,10.65s-.23,7.35-2.19,10.37a31.25,31.25,0,0,0-2.5-8,4.37,4.37,0,0,0-1.52-2A3.06,3.06,0,0,0-.89-152a8.54,8.54,0,0,0-1.53,3.77c-.6,2.61-1.12,5.24-1.63,7.88-.68-4.44-4.23-8.45-5.86-12.86-2.1-5.66-1-11.92-.63-17.94a5.86,5.86,0,0,0-.81-4.08c-1.4-1.76-4.37-1.39-6,.16s-2.27,3.85-2.84,6a55.09,55.09,0,0,0-4.23-19.57,4.72,4.72,0,0,0-1.44-2.15,1.72,1.72,0,0,0-2.34.2,41.38,41.38,0,0,0-5-13.1c-1.22-2-3.16-4.2-5.48-3.75-1.32,3.87.51,8,1.88,11.87a53.7,53.7,0,0,1,2.71,11.73c-.67-.53-1.61-1.92-2.42-.23.1,4,2,8,1,11.93-1.35,5.41-7.79,8.59-8.71,14,0-.09-.11-.17-.15-.26-1.73-3.26-1.35-7.17-1.38-10.86a44.9,44.9,0,0,0-1.76-12.08c-.68-2.38-2.53-5.23-4.89-4.47A48.06,48.06,0,0,0-62-205.09c-.92-1.12-2.47-2.28-3.66-1.46a3,3,0,0,0-.9,2.33,29,29,0,0,0,1.3,10.31,8.65,8.65,0,0,1,.67,3.44c-.07.74-.36,1.44-.5,2.17a11,11,0,0,0,.29,4.23q1.47,7.22,2.93,14.43c-1.91-3.66-3.85-7.31-5.78-11-1.11-2.1-3.87-5.49-4.78-7.68-4.5-10.81-5.25-6.1-10.87-15.61a1.4,1.4,0,0,0-1.47-.55c-.88.21-1,1.4-.89,2.3a116.82,116.82,0,0,0,3.88,18.3,68.51,68.51,0,0,0-10.49-10.36c-2.45-2-5-4.06-8.09-4.92-1.32-.37-2.7-.51-4-.91-2.49-.75-4.63-2.37-7.1-3.17-1.63-.53-4-.32-4.36,1.35-.26,1.1.53,2.15,1.3,3,2.79,3,6,5.59,9,8.38a89.93,89.93,0,0,1,11.32,12.79c-5.86-1-10.46-5.89-16.28-7.12a1.39,1.39,0,0,0-1.16.13,1.13,1.13,0,0,0-.33.77,5.31,5.31,0,0,0,1.16,3.4c7,10.75,19.9,16.08,28.71,25.41,1,1.09,2,2.25,3,3.41l-19.78-11.6a5.61,5.61,0,0,0-2.87-1,2,2,0,0,0-2,1.9,72,72,0,0,0-9.69-4.48c-1.11-.43-2.54-.76-3.34.12s-.42,2,0,3c2,4.3,6.27,7.05,10.3,9.57-1,1.74.41,3.89,1.94,5.21a22.89,22.89,0,0,0,6,3.74c2.49,1,5.15,1.66,7.64,2.69a24,24,0,0,1,10.59,8.63A5.08,5.08,0,0,0-78.7-129a23.15,23.15,0,0,0,4.47,3c3.2,2,5.94,4.63,9,6.84-.35,3.9.9,7.87,2.65,11.42,1.42,2.87,3.16,5.57,4.73,8.35a14.07,14.07,0,0,0-7.49-4.51,8.66,8.66,0,0,1-3.15-.91A6.26,6.26,0,0,1-70-106.53a139.2,139.2,0,0,0-12-14.66,23.48,23.48,0,0,0-6.89-5.56c-3-1.39-6.68-1.69-8.9-4.15-1.21-1.34-1.78-3.13-2.65-4.73s-2.56-3.43-4.09-3.2,0,5.14.43,7.68a66.4,66.4,0,0,0,5,16.41c-6.53-8.26-11-18.33-19.14-25a5.16,5.16,0,0,0-3.33-1.5c-2.47.12-3.56,3.18-3.7,5.65a29.09,29.09,0,0,0,2.38,13.21c.78,1.78,1.75,3.5,2.36,5.35.52,1.6.76,3.28,1.18,4.91,1.37,5.33,4.55,10,7.66,14.54a7.37,7.37,0,0,0-3-1.61,2.53,2.53,0,0,0-2.87,1.41,3.58,3.58,0,0,0,.56,2.7A36.25,36.25,0,0,0-99.43-78.82c4.2,1.8,8.75,2.81,12.72,5.08s7.23,5.76,11.44,7.56A52,52,0,0,0-67.4-64,43.13,43.13,0,0,1-61-61.88,53.21,53.21,0,0,1-44.38-48.56c2.6,3.25,4.68,6.88,7,10.33a85.15,85.15,0,0,0,20,20.83A31.16,31.16,0,0,1-35.94-30.68,12.26,12.26,0,0,0-38-33.41a3.18,3.18,0,0,0-3.19-.72q-3.47-4.08-7.13-8c-2.86-3-5.93-6.08-9.84-7.52-1.43-.53-2.94-.82-4.35-1.39a28.78,28.78,0,0,1-5.73-3.51A74.9,74.9,0,0,0-77-59.87c-1-.52-2.49-.87-3,.14a2.06,2.06,0,0,0,0,1.3c.79,3.46,2.88,6.47,5.18,9.17,5.18,6.09,11.53,11,17.41,16.46q1.68,1.56,3.34,3.15c-6.51-.89-12.44-4.83-17.06-9.6C-76.32-44.61-80.24-51-84.85-56.9c-.88-1.13-2.4-2.33-3.55-1.49-.94.67-.72,2.11-.35,3.2A36.39,36.39,0,0,0-82.1-43.36c-4.71-2.87-7.67-8-12.27-11a39.43,39.43,0,0,1-4.46-2.88c-2.77-2.38-4-6.24-7-8.34a2.07,2.07,0,0,0-1.28-.48c-1.24.09-1.48,1.81-1.25,3a32.58,32.58,0,0,0,2.6,7.63,63.06,63.06,0,0,0,11.54,17,13.71,13.71,0,0,0-5.06-1.84,1.37,1.37,0,0,0-.87.08c-.59.35-.36,1.25,0,1.83,1.54,2.35,4.14,3.74,6.4,5.41C-90-30.19-87-26.51-83.2-23.83A41.18,41.18,0,0,0-72-18.64a102,102,0,0,0,17.75,4l1.05.14c-1,.29-2.05.62-3.06,1a5.26,5.26,0,0,0-2.42,1.41c-.39.46-.61,1-1,1.53A6.66,6.66,0,0,1-61.42-9.1a116.24,116.24,0,0,0-15.85,13A19.75,19.75,0,0,0-82,10a2.85,2.85,0,0,0,0,2.85c.87,1,2.55.59,3.77,0,8-3.87,15.16-9.64,23.8-11.5a2.3,2.3,0,0,0,2.16,2.28,6.42,6.42,0,0,0,3.34-.85c10.92-5,21.55-11.5,33.48-13.07l.8-.09C-8.59-7,2.81.88,11.57,17,39.19,67.72,62.73,143.71,70,192.51s12.84,11.56,12.84,11.56S80.77,192.81,77,175.71a1.67,1.67,0,0,0,1,.4c1.29,0,1.81-1.66,2-3l3.12-26.77a23.21,23.21,0,0,0,.16-6.23c-.21-1.1-.47-2.2-.79-3.28-1.25-4.72-1.24-9.67-2-14.49-8-48-17-96.22-29-143.62a21.11,21.11,0,0,0,2.53-1,17.87,17.87,0,0,0,8.34-8c2.15,3.64,5.07,6.8,9.08,7.75L79.09-11.4c6.41.18,11.51-5.46,14.2-11.28s4-12.35,7.8-17.52c2.57-3.48,6.11-6.13,8.82-9.5C117.89-59.61,117.33-73.82,114.94-86.33Z"/><path class="cls-3" d="M38.58,77.45c15.09,40.23,26.67,83.34,31.39,115C77.25,241.26,82.81,204,82.81,204s-2.08-11.26-5.87-28.36a1.67,1.67,0,0,0,1,.4c1.29,0,1.81-1.66,2-3l3.12-26.77a23.21,23.21,0,0,0,.16-6.23c-.21-1.1-.47-2.2-.79-3.28-1.25-4.72-1.24-9.67-2-14.49q-1.52-9.09-3.08-18.19A115.29,115.29,0,0,1,38.58,77.45Z"/><path class="cls-3" d="M26.88-82a10.8,10.8,0,0,0,3-7c2-29.29,16.6-11.65,41-34.79,9.9-9.41,6.93-22,2.71-40.61-3.28-14.53,1.8-41-6.62-56.09a1.29,1.29,0,0,0-.41.16,2.2,2.2,0,0,0-.71,1.7c-.3,3.4-.26,6.83-.38,10.24A104.64,104.64,0,0,1,62-185.21c.52-4.94-2.5-14.18-4.76-13.61s-1.91,5-1.41,7.58c-.14-1.2-1.84-1.63-2.88-1a5.34,5.34,0,0,0-1.93,3c-.84,2.29-1.63,4.59-2.4,6.9-.12-1-.25-1.93-.4-2.89-.39-2.43-1-5-2.57-6.83a6.33,6.33,0,0,1-.84-1.09,4.21,4.21,0,0,1-.34-1.53q-.44-4.73-.88-9.46a34.9,34.9,0,0,0-1.81-9.59,2.9,2.9,0,0,0-1.05-1.48,2,2,0,0,0-2.56.86,5.81,5.81,0,0,0-.7,2.85,145.18,145.18,0,0,0,0,17.7,11.89,11.89,0,0,1,0,2.6,21.82,21.82,0,0,1-.7,2.39,20.57,20.57,0,0,0-.44,6.86c.16,3.06.29,6.37-.78,9.15l-1.14-.66a30.06,30.06,0,0,0-.64-11.49c-.26-.87-.59-1.73-.77-2.62a20.81,20.81,0,0,1-.28-2.36,54.44,54.44,0,0,0-2.78-13.22,11.92,11.92,0,0,0-1.41-3,1.53,1.53,0,0,0-.79-.65c-.76-.2-1.34.64-1.64,1.36-2.17,5.23-2.46,11-2.51,16.68,0,2.94,0,5.87.09,8.8a3.23,3.23,0,0,0-3.26.84c-1.2,1.31-1.39,3.23-1.52,5l-1.11,15a11.57,11.57,0,0,0-4.19-7.38,7.87,7.87,0,0,1-1.51-1.37A17.72,17.72,0,0,1,11-170.3a2,2,0,0,0-2.14-1.2,2,2,0,0,0-1,1c-1.13,1.94-.93,4.36-.56,6.57.57,3.55,1.48,7.06,1.72,10.65s-.23,7.35-2.19,10.37a31.25,31.25,0,0,0-2.5-8,4.37,4.37,0,0,0-1.52-2A3.06,3.06,0,0,0-.89-152a8.54,8.54,0,0,0-1.53,3.77c-.6,2.61-1.12,5.24-1.63,7.88-.68-4.44-4.23-8.45-5.86-12.86-2.1-5.66-1-11.92-.63-17.94a5.86,5.86,0,0,0-.81-4.08c-1.4-1.76-4.37-1.39-6,.16s-2.27,3.85-2.84,6a55.09,55.09,0,0,0-4.23-19.57,4.72,4.72,0,0,0-1.44-2.15,1.72,1.72,0,0,0-2.34.2,41.38,41.38,0,0,0-5-13.1c-1.22-2-3.16-4.2-5.48-3.75-1.32,3.87.51,8,1.88,11.87a53.7,53.7,0,0,1,2.71,11.73c-.67-.53-1.61-1.92-2.42-.23.1,4,2,8,1,11.93-1.35,5.41-7.79,8.59-8.71,14,0-.09-.11-.17-.15-.26-1.73-3.26-1.35-7.17-1.38-10.86a44.9,44.9,0,0,0-1.76-12.08c-.68-2.38-2.53-5.23-4.89-4.47A48.06,48.06,0,0,0-62-205.09c-.92-1.12-2.47-2.28-3.66-1.46a3,3,0,0,0-.9,2.33,29,29,0,0,0,1.3,10.31,8.65,8.65,0,0,1,.67,3.44c-.07.74-.36,1.44-.5,2.17a11,11,0,0,0,.29,4.23q1.47,7.22,2.93,14.43c-1.91-3.66-3.85-7.31-5.78-11-1.11-2.1-3.87-5.49-4.78-7.68-4.5-10.81-5.25-6.1-10.87-15.61a1.4,1.4,0,0,0-1.47-.55c-.88.21-1,1.4-.89,2.3a116.82,116.82,0,0,0,3.88,18.3,68.51,68.51,0,0,0-10.49-10.36c-2.45-2-5-4.06-8.09-4.92-1.32-.37-2.7-.51-4-.91-2.49-.75-4.63-2.37-7.1-3.17-1.63-.53-4-.32-4.36,1.35-.26,1.1.53,2.15,1.3,3,2.79,3,6,5.59,9,8.38a89.93,89.93,0,0,1,11.32,12.79c-5.86-1-10.46-5.89-16.28-7.12a1.39,1.39,0,0,0-1.16.13,1.13,1.13,0,0,0-.33.77,5.31,5.31,0,0,0,1.16,3.4c7,10.75,19.9,16.08,28.71,25.41,1,1.09,2,2.25,3,3.41l-19.78-11.6a5.61,5.61,0,0,0-2.87-1,2,2,0,0,0-2,1.9,72,72,0,0,0-9.69-4.48c-1.11-.43-2.54-.76-3.34.12s-.42,2,0,3c2,4.3,6.27,7.05,10.3,9.57-1,1.74.41,3.89,1.94,5.21a22.89,22.89,0,0,0,6,3.74c2.49,1,5.15,1.66,7.64,2.69a24,24,0,0,1,10.59,8.63A5.08,5.08,0,0,0-78.7-129a23.15,23.15,0,0,0,4.47,3c3.2,2,5.94,4.63,9,6.84-.35,3.9.9,7.87,2.65,11.42,1.42,2.87,3.16,5.57,4.73,8.35a14.07,14.07,0,0,0-7.49-4.51,8.66,8.66,0,0,1-3.15-.91A6.26,6.26,0,0,1-70-106.53a139.2,139.2,0,0,0-12-14.66,23.48,23.48,0,0,0-6.89-5.56c-3-1.39-6.68-1.69-8.9-4.15-1.21-1.34-1.78-3.13-2.65-4.73s-2.56-3.43-4.09-3.2,0,5.14.43,7.68a66.4,66.4,0,0,0,5,16.41c-6.53-8.26-11-18.33-19.14-25a5.16,5.16,0,0,0-3.33-1.5c-2.47.12-3.56,3.18-3.7,5.65a29.09,29.09,0,0,0,2.38,13.21c.78,1.78,1.75,3.5,2.36,5.35.52,1.6.76,3.28,1.18,4.91,1.37,5.33,4.55,10,7.66,14.54a7.37,7.37,0,0,0-3-1.61,2.53,2.53,0,0,0-2.87,1.41,3.58,3.58,0,0,0,.56,2.7A36.25,36.25,0,0,0-99.43-78.82c4.2,1.8,8.75,2.81,12.72,5.08s7.23,5.76,11.44,7.56A52,52,0,0,0-67.4-64,43.13,43.13,0,0,1-61-61.88,53.21,53.21,0,0,1-44.38-48.56c2.6,3.25,4.68,6.88,7,10.33a85.15,85.15,0,0,0,20,20.83A31.16,31.16,0,0,1-35.94-30.68,12.26,12.26,0,0,0-38-33.41a3.18,3.18,0,0,0-3.19-.72q-3.47-4.08-7.13-8c-2.86-3-5.93-6.08-9.84-7.52-1.43-.53-2.94-.82-4.35-1.39a28.78,28.78,0,0,1-5.73-3.51A74.9,74.9,0,0,0-77-59.87c-1-.52-2.49-.87-3,.14a2.06,2.06,0,0,0,0,1.3c.79,3.46,2.88,6.47,5.18,9.17,5.18,6.09,11.53,11,17.41,16.46q1.68,1.56,3.34,3.15c-6.51-.89-12.44-4.83-17.06-9.6C-76.32-44.61-80.24-51-84.85-56.9c-.88-1.13-2.4-2.33-3.55-1.49-.94.67-.72,2.11-.35,3.2A36.39,36.39,0,0,0-82.1-43.36c-4.71-2.87-7.67-8-12.27-11a39.43,39.43,0,0,1-4.46-2.88c-2.77-2.38-4-6.24-7-8.34a2.07,2.07,0,0,0-1.28-.48c-1.24.09-1.48,1.81-1.25,3a32.58,32.58,0,0,0,2.6,7.63,63.06,63.06,0,0,0,11.54,17,13.71,13.71,0,0,0-5.06-1.84,1.37,1.37,0,0,0-.87.08c-.59.35-.36,1.25,0,1.83,1.54,2.35,4.14,3.74,6.4,5.41C-90-30.19-87-26.51-83.2-23.83A41.18,41.18,0,0,0-72-18.64a102,102,0,0,0,17.75,4l1.05.14c-1,.29-2.05.62-3.06,1a5.26,5.26,0,0,0-2.42,1.41c-.39.46-.61,1-1,1.53A6.66,6.66,0,0,1-61.42-9.1a116.24,116.24,0,0,0-15.85,13A19.75,19.75,0,0,0-82,10a2.85,2.85,0,0,0,0,2.85c.87,1,2.55.59,3.77,0,8-3.87,15.16-9.64,23.8-11.5a2.3,2.3,0,0,0,2.16,2.28,6.42,6.42,0,0,0,3.34-.85c10.92-5,21.55-11.5,33.48-13.07l.8-.09A62.37,62.37,0,0,1,1.82,3c-3.1-17.54,10.7-24.95,16.39-41.82C22.22-50.69,8.75-64.15,26.88-82Z"/><path class="cls-1" d="M45,64.46C33.41,35.13,20.33,12,21-14.41c1.19,2.74,3.4,5.14,6.3,5.78,1.56.35,3.29.2,4.64,1s2,2.43,2.52,3.91A718.43,718.43,0,0,1,73.09,158.6C66.43,130.53,56.7,94.23,45,64.46Z"/><path class="cls-4" d="M305.58-78.92c-1.39-1.16-8.55,5.84-12.71,11.37.11-.57-.14-1.18-1.21-1.83-2.6-1.56-22.09,14.4-33.14,21.61,5.61-5.46,11.36-11.14,14.27-18.4.62-1.53,1-3.55-.31-4.59-1.59-1.29-3.87.27-5.28,1.76a196.07,196.07,0,0,0-15.89,19.11c1.07-2.14-1.29-4.77-3.68-4.69s-4.35,2-5.54,4.06-1.86,4.43-3.12,6.46c-5.55,8.9-19.17,7.92-27.26,14.58-5.55,4.57-6,12-12.92,13.77-1.47.38-5.12,1.23-6.1.11A6.56,6.56,0,0,1,191-20.38c.25-3.73,2.77-7,5.83-9.15s6.66-3.39,10.15-4.74a142.79,142.79,0,0,0,42.21-25.38c1.35-1.17,2.78-2.57,2.87-4.36s-2.17-3.54-3.51-2.35a45.59,45.59,0,0,0,8.58-11.89,4.75,4.75,0,0,0,.58-3,31.89,31.89,0,0,0,12.09-6.55c.95-.88,1.88-2.11,1.5-3.34-.48-1.57-2.58-1.79-4.22-1.68a115.16,115.16,0,0,0-16.53,2.32L252-91.94c4.29-4.53,8.59-9,12.7-13.75,1.47-1.67,3-3.5,3.22-5.7s-1.38-4.76-3.6-4.59l3.51-6.3c2.23-4,4.49-8.09,5.22-12.61a6.63,6.63,0,0,0-.57-4.27,17.31,17.31,0,0,0,4-5,3.42,3.42,0,0,0,.48-2c-.31-1.79-2.74-2.1-4.55-1.88a59.39,59.39,0,0,0-18.12,5.24c4.19-3.7,8.42-7.34,12.75-10.86,2-1.67,4.19-3.4,5.29-5.81.84-1.82.65-4.52-1.24-5.2a120.15,120.15,0,0,0,9.67-10c1.22-1.42,2.46-3,2.68-4.85a2.07,2.07,0,0,0-.51-1.81,2.48,2.48,0,0,0-2.39-.13c-5.17,1.59-9.76,4.63-14.27,7.64l-10.72,7.15a19.69,19.69,0,0,0,.82-6.74,3.34,3.34,0,0,0-.48-1.82,2.43,2.43,0,0,0-2.85-.65,5.4,5.4,0,0,0-2.29,2.1,29.71,29.71,0,0,0-2.73,5.89,158.38,158.38,0,0,1-16.76,32,31.92,31.92,0,0,0,.54-6.76c-.09-2.54-.85-5.5-3.21-6.4.64-2.41,1.28-4.93.81-7.38s-2.41-4.81-4.91-4.89l-.12-3.63a1.79,1.79,0,0,0-.6-1.55,1.47,1.47,0,0,0-1.07-.06c-2,.49-3.26,2.42-4.24,4.23a75.12,75.12,0,0,0-4.76,10.6,3.14,3.14,0,0,0-3.66.81,9.65,9.65,0,0,0-1.86,3.56,102.5,102.5,0,0,1-7.63,16.26c-.35.44-.69.89-1,1.36a39.59,39.59,0,0,0-10.6,5,59.46,59.46,0,0,0,9.39-11.12,5.47,5.47,0,0,0,1.12-2.76,2,2,0,0,0-1.7-2.12,31,31,0,0,0,8.44-9.81c1-1.88,1.59-4.73-.29-5.75-1.25-.68-2.78,0-4,.67a63.63,63.63,0,0,0-21.94,20.4,29.65,29.65,0,0,0,.5-11.68c-.13-.85-.42-1.83-1.24-2.1-1.19-.38-2.1,1.06-2.52,2.24q-2.19,6.14-4.37,12.28l-1.22,3.41c-.34,1-.68,1.92-1,2.9-1.33,4.13-2.09,8.42-3.19,12.61-.72,2.72-1.59,5.4-2.53,8a51.49,51.49,0,0,1,0-10.82c.28-2.66.72-5.56-.65-7.86a13.31,13.31,0,0,1-1.14-1.83c-.53-1.31-.12-2.78.09-4.18a15.11,15.11,0,0,0-.24-5.84,3,3,0,0,0-.87-1.68,2.23,2.23,0,0,0-2.77.31,6.57,6.57,0,0,0-1.49,2.6l-3,7.8a62.68,62.68,0,0,0-3.46,10.67c-1.22,6.65-.21,13.5,1,20.16a10.56,10.56,0,0,0-6.09,6.35c-.14.37-.27.74-.39,1.12a4,4,0,0,0-4.62-.43c-1.83,1.11-2.73,3.26-3.36,5.3a45.52,45.52,0,0,0-1.68,8c-2.39-5.94-1.39-13-2.92-19.39-.49-2-1.46-4.25-3.43-5a17.89,17.89,0,0,0-1.48-9.89,2.38,2.38,0,0,0-.87-1.13c-1.07-.6-2.27.57-2.84,1.65-2.83,5.28-2.83,11.55-3,17.54a205.68,205.68,0,0,1-2.28,24.4,70.18,70.18,0,0,0-1.3,11.1c0,.84.06,1.66.14,2.49A18.61,18.61,0,0,1,114-62c-1-2.74-1.83-6.41-4.72-6.84-2.25-.33-4.16,1.78-4.9,3.92-.59,1.72-.75,3.57-1.27,5.29-.14-.28-.27-.57-.41-.86A41.89,41.89,0,0,1,100.37-65c-1.8-4.77-.5-10.55-3.32-14.8a3.4,3.4,0,0,0-2-1.6C93.32-81.78,92-80,91.4-78.28c-1.15,3.54-.86,7.56-2.78,10.75-.75,1.23-1.78,2.26-2.61,3.42-2.54,3.54-3.12,8.16-2.76,12.5S84.81-43,85.5-38.75a56.05,56.05,0,0,1,.21,16.66,56.75,56.75,0,0,1-4.49-16.72c-1.46-13.27,1.75-26.7.6-40a17.82,17.82,0,0,0-2.23-8.06c-1.5-2.38-4.28-4.14-7.06-3.71a6.44,6.44,0,0,0-3.93,2.33c-1.34-3.08-2.58-6.2-3.93-9.3L63-101.31a66.9,66.9,0,0,0-5.22-10.35,33.73,33.73,0,0,0-4.66-5.59,6.63,6.63,0,0,0-3.23-2,5.13,5.13,0,0,0-4.72,2.35C41.89-112.3,44-106,44.15-100.31c.07,3.4-.64,6.77-.9,10.17a38.33,38.33,0,0,0,1.82,14.81,2.67,2.67,0,0,0-3.36.67,6.42,6.42,0,0,0-1.27,3.46,23.81,23.81,0,0,0,1.24,11.07c-2.21-.45-3.7,2.26-4,4.49a25.5,25.5,0,0,0,1.9,13L29.67-52.4C28.39-53.66,26.41-55,25-53.88c-1,.8-.95,2.36-.73,3.65a61,61,0,0,0,4.6,14.88c-.93-1-2.84-.13-3.19,1.22s.31,2.73,1,4A80.5,80.5,0,0,0,44.29-8.24a34.36,34.36,0,0,0-9.78-4.26,7.56,7.56,0,0,0-3.34-.28,3,3,0,0,0-2.39,2.12c-.3,1.46.86,2.77,2,3.77A62.38,62.38,0,0,0,45.37,3a3.41,3.41,0,0,0-3.1,2.67,8.39,8.39,0,0,0,.3,4.36,34.45,34.45,0,0,0,3.56,8.44l-4.2-.9a2,2,0,0,0-1.09,0,1.55,1.55,0,0,0-.77.88c-1,2.32.75,4.81,2.36,6.74,8.28,9.9,16.94,19.75,22.41,31.44a6.07,6.07,0,0,0-2.51-2,2.06,2.06,0,0,0-2.64,1.21,3,3,0,0,0,.6,2.06l12.6,21.45c1.61,2.74,3.22,5.48,4.93,8.15h-.07a70.1,70.1,0,0,1-8-7A100.17,100.17,0,0,0,54,68.26c-6-3.74-12.55-6.9-19.58-7.6a1.91,1.91,0,0,0-.95.09,1.62,1.62,0,0,0-.64,1.68c.26,3.29,2.85,5.86,5.35,8Q43.38,75,49,79a1.74,1.74,0,0,0-.57,2.39,4.31,4.31,0,0,0,2.13,1.66c4.19,1.94,8.83,2.62,13.32,3.71s9.05,2.74,12.19,6.12c2.71,2.91,4,6.65,5.08,10.53q-.54,11.59-2,23.13c-.64,4.93-1.41,9.84-2.18,14.76-1.45,9.22-2.9,18.48-5.61,27.42C69.48,175,67,181.05,63,186.17l17.65,2a37.19,37.19,0,0,1,9.73,2c-3.39-8.65-2.09-18.33-.75-27.52,2.74-18.77,5.48-37.61,10.51-55.88,3.4-4.15,7-8.16,10.69-12,3.08-3.17,6.45-6.33,10.69-7.6,5.6-1.66,11.56.29,17.06,2.26,2.2.8,4.54,1.61,6.85,1.2s4.49-2.53,4.08-4.84c-.39-2.13-2.68-3.36-4.81-3.75s-4.4-.27-6.38-1.16l23-2.17c1.75-.16,3.72-.44,4.77-1.85s-.07-4.11-1.76-3.59c12.3-7.1,27.54-7.52,40-14.34a86.43,86.43,0,0,0,10.49-7.33c3.82-2.91,11.32-8.42,10.36-9.91s-6,2-8.48,4.08a52.06,52.06,0,0,1-28.49,12,21.4,21.4,0,0,0,6.35-7.41c.5-1,.87-2.25.09-3s-2-.35-2.9,0l-16.65,7.07a4.61,4.61,0,0,0,.08-3.91,4.75,4.75,0,0,0-5.12-.19,17.05,17.05,0,0,0-4.12,3.5A48.91,48.91,0,0,1,145.9,66a13.54,13.54,0,0,0,5.74-5.84,2.34,2.34,0,0,0,.35-1.61c-.36-1.51-2.61-1.18-4-.43a42.58,42.58,0,0,0-9.33,7l5.49-13.29c.89-2.14,1.79-4.45,1.34-6.73s-2.89-4.31-5-3.43a4,4,0,0,0-.12-3.59,13,13,0,0,1,4.49-1.73C149,35.71,153,37.84,157,39.13c13.75,4.46,28.54-1,42-6.4,10.68-4.26,28.27-19,26.68-20.41s-16.64,9.26-26,10.51c3.15-2.64,8.68-8.62,6.92-10a1.57,1.57,0,0,0-1.22-.05c9.55-3.44,23.38-11.42,22.39-13.51-1.1-2.29-16.19.67-23.53,4C237.81-15,249.44-22,248-24.45s-10.29,1.34-15.43,2a167.94,167.94,0,0,0,71.14-48.36C305.75-73.16,307.14-77.59,305.58-78.92Z"/><path class="cls-2" d="M57.58,30.6A64.3,64.3,0,0,1,39.85,18.86c-.54,2.17,1,4.44,2.52,6.23C50.65,35,59.31,44.84,64.78,56.53a6.07,6.07,0,0,0-2.51-2,2.06,2.06,0,0,0-2.64,1.21,3,3,0,0,0,.6,2.06l12.6,21.45c1.61,2.74,3.22,5.48,4.93,8.15h-.07a70.1,70.1,0,0,1-8-7A100.17,100.17,0,0,0,53.92,68.2c-6-3.74-12.55-6.9-19.58-7.6a1.91,1.91,0,0,0-1,.09,1.62,1.62,0,0,0-.64,1.68c.26,3.29,2.85,5.86,5.35,8Q43.32,74.9,48.94,79a1.74,1.74,0,0,0-.57,2.39A4.31,4.31,0,0,0,50.5,83c4.19,1.94,8.83,2.62,13.32,3.71S72.87,89.46,76,92.84c2.71,2.91,4,6.65,5.08,10.53q-.54,11.59-2,23.13c-.64,4.93-1.41,9.84-2.18,14.76-1.45,9.22-2.9,18.48-5.61,27.42-1.88,6.21-4.41,12.31-8.4,17.43l17.65,2a37.19,37.19,0,0,1,9.73,2c-3.39-8.65-2.09-18.33-.75-27.52C92.27,143.82,95,125,100,106.71c3.4-4.15,7-8.16,10.69-12,3.08-3.17,6.45-6.33,10.69-7.6,5.6-1.66,11.56.29,17.06,2.26,2.2.8,4.54,1.61,6.85,1.2s4.49-2.53,4.08-4.84c-.39-2.13-2.68-3.36-4.81-3.75s-4.4-.27-6.38-1.16l23-2.17c1.75-.16,3.72-.44,4.77-1.85s-.07-4.11-1.76-3.59c12.3-7.1,27.54-7.52,40-14.34a86.64,86.64,0,0,0,10.55-7.27c3.82-2.91,11.32-8.42,10.36-9.91s-6,2-8.48,4.08a52.06,52.06,0,0,1-28.49,12,21.4,21.4,0,0,0,6.35-7.41c.5-1,.87-2.25.09-3s-2-.35-2.9,0l-16.65,7.07a4.61,4.61,0,0,0,.08-3.91,4.75,4.75,0,0,0-5.12-.19,17.05,17.05,0,0,0-4.12,3.5A48.91,48.91,0,0,1,145.9,66a13.54,13.54,0,0,0,5.74-5.84,2.34,2.34,0,0,0,.35-1.61c-.36-1.51-2.61-1.18-4-.43a42.58,42.58,0,0,0-9.33,7l5.49-13.29c.89-2.14,1.79-4.45,1.34-6.73s-2.89-4.31-5-3.43a4,4,0,0,0-.12-3.59,13,13,0,0,1,4.49-1.73C149,35.71,153,37.84,157,39.13c13.75,4.46,28.54-1,42-6.4,10.68-4.26,28.27-19,26.68-20.41s-16.64,9.26-26,10.51c3.15-2.64,8.68-8.62,6.92-10a1.57,1.57,0,0,0-1.22-.05c9.55-3.44,23.38-11.42,22.39-13.51-1.1-2.29-16.19.67-23.53,4C210.53-.2,216.14-3.26,221-6c-17.19,4.4-35.36,5-49.43,16.62C138.58,38.6,94.58,48.6,57.58,30.6Z"/><path class="cls-1" d="M116.74,43.31c1.37-3.24,2.39-6.63,3.56-10a95.49,95.49,0,0,1,10.9-21.87c.78-1.14,1.58-2.22,2.41-3.28,1.81,5.19,4.12,10.26,6.43,15.25Q128.16,33.11,116.74,43.31Z"/><path class="cls-1" d="M180.48-3.63c1.76-1.5,4.36-1.26,6.66-1.67A41.31,41.31,0,0,1,178,2C178.58,0,178.88-2.28,180.48-3.63Z"/><path class="cls-1" d="M98-5c1.21-8.94,4.33-17.5,6.33-26.29l.12.24c1.22,2.21,2.82,4.22,3.71,6.58,1.18,3.09,1,6.53,1.93,9.72,1.32,4.75,4.75,8.6,6.88,13a10.22,10.22,0,0,1,1.21,4.93,12.33,12.33,0,0,1-1,3.57L108,31a77.43,77.43,0,0,0-3.4,10.74C99.77,26.54,95.83,10.71,98-5Z"/><path class="cls-1" d="M74.58-1.59c1.54-1,3.75,0,4.63,1.64s1.92,5.49.68,5.41S75.78,1.67,73.58-.4A3.29,3.29,0,0,1,74.58-1.59Z"/><path class="cls-1" d="M69.17,37.6c-2.44-7.41-3.08-15.25-3.8-23a13.62,13.62,0,0,0,4.29,2.19c3.27,1,6.75,1.13,10,2a21.91,21.91,0,0,1,8.62,4.67,15.48,15.48,0,0,0,2.86,2.1,103.39,103.39,0,0,1,6.55,20.75c.46,2.3.86,4.63,1.32,6.93-2.23,11.38-5.71,22.52-9.2,33.6-.48,1.53-1.07,3.19-2.46,4a3.79,3.79,0,0,1-2.56.37,30.32,30.32,0,0,1,1.59-14.56c1-2.64,2.35-5.16,3-7.91a2.24,2.24,0,0,0-.23-1.95c-.75-.87-2.17-.27-3.06.45a20.67,20.67,0,0,0-4.77,5.48A94.11,94.11,0,0,1,85.05,51.6c1.06-3.58,2.34-7.36,1.36-11a3.72,3.72,0,0,0-1.28-2.13,3.13,3.13,0,0,0-3.68.33,7.88,7.88,0,0,0-2.16,3.29,33.38,33.38,0,0,0-2.44,14.58C74.81,50.15,71.32,44.15,69.17,37.6Z"/><path class="cls-1" d="M124.19,60.93c-.62,8.85-6.51,16.49-13.18,22.35-2.54,2.23-5.23,4.3-7.92,6.35,1.31-9.78,3.18-19.69,8.84-27.67,3.23-4.55,7.53-8.21,11.88-11.69.36-.28.73-.55,1.08-.83a9,9,0,0,0-.25.89C123.84,53.78,124.44,57.39,124.19,60.93Z"/><path class="cls-1" d="M128.36,46.76q2.26-1.74,4.57-3.43c-1.06,1.67-2.05,3.37-2.93,5.12A1.85,1.85,0,0,0,128.36,46.76Z"/><path class="cls-1" d="M180.58,25.15a5.47,5.47,0,0,0-6.2-4.23c9.24-3.13,19-4.58,28.33-7.29l.53-.16C197.76,15.68,187.15,22,180.58,25.15Z"/><path class="cls-5" d="M107.58,25.46a7.07,7.07,0,0,0-.64-2.25,1.69,1.69,0,0,0-2-.85c-.91.41-.77,1.57-2.91,2.16,2.08,1,1.6,2.49,1.38,3.77A29.17,29.17,0,0,0,103,38.41a25.78,25.78,0,0,0,1.44,4c1.59-5.18,3-9.31,4.42-13.62A10.23,10.23,0,0,1,107.58,25.46Z"/></g><g id="fruit"><path class="cls-6" d="M341,146.6a1171.37,1171.37,0,0,0-133.64,5C132.52,159,79.86,190.13,79.86,190.13L283.12,265H341Z"/><path class="cls-7" d="M163.65,206.7s-4.23-22.9-.36-42.16,12.45-40.29,12.3-42.71-7.11-6.12-8.59-4.51-15.22,56.87-9.59,88.49S163.65,206.7,163.65,206.7Z"/><path class="cls-7" d="M261.13,214.67c-.71-21-40.73-48.32-91-48.32s-91,23.94-91,48.32,40.72,44.15,91,44.15S261.94,239,261.13,214.67Z"/><path class="cls-8" d="M147.94,169.52a106.2,106.2,0,0,0-51.69,17.74c65.12-9.49,85.3,33.38,91.76,56,8.93,31.24,32.52,4.5,23.61,19.57h30.69c2.72-6.78,19.36-23.52,19.36-30.93C261.67,189.6,206.44,165.26,147.94,169.52Z"/><path class="cls-9" d="M129.21,205.83c-27.31-19.1,13.28,58.31,13.28,58.31L146,261"/><path class="cls-10" d="M76.65,207.12C76,186.12,38.4,153.5-9.4,153.5s-85.52,27.8-85.52,52.18,38.75,44.15,86.55,44.15S77.43,231.5,76.65,207.12Z"/><path class="cls-11" d="M-18.5,155.6c-12.76.67-28.3,3.3-42.14,9.61,52.36-12.82,76,5.22,82.22,14.18,13.36,19.11,6.32,58.05-1.17,70.72,12,0,38.26-13.58,38.26-13.58,2.29-5.7,5.19-11.71,5.19-17.94C63.86,183,30.81,153-18.5,155.6Z"/><path class="cls-12" d="M-11.35,154.13a113.29,113.29,0,0,0-47.3,10.09c13.83-4.47,24.55-7.29,35.3-8.1,36.25-2.72,54.29,9.34,65.12,18.18,7.46,6.08,20.56,22.77,20.42,37.5-.13,13.28-12.9,23.39-16.37,30.37,11.1,0,28.83-5.66,28.83-5.66a47.85,47.85,0,0,0,3.54-17.91C78.19,183,38.1,154.13-11.35,154.13Z"/><path class="cls-13" d="M74.07,180.88C34.82,180.88,3,209.73,3,245.31c0,6.23,1.7,13.5,3.52,19.2l137.75.55c1.3-5.79,2-15.5,1-25.2C142,207.21,113.32,180.88,74.07,180.88Z"/><path class="cls-14" d="M160.84,169.33c19.39.5,28.1,6.68,42.1,11.76,11.8,4.29,17,9.32,27.22,17,5.41,1.56,16.9.73,19.41,2.54-5.14-7.31-23.37-19.85-41.92-25.59C196.48,171.6,174.69,167.06,160.84,169.33Z"/><path class="cls-15" d="M88.38,181.88a81.66,81.66,0,0,0-14.8-1.36c-27.21,0-52.83,13.16-64.86,36.91,7.3,2.76,5.52,5.47,13.62.32s11.6-9.82,25.41-21S70.08,184.15,88.38,181.88Z"/><path class="cls-16" d="M341,255.3c-19.67-35.72-71-56.81-120.91-49.57-40.86,5.94-68.24,29.36-79.15,59.26H341Z"/><path class="cls-17" d="M289.39,216.05c-17-8.35-42.81-10.66-59.81-6.45,34.81.39,87.25,23.78,94,29.21C316.65,230.31,311.32,226.82,289.39,216.05Z"/><path class="cls-18" d="M259.39,244.12s2.16-23.18,11.12-40.66,23-35.38,23.46-37.76-5.18-7.82-7-6.68-30.15,50.58-33.34,82.58S259.39,244.12,259.39,244.12Z"/><path class="cls-19" d="M37,253.08c-7.11-49-61.24-81.63-120.91-73-51.67,7.52-90.49,43.59-95.41,84.91H37.74A73,73,0,0,0,37,253.08Z"/><path class="cls-17" d="M-7.19,200.37C-22.8,189.6-47.95,183.6-65.42,185.29-31,190.75,18.52,220.7,24.36,227,15.91,217.39,12.93,214.22-7.19,200.37Z"/><path class="cls-20" d="M-179.34,265H37.74A74.16,74.16,0,0,0,37,253.08a74.69,74.69,0,0,0-3.29-13.58,79,79,0,0,0-15.8-26.69,60,60,0,0,0-44.31-9.21c-10,2-19,5.26-28,8s-18,5-27.95,5c-17-1-33-6-50-5-14.72,1.34-25.85,9.84-34.3,21a90,90,0,0,0-6.29,9.56A79.54,79.54,0,0,0-179.34,265Z"/><path class="cls-6" d="M85,240.6c-28.31,1.7-56.75-1.08-85,.91-25.75,1.8-52.21,8.1-72.67,23.49H115.79C123.76,235.94,90.87,240.24,85,240.6Z"/><path class="cls-10" d="M140.91,265H341v-7.12a35.94,35.94,0,0,0-5.36-5.39,40.54,40.54,0,0,0-4-2.88c-8.59-5.73-18.07-7.61-27.75-8-17.38-.61-35.43,3.78-50.2-.08-11.06-3.09-20.56-7.16-30.06-10.48-12-4.18-23.93-7.16-39-5.49-11.18,1.6-20.09,7.16-27.63,14.57a97.6,97.6,0,0,0-9.75,11.35c-1,1.72-1.93,3.48-2.8,5.26A83.18,83.18,0,0,0,140.91,265Z"/></g></svg>